<?xml version="1.0" encoding="utf-8"?>
<!-- Generator: Adobe Illustrator 16.0.3, SVG Export Plug-In . SVG Version: 6.00 Build 0)  -->
<!DOCTYPE svg PUBLIC "-//W3C//DTD SVG 1.1//EN" "http://www.w3.org/Graphics/SVG/1.1/DTD/svg11.dtd">
<svg version="1.1" id="Layer_1" xmlns="http://www.w3.org/2000/svg" xmlns:xlink="http://www.w3.org/1999/xlink" x="0px" y="0px"
	 width="226.772px" height="170.079px" viewBox="0 0 226.772 170.079" enable-background="new 0 0 226.772 170.079"
	 xml:space="preserve">
<g>
	<path fill="#6B6B6B" d="M97.078,66.921c-0.129-0.463-0.113-0.664-0.1-0.729l0.072-0.354l-1.182-1.062h-1.362l-0.14,0.439
		c-2.672,8.406-4.494,14.069-5.416,16.836c-6.125,18.71-13.216,28.196-21.075,28.196c-2.342,0-4.233-1.063-5.785-3.253
		c-1.427-1.98-2.151-4.246-2.151-6.733c0-1.413,0.351-2.59,1.046-3.503c0.481-0.643,0.835-1.323,1.05-2.023l0.039-0.127
		l-0.016-0.133c-0.312-2.65-1.949-3.046-2.896-3.046c-1.641,0-2.954,0.764-3.898,2.263c-0.796,1.223-1.2,2.669-1.2,4.3
		c0,3.632,1.37,7.377,4.074,11.134c2.944,4.061,6.245,6.119,9.811,6.119c7.961,0,15.279-8.289,21.757-24.66
		c2.193-6.239,3.92-11.345,5.128-15.165l2.417-7.176l0.033-0.201C97.284,67.785,97.219,67.429,97.078,66.921z"/>
	<path fill="#6B6B6B" d="M99.699,49.315c2.698,0,4.885-1.629,4.885-3.639c0-2.009-2.187-3.639-4.885-3.639
		c-2.699,0-4.886,1.63-4.886,3.639C94.813,47.686,97,49.315,99.699,49.315"/>
	<path fill="#6B6B6B" d="M151.402,81.306c-0.929,0.147-2.294,0.562-4.101,1.245c-1.807,0.684-3.198,1.099-4.174,1.245
		c-4.345,0.635-7.079,1.001-8.202,1.099c-3.173,0.341-5.907,0.512-8.201,0.512c-4.101,0-7.591-0.781-10.471-2.343
		c-3.613-1.953-5.419-4.808-5.419-8.567c0-3.808,1.514-8.153,4.54-13.034c2.685-4.345,5.956-8.177,9.813-11.497
		c4.782-4.051,9.25-6.077,13.398-6.077c3.027,0,4.541,1.367,4.541,4.1c0,1.465-0.343,3.564-1.026,6.297
		c0.636,1.124,1.221,1.831,1.759,2.124c0.293,0.147,1.221,0.342,2.782,0.586c0.684-5.125,1.025-8.152,1.025-9.08
		c0-5.613-2.978-8.421-8.934-8.421c-4.102,0-8.787,2.051-14.06,6.151c-4.344,3.369-8.273,7.567-11.789,12.595
		c-4.198,6.004-6.297,11.252-6.297,15.743c0,9.373,6.492,14.059,19.478,14.059c3.856,0,8.25-0.537,13.181-1.611l12.888-3.368
		C151.939,82.332,151.694,81.746,151.402,81.306"/>
	<path fill="#6B6B6B" d="M68.685,52.015c-4.525,3.77-7.973,5.764-10.343,5.979l-1.535,1.535c0-1.561,0.901-4.16,2.706-7.796
		c1.805-3.636,2.708-6.101,2.708-7.394c0-1.077-0.27-2.208-0.808-3.394c1.724-0.861,3.07-1.454,4.04-1.778
		c1.454-0.483,2.854-0.726,4.201-0.726c1.508,0,2.854,0.323,4.04,0.969c1.401,0.754,2.101,1.831,2.101,3.231
		C75.795,44.905,73.424,48.029,68.685,52.015 M77.411,35.613c-1.455-0.592-3.987-0.889-7.596-0.889
		c-3.608,0-7.783,0.754-12.524,2.262c-5.925,1.886-8.888,4.229-8.888,7.03v1.131c0,0.215,0.269,0.62,0.809,1.212
		c0.861-0.378,2.234-1.185,4.121-2.424c1.723-1.131,3.124-1.858,4.201-2.181l0.162,1.049c0,2.318-1.401,5.899-4.202,10.747
		c-3.717,6.411-6.303,10.855-7.756,13.332c-2.748,4.847-4.122,8.86-4.122,12.039l4.606,0.807
		c2.747-10.018,8.323-15.027,16.726-15.027c2.261,0,4.524,0.377,6.787,1.13c3.07,1.023,4.605,2.398,4.605,4.122
		c0,2.747-3.986,5.791-11.958,9.129c-7.219,3.017-12.524,4.525-15.917,4.525c-1.778,0-4.929-1.292-9.454-3.879
		c-0.377,1.187-0.566,2.103-0.566,2.749c0,1.669,0.97,2.962,2.909,3.877c1.562,0.646,3.286,0.97,5.172,0.97
		c6.033,0,12.981-1.507,20.846-4.524c9.534-3.716,14.302-8.052,14.302-13.009c0-3.232-1.913-5.522-5.737-6.868
		c-2.155-0.755-5.334-1.617-9.534-2.586c5.871-4.147,9.398-6.76,10.584-7.837c4.148-3.771,6.222-7.353,6.222-10.746
		C81.209,38.684,79.942,36.636,77.411,35.613"/>
	<path fill="#FFFFFF" d="M201.165,104.938c0,0.113-0.025,0.239-0.063,0.365c-0.214,0.595-0.782,1.213-1.793,1.213
		c-0.631,0-1.212-0.392-1.212-1.263c0-1.452,1.743-1.653,3.068-1.616V104.938z M201.759,103.082c0-1.086-0.329-2.398-2.083-2.398
		c-0.543,0-1.225,0.151-1.768,0.518l0.188,0.442c0.431-0.316,0.985-0.455,1.516-0.455c1.439-0.013,1.553,1.187,1.553,1.793v0.151
		c-2.462-0.025-3.699,0.82-3.699,2.223c0,0.808,0.568,1.666,1.78,1.666c0.972,0,1.642-0.543,1.932-1.011h0.038l0.088,0.871h0.543
		c-0.063-0.467-0.088-0.959-0.088-1.438V103.082z M198.388,98.348c0,0.645,0.379,1.427,1.452,1.427c0.846,0,1.452-0.556,1.452-1.427
		h-0.455c-0.038,0.43-0.341,0.935-0.997,0.935c-0.543,0-0.922-0.417-0.998-0.935H198.388z M191.23,106.882h0.593v-3.749
		c0-0.189,0.038-0.392,0.088-0.543c0.24-0.783,0.96-1.389,1.817-1.389c1.25,0,1.68,0.997,1.68,2.096v3.585h0.594v-3.636
		c0-2.271-1.528-2.563-2.109-2.563c-0.996,0-1.754,0.556-2.083,1.237h-0.024l-0.05-1.099h-0.557
		c0.025,0.479,0.052,0.896,0.052,1.452V106.882z M188.667,104.938c0,0.113-0.026,0.239-0.063,0.365
		c-0.215,0.595-0.782,1.213-1.793,1.213c-0.631,0-1.212-0.392-1.212-1.263c0-1.452,1.742-1.653,3.068-1.616V104.938z
		 M189.26,103.082c0-1.086-0.328-2.398-2.083-2.398c-0.543,0-1.225,0.151-1.768,0.518l0.189,0.442
		c0.43-0.316,0.985-0.455,1.516-0.455c1.438-0.013,1.553,1.187,1.553,1.793v0.151c-2.462-0.025-3.699,0.82-3.699,2.223
		c0,0.808,0.568,1.666,1.78,1.666c0.972,0,1.641-0.543,1.931-1.011h0.038l0.089,0.871h0.542c-0.063-0.467-0.088-0.959-0.088-1.438
		V103.082z M179.501,103.31c0.101-0.935,0.682-2.134,2.021-2.134c1.465,0,1.817,1.288,1.806,2.134H179.501z M183.933,103.789
		c0.025-0.101,0.025-0.202,0.025-0.366c0-0.871-0.379-2.739-2.361-2.739c-1.565,0-2.727,1.263-2.727,3.282
		c0,1.78,1.086,3.056,2.828,3.056c1.06,0,1.679-0.266,1.905-0.392l-0.15-0.479c-0.341,0.164-0.796,0.341-1.679,0.341
		c-1.25,0-2.312-0.758-2.312-2.702H183.933z M176.029,109.622c0.581-0.051,1.401-0.366,1.401-1.225c0-0.392-0.253-0.732-0.505-0.884
		l-0.505,0.151c0.252,0.177,0.467,0.467,0.467,0.771c0,0.543-0.491,0.782-1.022,0.858L176.029,109.622z M175.777,99.711v1.111
		h-1.023v0.479h1.023v3.838c0,0.619,0.101,1.124,0.379,1.439c0.227,0.291,0.593,0.442,1.035,0.442c0.365,0,0.644-0.063,0.846-0.151
		l-0.076-0.467c-0.151,0.05-0.379,0.101-0.694,0.101c-0.644,0-0.884-0.493-0.884-1.263v-3.939h1.73v-0.479h-1.73v-1.338
		L175.777,99.711z M169.553,103.31c0.102-0.935,0.683-2.134,2.021-2.134c1.464,0,1.817,1.288,1.805,2.134H169.553z M173.984,103.789
		c0.025-0.101,0.025-0.202,0.025-0.366c0-0.871-0.379-2.739-2.36-2.739c-1.566,0-2.728,1.263-2.728,3.282
		c0,1.78,1.085,3.056,2.828,3.056c1.06,0,1.679-0.266,1.906-0.392l-0.151-0.479c-0.341,0.164-0.796,0.341-1.68,0.341
		c-1.249,0-2.311-0.758-2.311-2.702H173.984z M166.788,104.434c0,0.188-0.025,0.341-0.063,0.505
		c-0.265,1.01-1.072,1.578-1.943,1.578c-1.439,0-2.121-1.25-2.121-2.613c0-1.578,0.833-2.728,2.159-2.728
		c0.983,0,1.69,0.683,1.905,1.49c0.038,0.164,0.063,0.391,0.063,0.555V104.434z M166.788,97.919v3.825h-0.025
		c-0.277-0.518-0.934-1.061-1.981-1.061c-1.49,0-2.74,1.263-2.728,3.282c0,1.806,1.123,3.056,2.613,3.056
		c1.124,0,1.843-0.618,2.159-1.288h0.024l0.038,1.148h0.543c-0.024-0.429-0.05-0.959-0.05-1.414v-7.549H166.788z M160.514,100.822
		h-0.594v3.774c0,0.24-0.063,0.48-0.126,0.67c-0.252,0.605-0.896,1.225-1.78,1.225c-1.198,0-1.615-0.947-1.615-2.26v-3.409h-0.594
		v3.522c0,2.298,1.287,2.677,2.059,2.677c1.085,0,1.779-0.656,2.083-1.212h0.024l0.038,1.072h0.556
		c-0.025-0.467-0.051-0.946-0.051-1.477V100.822z M153.292,104.117c0,1.882-0.606,2.387-1.691,2.387
		c-0.379,0-0.694-0.089-0.908-0.177l-0.127,0.492c0.215,0.101,0.656,0.202,1.035,0.202c1.225,0,2.298-0.606,2.298-2.777v-5.871
		h-0.606V104.117z M146.172,104.938c0,0.113-0.024,0.239-0.063,0.365c-0.216,0.595-0.783,1.213-1.793,1.213
		c-0.632,0-1.213-0.392-1.213-1.263c0-1.452,1.742-1.653,3.068-1.616V104.938z M146.765,103.082c0-1.086-0.328-2.398-2.083-2.398
		c-0.543,0-1.224,0.151-1.767,0.518l0.188,0.442c0.43-0.316,0.985-0.455,1.516-0.455c1.438-0.013,1.553,1.187,1.553,1.793v0.151
		c-2.462-0.025-3.699,0.82-3.699,2.223c0,0.808,0.568,1.666,1.78,1.666c0.972,0,1.641-0.543,1.932-1.011h0.038l0.088,0.871h0.543
		c-0.063-0.467-0.089-0.959-0.089-1.438V103.082z M141.387,106.15c-0.328,0.139-0.795,0.341-1.515,0.341
		c-1.401,0-2.399-1.035-2.399-2.613c0-1.427,0.834-2.677,2.462-2.677c0.671,0,1.138,0.188,1.44,0.354l0.214-0.492
		c-0.24-0.164-0.846-0.379-1.591-0.379c-1.817,0-3.13,1.313-3.13,3.231c0,1.831,1.161,3.106,2.916,3.106
		c0.871,0,1.502-0.266,1.767-0.404L141.387,106.15z M131.376,103.31c0.101-0.935,0.682-2.134,2.021-2.134
		c1.464,0,1.817,1.288,1.805,2.134H131.376z M135.807,103.789c0.025-0.101,0.025-0.202,0.025-0.366c0-0.871-0.378-2.739-2.36-2.739
		c-1.565,0-2.727,1.263-2.727,3.282c0,1.78,1.085,3.056,2.828,3.056c1.06,0,1.679-0.266,1.905-0.392l-0.151-0.479
		c-0.34,0.164-0.795,0.341-1.679,0.341c-1.25,0-2.311-0.758-2.311-2.702H135.807z M127.652,99.711v1.111h-1.023v0.479h1.023v3.838
		c0,0.619,0.101,1.124,0.378,1.439c0.228,0.291,0.594,0.442,1.036,0.442c0.365,0,0.643-0.063,0.845-0.151l-0.075-0.467
		c-0.152,0.05-0.379,0.101-0.695,0.101c-0.644,0-0.883-0.493-0.883-1.263v-3.939h1.729v-0.479h-1.729v-1.338L127.652,99.711z
		 M123.056,101.176c1.592,0,2.223,1.54,2.223,2.651c0,1.553-0.997,2.689-2.261,2.689c-1.236,0-2.209-1.137-2.209-2.651
		C120.809,102.565,121.516,101.176,123.056,101.176 M123.069,100.684c-1.503,0-2.866,1.137-2.866,3.22
		c0,1.894,1.212,3.118,2.777,3.118c1.351,0,2.903-0.959,2.903-3.232C125.884,101.934,124.748,100.684,123.069,100.684
		 M118.372,98.563c-0.278,0-0.492,0.253-0.492,0.53s0.189,0.518,0.467,0.518c0.316,0,0.505-0.24,0.505-0.518
		C118.852,98.802,118.663,98.563,118.372,98.563 M118.663,100.822h-0.593v6.06h0.593V100.822z M115.393,106.882h0.594v-8.964h-0.594
		V106.882z M109.017,103.335c0-0.215,0.038-0.379,0.076-0.531c0.291-1.01,1.136-1.628,2.02-1.628c1.376,0,2.134,1.237,2.134,2.626
		c0,1.578-0.796,2.715-2.184,2.715c-0.947,0-1.73-0.606-1.995-1.527c-0.025-0.152-0.051-0.303-0.051-0.442V103.335z
		 M108.424,105.468c0,0.455-0.025,0.985-0.05,1.414h0.542l0.038-1.098h0.026c0.479,0.846,1.199,1.237,2.171,1.237
		c1.326,0,2.702-1.073,2.702-3.232c0-1.83-1.061-3.105-2.587-3.105c-1.073,0-1.818,0.479-2.222,1.263h-0.026v-4.027h-0.593V105.468z
		 M106.088,98.563c-0.277,0-0.492,0.253-0.492,0.53s0.189,0.518,0.467,0.518c0.316,0,0.505-0.24,0.505-0.518
		C106.568,98.802,106.379,98.563,106.088,98.563 M106.379,100.822h-0.593v6.06h0.593V100.822z M100.016,102.603h1.073
		c1.351,0,2.5,0.581,2.5,1.919c0,1.451-1.225,1.919-2.525,1.919c-0.442,0-0.796-0.013-1.048-0.063V102.603z M100.016,98.903
		c0.189-0.05,0.518-0.088,1.086-0.088c1.262,0,2.159,0.429,2.159,1.629c0,0.945-0.771,1.666-1.995,1.666h-1.25V98.903z
		 M99.423,106.87c0.328,0.038,0.82,0.075,1.477,0.075c1.199,0,2.121-0.228,2.676-0.809c0.392-0.403,0.631-0.934,0.631-1.628
		c0-1.389-1.085-2.008-1.792-2.172v-0.024c0.846-0.304,1.464-1.035,1.464-1.906c0-0.594-0.177-1.048-0.517-1.402
		c-0.48-0.467-1.175-0.693-2.235-0.693c-0.631,0-1.237,0.063-1.704,0.177V106.87z"/>
	<path fill="#FFFFFF" d="M171.586,120.088c0,0.114-0.025,0.24-0.063,0.366c-0.216,0.594-0.783,1.212-1.793,1.212
		c-0.632,0-1.213-0.391-1.213-1.262c0-1.452,1.742-1.654,3.068-1.616V120.088z M172.179,118.232c0-1.086-0.328-2.399-2.083-2.399
		c-0.543,0-1.225,0.152-1.767,0.519l0.188,0.441c0.43-0.315,0.985-0.455,1.516-0.455c1.438-0.012,1.553,1.188,1.553,1.793v0.152
		c-2.462-0.026-3.699,0.82-3.699,2.222c0,0.809,0.568,1.666,1.78,1.666c0.972,0,1.641-0.543,1.931-1.01h0.038l0.089,0.871h0.543
		c-0.063-0.467-0.089-0.959-0.089-1.439V118.232z M165.778,119.521c0,0.215-0.037,0.441-0.113,0.644
		c-0.303,0.871-1.062,1.363-1.869,1.363c-1.426,0-2.146-1.174-2.146-2.537c0-1.604,0.884-2.664,2.172-2.664
		c0.983,0,1.628,0.656,1.881,1.389c0.05,0.177,0.075,0.366,0.075,0.58V119.521z M166.372,117.538c0-0.631,0.025-1.111,0.05-1.566
		h-0.555l-0.025,1.023h-0.025c-0.252-0.505-0.847-1.162-2.045-1.162c-1.339,0-2.728,1.111-2.728,3.22
		c0,1.654,1.073,2.979,2.601,2.979c1.087,0,1.794-0.555,2.108-1.174h0.025v0.858c0,1.792-0.921,2.462-2.196,2.462
		c-0.783,0-1.376-0.239-1.793-0.505l-0.215,0.479c0.455,0.341,1.225,0.518,1.919,0.518c0.682,0,1.503-0.188,2.058-0.72
		c0.505-0.479,0.821-1.25,0.821-2.802V117.538z M157.181,116.326c1.592,0,2.223,1.54,2.223,2.651c0,1.553-0.998,2.688-2.261,2.688
		c-1.236,0-2.209-1.136-2.209-2.651C154.934,117.715,155.641,116.326,157.181,116.326 M157.193,115.833
		c-1.502,0-2.865,1.137-2.865,3.22c0,1.895,1.212,3.118,2.777,3.118c1.351,0,2.903-0.959,2.903-3.231
		C160.009,117.083,158.873,115.833,157.193,115.833 M153.002,117.816h-2.575v0.492h1.982v3.005c-0.316,0.164-0.897,0.29-1.78,0.29
		c-2.248,0-3.662-1.428-3.662-3.825c0-2.312,1.44-3.826,3.788-3.826c0.809,0,1.376,0.152,1.818,0.366l0.188-0.505
		c-0.328-0.151-1.06-0.378-1.981-0.378c-2.892,0-4.432,2.007-4.432,4.367c0,1.376,0.468,2.513,1.161,3.194
		c0.859,0.833,1.895,1.124,3.019,1.124c1.161,0,2.045-0.291,2.474-0.467V117.816z M137.36,122.032h0.593v-3.749
		c0-0.19,0.038-0.392,0.089-0.543c0.24-0.783,0.959-1.389,1.818-1.389c1.25,0,1.679,0.996,1.679,2.096v3.585h0.593v-3.636
		c0-2.272-1.526-2.563-2.107-2.563c-0.998,0-1.756,0.556-2.083,1.238h-0.026l-0.05-1.1h-0.557c0.026,0.48,0.052,0.897,0.052,1.452
		V122.032z M134.797,120.088c0,0.114-0.024,0.24-0.063,0.366c-0.216,0.594-0.783,1.212-1.793,1.212
		c-0.632,0-1.213-0.391-1.213-1.262c0-1.452,1.743-1.654,3.068-1.616V120.088z M135.391,118.232c0-1.086-0.329-2.399-2.084-2.399
		c-0.542,0-1.224,0.152-1.767,0.519l0.188,0.441c0.431-0.315,0.985-0.455,1.516-0.455c1.439-0.012,1.553,1.188,1.553,1.793v0.152
		c-2.462-0.026-3.699,0.82-3.699,2.222c0,0.809,0.568,1.666,1.78,1.666c0.972,0,1.641-0.543,1.932-1.01h0.038l0.088,0.871h0.543
		c-0.063-0.467-0.088-0.959-0.088-1.439V118.232z M129.293,113.712c-0.278,0-0.493,0.253-0.493,0.531
		c0,0.277,0.19,0.517,0.467,0.517c0.316,0,0.506-0.239,0.506-0.517C129.772,113.952,129.583,113.712,129.293,113.712
		 M129.583,115.972h-0.593v6.061h0.593V115.972z M122.45,115.972l2.374,6.061h0.529l2.463-6.061h-0.633l-1.438,3.764
		c-0.228,0.58-0.442,1.11-0.618,1.616h-0.026c-0.164-0.506-0.353-1.023-0.593-1.616l-1.414-3.764H122.45z M120.796,120.088
		c0,0.114-0.024,0.24-0.063,0.366c-0.216,0.594-0.783,1.212-1.793,1.212c-0.632,0-1.213-0.391-1.213-1.262
		c0-1.452,1.743-1.654,3.068-1.616V120.088z M121.39,118.232c0-1.086-0.329-2.399-2.084-2.399c-0.542,0-1.224,0.152-1.767,0.519
		l0.188,0.441c0.431-0.315,0.985-0.455,1.516-0.455c1.439-0.012,1.553,1.188,1.553,1.793v0.152c-2.462-0.026-3.699,0.82-3.699,2.222
		c0,0.809,0.568,1.666,1.78,1.666c0.972,0,1.641-0.543,1.932-1.01h0.038l0.088,0.871h0.543c-0.063-0.467-0.088-0.959-0.088-1.439
		V118.232z M113.954,114.861v1.11h-1.023v0.48h1.023v3.838c0,0.619,0.101,1.124,0.378,1.439c0.228,0.291,0.594,0.441,1.036,0.441
		c0.366,0,0.643-0.063,0.845-0.15l-0.075-0.468c-0.151,0.051-0.379,0.102-0.694,0.102c-0.645,0-0.884-0.493-0.884-1.263v-3.939
		h1.729v-0.48h-1.729v-1.338L113.954,114.861z M111.972,121.3c-0.329,0.14-0.796,0.342-1.515,0.342
		c-1.402,0-2.399-1.035-2.399-2.613c0-1.427,0.833-2.677,2.462-2.677c0.669,0,1.136,0.188,1.439,0.354l0.215-0.493
		c-0.24-0.164-0.846-0.379-1.591-0.379c-1.818,0-3.131,1.313-3.131,3.232c0,1.831,1.161,3.105,2.916,3.105
		c0.871,0,1.503-0.265,1.768-0.403L111.972,121.3z M102.642,113.889c2.134,0,3.118,2.046,3.118,3.839
		c0,2.108-1.123,3.938-3.143,3.938s-3.131-1.906-3.131-3.825C99.486,115.859,100.483,113.889,102.642,113.889 M102.68,113.384
		c-2.134,0-3.813,1.692-3.813,4.482c0,2.651,1.616,4.305,3.712,4.305c1.969,0,3.8-1.477,3.8-4.481
		C106.379,115.051,104.826,113.384,102.68,113.384"/>
	<path fill="#FFFFFF" d="M116.378,128.862c-0.291,0-0.505,0.253-0.505,0.531c0,0.265,0.188,0.517,0.467,0.517
		c0.328,0,0.505-0.252,0.505-0.517C116.845,129.115,116.655,128.862,116.378,128.862 M114.421,139.821
		c0.391,0,1.161-0.177,1.59-0.657c0.531-0.568,0.645-1.313,0.645-2.397v-5.645h-0.594v5.24c0,1.603-0.139,2.083-0.454,2.461
		c-0.277,0.329-0.744,0.479-1.263,0.505L114.421,139.821z M113.941,131.122h-0.594v3.775c0,0.239-0.063,0.479-0.127,0.669
		c-0.251,0.605-0.896,1.225-1.78,1.225c-1.199,0-1.616-0.947-1.616-2.26v-3.409h-0.593v3.523c0,2.297,1.288,2.676,2.058,2.676
		c1.086,0,1.78-0.656,2.083-1.212h0.025l0.037,1.072h0.557c-0.026-0.467-0.051-0.946-0.051-1.477V131.122z M106.606,137.182h0.593
		v-8.964h-0.593V137.182z M105.003,136.399c-0.48,0.239-1.187,0.392-1.919,0.392c-2.273,0-3.598-1.49-3.598-3.8
		c0-2.449,1.401-3.939,3.699-3.939c0.719,0,1.338,0.151,1.767,0.366l0.202-0.505c-0.265-0.139-0.896-0.379-1.982-0.379
		c-2.676,0-4.305,1.919-4.305,4.444c0,3.017,1.97,4.343,4.027,4.343c1.036,0,1.856-0.215,2.286-0.442L105.003,136.399z"/>
</g>
</svg>
