<?xml version="1.0" encoding="utf-8"?>
<!-- Generator: Adobe Illustrator 16.0.3, SVG Export Plug-In . SVG Version: 6.00 Build 0)  -->
<!DOCTYPE svg PUBLIC "-//W3C//DTD SVG 1.1//EN" "http://www.w3.org/Graphics/SVG/1.1/DTD/svg11.dtd">
<svg version="1.1" id="Layer_1" xmlns="http://www.w3.org/2000/svg" xmlns:xlink="http://www.w3.org/1999/xlink" x="0px" y="0px"
	 width="358.333px" height="44px" viewBox="0 0 358.333 44" enable-background="new 0 0 358.333 44" xml:space="preserve">
<rect x="0.48" y="3.276" fill="#034EA2" width="57.332" height="37.111"/>
<path fill="#FFF200" d="M38,27.369l1.229,0.857l-0.461,1.387l1.21-0.859l1.209,0.859l-0.461-1.387l1.229-0.857h-1.513l-0.464-1.404
	l-0.465,1.406L38,27.369z M16.612,19.875l-0.464,1.408l-1.514-0.003l1.228,0.856l-0.46,1.387l1.21-0.857l1.209,0.857l-0.46-1.387
	l1.228-0.856h-1.514L16.612,19.875z M19.042,16.067l1.228-0.857h-1.514l-0.464-1.405l-0.463,1.407l-1.514-0.002l1.228,0.857
	l-0.46,1.386l1.209-0.857l1.21,0.857L19.042,16.067z M19.042,28.227l1.228-0.857h-1.514l-0.464-1.404l-0.463,1.406l-1.514-0.002
	l1.228,0.857l-0.46,1.387l1.209-0.859l1.21,0.859L19.042,28.227z M23.624,11.61l1.228-0.858h-1.515l-0.464-1.404l-0.463,1.406
	l-1.514-0.002l1.228,0.858l-0.459,1.386l1.209-0.858l1.209,0.858L23.624,11.61z M23.632,32.682l1.228-0.855h-1.514l-0.464-1.404
	l-0.463,1.406l-1.514-0.002l1.228,0.855l-0.46,1.389l1.21-0.859l1.209,0.859L23.632,32.682z M29.883,9.975l1.229-0.856h-1.515
	l-0.463-1.403L28.67,9.121l-1.513-0.002l1.227,0.856l-0.46,1.388l1.21-0.857l1.21,0.857L29.883,9.975z M29.884,34.297l1.229-0.855
	h-1.515l-0.463-1.406l-0.463,1.406h-1.515l1.228,0.855l-0.459,1.387l1.209-0.857l1.209,0.857L29.884,34.297z M33.412,31.826
	l1.227,0.855l-0.46,1.389l1.21-0.859l1.21,0.859l-0.461-1.389l1.228-0.855h-1.514l-0.463-1.404l-0.464,1.406L33.412,31.826z
	 M36.156,11.611l1.228-0.859h-1.516l-0.462-1.403l-0.463,1.407l-1.515-0.004l1.227,0.859l-0.459,1.386l1.211-0.859l1.208,0.859
	L36.156,11.611z M40.727,16.048l1.229-0.855h-1.513l-0.464-1.404l-0.465,1.406L38,15.193l1.229,0.855l-0.461,1.386l1.21-0.856
	l1.209,0.856L40.727,16.048z M43.618,21.263h-1.514l-0.465-1.404l-0.463,1.406l-1.514-0.002l1.229,0.858l-0.46,1.385l1.208-0.857
	l1.21,0.857l-0.46-1.385L43.618,21.263z"/>
<line fill="none" stroke="#000000" stroke-width="0.39" x1="68.717" y1="22.918" x2="69.068" y2="22.918"/>
<line fill="none" stroke="#000000" stroke-width="0.39" stroke-dasharray="0.492,0.492,0.492,0.492" x1="69.771" y1="22.918" x2="72.233" y2="22.918"/>
<line fill="none" stroke="#000000" stroke-width="0.39" stroke-dasharray="0.501,0.501,0.501,0.501,0.501,0.501" stroke-dashoffset="1" x1="72.585" y1="22.918" x2="346.547" y2="22.918"/>
<g>
	<defs>
		<rect id="SVGID_1_" x="-0.667" y="2.198" width="347.917" height="39.693"/>
	</defs>
	<clipPath id="SVGID_2_">
		<use xlink:href="#SVGID_1_"  overflow="visible"/>
	</clipPath>
	
		<line clip-path="url(#SVGID_2_)" fill="none" stroke="#000000" stroke-width="0.39" x1="346.9" y1="22.918" x2="347.25" y2="22.918"/>
	<path clip-path="url(#SVGID_2_)" fill="#6A6A6A" d="M322.249,7.056v8.252c0,0.231,0.122,0.347,0.365,0.347h1.297
		c0.134,0,0.222-0.034,0.266-0.1c0.043-0.067,0.063-0.15,0.063-0.247V7.056c0-0.098-0.02-0.181-0.063-0.246
		c-0.044-0.067-0.132-0.102-0.266-0.102h-1.297C322.371,6.708,322.249,6.825,322.249,7.056 M234.115,30.615
		c-0.05,0.035-0.076,0.113-0.076,0.236v7.635c0,0.191,0.102,0.287,0.303,0.287h0.691c0.18,0,0.271-0.096,0.271-0.287v-7.635
		c0-0.191-0.091-0.287-0.271-0.287h-0.691C234.242,30.564,234.166,30.582,234.115,30.615 M234.097,27.852
		c-0.094,0.135-0.143,0.311-0.143,0.523c0,0.201,0.039,0.379,0.118,0.529c0.078,0.154,0.281,0.229,0.606,0.229
		c0.314,0,0.514-0.072,0.598-0.219c0.085-0.146,0.127-0.326,0.127-0.539c0-0.225-0.045-0.402-0.135-0.531
		c-0.089-0.129-0.287-0.193-0.59-0.193C234.387,27.65,234.193,27.719,234.097,27.852 M226.364,30.615
		c-0.051,0.035-0.077,0.113-0.077,0.236v7.635c0,0.191,0.103,0.287,0.303,0.287h0.691c0.18,0,0.27-0.096,0.27-0.287v-7.635
		c0-0.191-0.09-0.287-0.27-0.287h-0.691C226.49,30.564,226.414,30.582,226.364,30.615 M226.346,27.852
		c-0.095,0.135-0.144,0.311-0.144,0.523c0,0.201,0.039,0.379,0.118,0.529c0.078,0.154,0.281,0.229,0.607,0.229
		c0.315,0,0.514-0.072,0.597-0.219c0.085-0.146,0.128-0.326,0.128-0.539c0-0.225-0.045-0.402-0.136-0.531
		c-0.089-0.129-0.286-0.193-0.589-0.193C226.634,27.65,226.442,27.719,226.346,27.852 M202.947,27.869v10.617
		c0,0.191,0.102,0.287,0.305,0.287h0.724c0.19,0,0.286-0.096,0.286-0.287v-4.904h4.129c0.201,0,0.304-0.096,0.304-0.287v-0.656
		c0-0.18-0.096-0.271-0.286-0.271h-4.162v-3.555h4.7c0.203,0,0.304-0.096,0.304-0.285v-0.658c0-0.18-0.096-0.27-0.285-0.27h-5.697
		C203.054,27.6,202.947,27.689,202.947,27.869 M167.811,30.852v7.635c0,0.191,0.088,0.287,0.266,0.287h0.715
		c0.189,0,0.283-0.096,0.283-0.287v-5.949c0.101-0.057,0.258-0.121,0.471-0.193c0.214-0.072,0.447-0.146,0.7-0.221
		c0.253-0.072,0.514-0.145,0.784-0.219c0.269-0.072,0.517-0.131,0.741-0.176c0.18-0.023,0.253-0.135,0.219-0.336l-0.067-0.709
		c-0.023-0.102-0.051-0.166-0.084-0.195c-0.034-0.027-0.102-0.029-0.202-0.008c-0.214,0.045-0.445,0.111-0.692,0.195
		s-0.488,0.18-0.724,0.285c-0.236,0.107-0.452,0.215-0.649,0.32c-0.197,0.107-0.351,0.205-0.464,0.295l-0.033-0.035v-0.689
		c0-0.191-0.1-0.287-0.299-0.287h-0.699C167.899,30.564,167.811,30.66,167.811,30.852 M150.571,27.887v10.615
		c0,0.18,0.101,0.271,0.303,0.271h5.915c0.102,0,0.174-0.02,0.219-0.051c0.045-0.035,0.068-0.107,0.068-0.221v-0.641
		c0-0.189-0.09-0.285-0.27-0.285h-4.921v-4.01h4.297c0.192,0,0.287-0.092,0.287-0.271v-0.656c0-0.18-0.095-0.271-0.287-0.271h-4.297
		v-3.555h4.786c0.202,0,0.304-0.096,0.304-0.285v-0.658c0-0.18-0.096-0.27-0.287-0.27h-5.814
		C150.672,27.6,150.571,27.695,150.571,27.887 M125.217,30.615c-0.051,0.035-0.076,0.113-0.076,0.236v7.635
		c0,0.191,0.101,0.287,0.304,0.287h0.691c0.179,0,0.269-0.096,0.269-0.287v-7.635c0-0.191-0.09-0.287-0.269-0.287h-0.691
		C125.344,30.564,125.268,30.582,125.217,30.615 M118.855,30.869v0.473c0,0.189,0.096,0.285,0.287,0.285h0.926v5.494
		c0,0.27,0.029,0.514,0.085,0.732c0.056,0.221,0.151,0.408,0.286,0.564c0.135,0.158,0.321,0.277,0.557,0.363
		c0.235,0.084,0.533,0.125,0.893,0.125c0.123,0,0.272-0.008,0.446-0.023c0.175-0.018,0.354-0.039,0.539-0.068
		c0.186-0.027,0.36-0.061,0.523-0.102c0.162-0.039,0.295-0.088,0.396-0.143c0.112-0.068,0.163-0.174,0.152-0.32l-0.068-0.389
		c-0.023-0.088-0.056-0.148-0.101-0.176s-0.135-0.035-0.269-0.025c-0.125,0.012-0.295,0.025-0.515,0.041
		c-0.218,0.02-0.373,0.027-0.463,0.027c-0.259,0-0.463-0.016-0.615-0.043s-0.273-0.082-0.362-0.16
		c-0.09-0.078-0.149-0.18-0.177-0.303c-0.028-0.125-0.043-0.287-0.043-0.488v-5.107h1.871c0.124,0,0.202-0.023,0.236-0.068
		c0.034-0.043,0.051-0.117,0.051-0.217v-0.49c0-0.09-0.017-0.16-0.051-0.209c-0.034-0.051-0.112-0.078-0.236-0.078h-1.871v-2.072
		c0-0.225-0.095-0.309-0.286-0.252l-0.674,0.186c-0.09,0.021-0.16,0.057-0.211,0.102c-0.05,0.043-0.076,0.117-0.076,0.217v1.82
		h-0.943C118.951,30.564,118.855,30.666,118.855,30.869 M70.354,29.285c-0.303,0.539-0.509,1.16-0.615,1.861
		c-0.107,0.701-0.161,1.424-0.161,2.166c0,0.73,0.056,1.432,0.169,2.105c0.112,0.676,0.326,1.27,0.64,1.787
		c0.315,0.518,0.75,0.93,1.307,1.238c0.556,0.311,1.277,0.463,2.165,0.463c0.169,0,0.382-0.008,0.641-0.023
		c0.258-0.018,0.53-0.043,0.817-0.076c0.286-0.033,0.57-0.078,0.851-0.137c0.281-0.055,0.522-0.129,0.724-0.219
		c0.113-0.043,0.177-0.094,0.194-0.15s0.014-0.129-0.008-0.219l-0.084-0.439c-0.023-0.055-0.054-0.109-0.093-0.158
		c-0.04-0.051-0.121-0.066-0.245-0.043c-0.404,0.057-0.842,0.109-1.314,0.16c-0.472,0.051-0.966,0.076-1.483,0.076
		c-0.618,0-1.118-0.121-1.5-0.363c-0.382-0.24-0.677-0.564-0.885-0.969s-0.345-0.869-0.413-1.398c-0.067-0.529-0.1-1.074-0.1-1.635
		c0-0.617,0.027-1.205,0.084-1.762c0.056-0.557,0.185-1.045,0.387-1.467c0.203-0.42,0.495-0.756,0.877-1.002
		c0.382-0.248,0.898-0.371,1.55-0.371c0.506,0,1.008,0.025,1.508,0.076s0.935,0.105,1.306,0.16c0.113,0.023,0.188,0.012,0.228-0.033
		c0.039-0.045,0.07-0.096,0.093-0.15l0.1-0.473c0.023-0.08,0.023-0.146,0-0.203c-0.022-0.057-0.095-0.113-0.218-0.17
		c-0.225-0.088-0.478-0.16-0.759-0.217c-0.281-0.057-0.562-0.102-0.843-0.137c-0.281-0.031-0.545-0.055-0.791-0.066
		c-0.248-0.012-0.455-0.016-0.624-0.016c-0.91,0-1.646,0.166-2.208,0.496C71.09,28.311,70.657,28.744,70.354,29.285 M72.149,11.346
		c-0.073-0.523-0.109-1.083-0.109-1.68c0-0.596,0.03-1.158,0.091-1.688c0.06-0.529,0.191-0.995,0.393-1.397
		c0.2-0.4,0.489-0.718,0.867-0.948c0.377-0.231,0.876-0.348,1.497-0.348c0.474,0,0.97,0.024,1.488,0.073
		c0.517,0.049,1.001,0.104,1.451,0.165c0.171,0.023,0.286,0.012,0.347-0.037c0.061-0.048,0.103-0.128,0.128-0.238L78.466,4.5
		c0.025-0.146,0.009-0.262-0.045-0.347c-0.055-0.085-0.156-0.158-0.302-0.219c-0.244-0.098-0.511-0.18-0.803-0.246
		c-0.292-0.067-0.59-0.122-0.895-0.165c-0.304-0.042-0.599-0.073-0.885-0.091c-0.286-0.019-0.539-0.028-0.758-0.028
		c-1.047,0-1.889,0.184-2.528,0.548c-0.639,0.365-1.139,0.843-1.497,1.434c-0.359,0.591-0.6,1.264-0.722,2.018
		c-0.122,0.755-0.182,1.522-0.182,2.3c0,0.779,0.067,1.534,0.201,2.265c0.134,0.729,0.38,1.382,0.739,1.953
		c0.359,0.572,0.858,1.031,1.497,1.379c0.639,0.347,1.47,0.521,2.492,0.521c0.219,0,0.478-0.01,0.776-0.028
		c0.298-0.018,0.602-0.052,0.913-0.101c0.31-0.048,0.614-0.106,0.913-0.173c0.298-0.067,0.556-0.149,0.776-0.246
		c0.28-0.122,0.383-0.316,0.31-0.585l-0.146-0.694c-0.037-0.121-0.085-0.206-0.146-0.255c-0.061-0.048-0.176-0.061-0.347-0.037
		c-0.499,0.062-0.98,0.116-1.442,0.165c-0.463,0.049-0.962,0.073-1.497,0.073c-0.597,0-1.08-0.109-1.452-0.329
		c-0.371-0.219-0.66-0.521-0.867-0.904C72.362,12.323,72.222,11.87,72.149,11.346 M79.707,33.283
		c0.056-0.383,0.163-0.705,0.32-0.963c0.157-0.26,0.371-0.455,0.641-0.584c0.269-0.129,0.623-0.195,1.061-0.195
		c0.46,0,0.834,0.066,1.121,0.195c0.286,0.129,0.511,0.322,0.674,0.576s0.272,0.574,0.328,0.963
		c0.057,0.389,0.085,0.842,0.085,1.359c0,0.529-0.028,0.988-0.085,1.377c-0.056,0.391-0.165,0.711-0.328,0.965
		c-0.163,0.252-0.388,0.441-0.674,0.564c-0.287,0.125-0.661,0.188-1.121,0.188c-0.438,0-0.792-0.066-1.061-0.195
		c-0.27-0.129-0.484-0.324-0.641-0.584c-0.157-0.258-0.264-0.58-0.32-0.961c-0.056-0.383-0.084-0.834-0.084-1.354
		C79.623,34.117,79.651,33.666,79.707,33.283 M79.892,30.811c-0.449,0.275-0.789,0.619-1.02,1.035
		c-0.23,0.418-0.379,0.865-0.446,1.348c-0.067,0.484-0.101,0.928-0.101,1.332c0,0.496,0.025,1.002,0.076,1.525
		c0.05,0.521,0.188,0.994,0.413,1.416s0.564,0.768,1.019,1.035c0.456,0.271,1.087,0.404,1.896,0.404
		c0.831,0,1.484-0.133,1.955-0.404c0.472-0.268,0.823-0.615,1.053-1.045c0.23-0.426,0.374-0.898,0.43-1.416
		c0.056-0.516,0.084-1.02,0.084-1.516c0-0.504-0.036-1.006-0.11-1.498c-0.072-0.496-0.233-0.936-0.48-1.324S84.057,31,83.591,30.76
		c-0.466-0.242-1.087-0.363-1.862-0.363S80.341,30.535,79.892,30.811 M85.678,11.163c0,0.488-0.025,0.914-0.073,1.279
		c-0.049,0.365-0.146,0.666-0.292,0.903s-0.35,0.415-0.612,0.529c-0.262,0.116-0.6,0.173-1.013,0.173
		c-0.39,0-0.707-0.061-0.949-0.182c-0.244-0.121-0.433-0.301-0.567-0.539c-0.134-0.237-0.228-0.535-0.282-0.894
		c-0.055-0.359-0.083-0.782-0.083-1.271c0-0.474,0.028-0.891,0.083-1.25c0.054-0.358,0.151-0.66,0.292-0.902
		c0.139-0.244,0.331-0.427,0.575-0.549C83,8.339,83.316,8.279,83.706,8.279c0.414,0,0.748,0.061,1.004,0.183S85.167,8.763,85.313,9
		s0.243,0.535,0.292,0.895C85.653,10.253,85.678,10.677,85.678,11.163 M87.604,12.661c0.067-0.56,0.1-1.102,0.1-1.625
		c0-0.536-0.045-1.071-0.136-1.606c-0.092-0.535-0.277-1.02-0.556-1.451c-0.28-0.433-0.683-0.782-1.212-1.05
		c-0.528-0.268-1.234-0.401-2.121-0.401c-0.874,0-1.57,0.155-2.086,0.465c-0.516,0.312-0.907,0.694-1.175,1.15
		c-0.267,0.457-0.44,0.946-0.519,1.47c-0.079,0.524-0.119,0.998-0.119,1.424c0,0.523,0.031,1.065,0.092,1.625
		c0.061,0.561,0.221,1.074,0.482,1.542c0.262,0.469,0.653,0.854,1.176,1.151c0.521,0.298,1.238,0.447,2.149,0.447
		c0.947,0,1.687-0.149,2.221-0.447c0.535-0.298,0.936-0.683,1.203-1.151C87.37,13.735,87.537,13.221,87.604,12.661 M89.473,30.795
		c-0.264,0.111-0.503,0.229-0.716,0.35c-0.214,0.121-0.388,0.227-0.523,0.314l-0.05-0.016v-0.596c0-0.123-0.025-0.199-0.076-0.232
		c-0.051-0.033-0.126-0.051-0.228-0.051h-0.69c-0.181,0-0.27,0.096-0.27,0.287v7.635c0,0.191,0.089,0.287,0.27,0.287h0.69
		c0.203,0,0.304-0.096,0.304-0.289v-5.98c0.123-0.066,0.303-0.154,0.539-0.262c0.236-0.104,0.489-0.209,0.758-0.311
		c0.27-0.102,0.54-0.191,0.81-0.271c0.269-0.078,0.505-0.119,0.707-0.119c0.259,0,0.475,0.029,0.649,0.086s0.315,0.158,0.421,0.305
		c0.107,0.146,0.183,0.346,0.228,0.6c0.045,0.252,0.068,0.57,0.068,0.955l-0.018,4.998c0,0.193,0.096,0.289,0.287,0.289h0.708
		c0.202,0,0.303-0.096,0.303-0.287v-4.971c0-0.451-0.026-0.867-0.076-1.248c-0.05-0.383-0.16-0.709-0.328-0.986
		c-0.169-0.275-0.414-0.492-0.734-0.648c-0.319-0.156-0.755-0.236-1.305-0.236c-0.304,0-0.602,0.039-0.894,0.117
		S89.737,30.686,89.473,30.795 M95.043,10.25V9.32c0-0.195-0.103-0.293-0.31-0.293h-5.295c-0.207,0-0.31,0.098-0.31,0.293v0.931
		c0,0.195,0.103,0.292,0.31,0.292h5.295C94.94,10.542,95.043,10.446,95.043,10.25 M96.391,30.564H95.7
		c-0.18,0-0.269,0.096-0.269,0.287v7.635c0,0.191,0.089,0.287,0.269,0.287h0.691c0.202,0,0.304-0.096,0.304-0.289v-5.98
		c0.123-0.066,0.303-0.154,0.539-0.262c0.235-0.104,0.489-0.209,0.758-0.311c0.27-0.102,0.54-0.191,0.809-0.271
		c0.27-0.078,0.505-0.119,0.708-0.119c0.258,0,0.474,0.029,0.649,0.086c0.174,0.057,0.314,0.158,0.421,0.305s0.183,0.346,0.227,0.6
		c0.046,0.252,0.068,0.57,0.068,0.955l-0.017,4.998c0,0.193,0.095,0.289,0.287,0.289h0.707c0.202,0,0.303-0.096,0.303-0.287v-4.971
		c0-0.451-0.025-0.867-0.075-1.248c-0.051-0.383-0.161-0.709-0.328-0.986c-0.169-0.275-0.414-0.492-0.734-0.648
		c-0.32-0.156-0.756-0.236-1.306-0.236c-0.304,0-0.601,0.039-0.893,0.117s-0.57,0.172-0.834,0.281
		c-0.264,0.111-0.504,0.229-0.717,0.35s-0.387,0.227-0.522,0.314l-0.05-0.016v-0.596c0-0.123-0.026-0.199-0.076-0.232
		C96.568,30.582,96.492,30.564,96.391,30.564 M104.382,15.564c0.042-0.062,0.063-0.146,0.063-0.256V7.075
		c0-0.11-0.021-0.199-0.063-0.265c-0.043-0.067-0.131-0.102-0.265-0.102H99.37V5.851c0-0.572,0.149-0.971,0.447-1.196
		c0.299-0.225,0.727-0.338,1.287-0.338c0.293,0,0.633,0.019,1.023,0.055c0.389,0.037,0.778,0.08,1.168,0.128
		c0.098,0.014,0.183,0.01,0.256-0.009c0.073-0.018,0.122-0.094,0.146-0.228l0.128-0.749c0.024-0.11,0.024-0.207,0-0.292
		c-0.025-0.085-0.104-0.158-0.237-0.22c-0.195-0.085-0.415-0.154-0.658-0.21c-0.243-0.054-0.487-0.097-0.73-0.128
		c-0.244-0.029-0.484-0.051-0.721-0.063s-0.448-0.019-0.63-0.019c-1.23,0-2.115,0.271-2.657,0.813
		C97.65,3.937,97.38,4.689,97.38,5.65v1.059h-0.84c-0.231,0-0.347,0.122-0.347,0.366v0.895c0,0.23,0.116,0.347,0.347,0.347h0.84
		v6.992c0,0.231,0.122,0.347,0.365,0.347h1.278c0.134,0,0.222-0.03,0.265-0.091c0.042-0.062,0.064-0.146,0.064-0.256V8.316h3.103
		v6.992c0,0.231,0.122,0.347,0.365,0.347h1.297C104.251,15.655,104.339,15.625,104.382,15.564 M107.21,31.541
		c0.449,0,0.809,0.076,1.079,0.221c0.269,0.146,0.477,0.338,0.623,0.572c0.146,0.236,0.245,0.502,0.296,0.801
		c0.05,0.299,0.075,0.594,0.075,0.887h-4.129c0.023-0.383,0.073-0.727,0.152-1.029c0.079-0.303,0.197-0.563,0.354-0.775
		c0.158-0.215,0.362-0.379,0.615-0.496C106.528,31.602,106.84,31.541,107.21,31.541 M107.244,30.396
		c-0.775,0-1.387,0.146-1.836,0.438c-0.45,0.293-0.793,0.654-1.029,1.088s-0.388,0.898-0.455,1.398
		c-0.067,0.5-0.101,0.953-0.101,1.357c0,0.539,0.036,1.064,0.109,1.576c0.074,0.512,0.228,0.963,0.464,1.355
		c0.236,0.395,0.581,0.711,1.037,0.953c0.455,0.24,1.07,0.361,1.845,0.361c0.202,0,0.427-0.012,0.674-0.033
		c0.247-0.023,0.494-0.055,0.741-0.094c0.247-0.037,0.483-0.086,0.708-0.143c0.225-0.055,0.416-0.117,0.573-0.184
		c0.157-0.07,0.219-0.182,0.186-0.338l-0.068-0.371c-0.022-0.111-0.065-0.18-0.126-0.203c-0.062-0.021-0.149-0.027-0.261-0.016
		c-0.147,0.021-0.318,0.045-0.514,0.066c-0.197,0.023-0.402,0.043-0.616,0.059c-0.213,0.018-0.427,0.033-0.64,0.053
		c-0.213,0.016-0.404,0.023-0.573,0.023c-0.393,0-0.728-0.043-1.003-0.127s-0.502-0.229-0.682-0.436
		c-0.18-0.209-0.309-0.484-0.387-0.828c-0.079-0.342-0.125-0.768-0.136-1.271h4.753c0.314,0,0.519-0.094,0.615-0.277
		c0.095-0.186,0.137-0.414,0.127-0.684c-0.023-0.461-0.077-0.916-0.161-1.365s-0.247-0.848-0.488-1.197
		c-0.242-0.348-0.582-0.627-1.02-0.842C108.542,30.504,107.963,30.396,107.244,30.396 M114.176,15.564
		c0.049-0.062,0.073-0.146,0.073-0.256v-5.294c0-0.463-0.024-0.904-0.073-1.324c-0.049-0.42-0.165-0.788-0.348-1.105
		c-0.183-0.315-0.452-0.567-0.806-0.757c-0.354-0.188-0.842-0.283-1.465-0.283c-0.281,0-0.568,0.034-0.861,0.101
		s-0.573,0.155-0.842,0.265c-0.269,0.11-0.522,0.229-0.76,0.356c-0.238,0.128-0.443,0.253-0.614,0.374
		c-0.012,0-0.021-0.003-0.027-0.01c-0.006-0.006-0.015-0.009-0.028-0.009V7.075c0-0.244-0.116-0.366-0.347-0.366h-1.296
		c-0.231,0-0.347,0.122-0.347,0.366v8.233c0,0.231,0.116,0.347,0.347,0.347h1.296c0.231,0,0.347-0.115,0.347-0.347V9.21
		c0.122-0.062,0.286-0.138,0.493-0.229s0.43-0.182,0.667-0.273s0.474-0.168,0.712-0.229c0.237-0.062,0.447-0.091,0.63-0.091
		c0.523,0,0.873,0.164,1.05,0.491c0.176,0.33,0.264,0.763,0.264,1.298l-0.018,5.13c0,0.231,0.116,0.347,0.35,0.347h1.327
		C114.035,15.655,114.127,15.625,114.176,15.564 M116.025,30.414c-0.225-0.012-0.422-0.018-0.59-0.018
		c-0.742,0-1.335,0.119-1.778,0.354c-0.444,0.236-0.787,0.551-1.028,0.945c-0.242,0.393-0.399,0.842-0.472,1.348
		c-0.073,0.504-0.11,1.027-0.11,1.568c0,0.594,0.037,1.15,0.11,1.666c0.073,0.518,0.23,0.973,0.472,1.365
		c0.241,0.395,0.584,0.703,1.028,0.928c0.443,0.225,1.036,0.336,1.778,0.336c0.426,0,0.878-0.027,1.356-0.082
		c0.478-0.057,0.874-0.158,1.189-0.305c0.157-0.078,0.218-0.197,0.185-0.355l-0.067-0.352c-0.023-0.111-0.066-0.18-0.127-0.203
		c-0.062-0.021-0.144-0.027-0.244-0.016c-0.169,0.021-0.36,0.041-0.574,0.059c-0.213,0.016-0.423,0.033-0.631,0.049
		c-0.209,0.02-0.41,0.031-0.607,0.043c-0.197,0.01-0.362,0.018-0.497,0.018c-0.371,0-0.685-0.051-0.944-0.152
		c-0.258-0.102-0.466-0.273-0.623-0.514c-0.158-0.242-0.27-0.564-0.337-0.969c-0.068-0.404-0.101-0.916-0.101-1.533
		c0-0.572,0.033-1.055,0.101-1.441c0.067-0.387,0.176-0.699,0.328-0.936c0.152-0.236,0.356-0.406,0.615-0.514
		c0.259-0.107,0.579-0.162,0.961-0.162c0.303,0,0.666,0.021,1.087,0.061s0.806,0.076,1.154,0.109
		c0.101,0.012,0.194,0.006,0.278-0.016c0.084-0.023,0.138-0.078,0.161-0.17l0.067-0.387c0.011-0.068,0.008-0.135-0.008-0.201
		c-0.018-0.068-0.071-0.119-0.161-0.154c-0.18-0.078-0.382-0.141-0.606-0.191c-0.225-0.053-0.453-0.092-0.683-0.119
		C116.476,30.445,116.249,30.426,116.025,30.414 M121.68,13.318c-0.171,0.097-0.366,0.198-0.584,0.301
		c-0.22,0.104-0.445,0.198-0.676,0.283c-0.232,0.085-0.463,0.153-0.694,0.201c-0.231,0.049-0.444,0.073-0.639,0.073
		c-0.426,0-0.721-0.076-0.885-0.229c-0.165-0.152-0.247-0.429-0.247-0.831c0-0.596,0.134-1,0.402-1.214
		c0.267-0.213,0.633-0.319,1.096-0.319h2.227V13.318z M124.692,15.272v-0.768c0-0.097-0.025-0.165-0.073-0.2
		c-0.049-0.036-0.14-0.062-0.274-0.073c-0.146-0.012-0.262-0.03-0.347-0.055s-0.149-0.064-0.192-0.119
		c-0.042-0.055-0.072-0.135-0.091-0.237c-0.018-0.103-0.027-0.246-0.027-0.429V9.867c0-0.51-0.037-0.973-0.109-1.387
		c-0.074-0.413-0.232-0.764-0.476-1.05c-0.243-0.286-0.599-0.509-1.067-0.666c-0.469-0.158-1.099-0.237-1.89-0.237
		c-0.219,0-0.466,0.009-0.739,0.027c-0.274,0.018-0.551,0.042-0.831,0.071c-0.28,0.03-0.554,0.069-0.821,0.117
		c-0.268,0.048-0.5,0.109-0.694,0.182c-0.207,0.085-0.335,0.165-0.384,0.243c-0.048,0.078-0.061,0.178-0.036,0.297l0.164,0.67
		c0.025,0.133,0.07,0.209,0.137,0.228c0.067,0.017,0.191,0.015,0.375-0.01c0.182-0.013,0.386-0.03,0.611-0.055
		c0.225-0.024,0.45-0.043,0.676-0.055c0.224-0.012,0.443-0.024,0.657-0.037c0.212-0.012,0.392-0.018,0.538-0.018
		c0.377,0,0.688,0.024,0.931,0.074c0.244,0.049,0.438,0.135,0.584,0.258s0.247,0.279,0.302,0.47c0.054,0.19,0.082,0.42,0.082,0.69
		v0.479h-2.337c-1.156,0-2.02,0.24-2.592,0.721c-0.573,0.481-0.853,1.258-0.84,2.327c0,0.391,0.039,0.743,0.118,1.061
		c0.079,0.315,0.213,0.587,0.402,0.812c0.189,0.226,0.444,0.401,0.767,0.529c0.322,0.128,0.727,0.192,1.214,0.192
		c0.621,0,1.22-0.11,1.798-0.328c0.578-0.221,1.099-0.506,1.562-0.859l0.036,0.02c0.097,0.426,0.276,0.718,0.538,0.876
		c0.262,0.157,0.606,0.236,1.032,0.236c0.134,0,0.274-0.009,0.42-0.026c0.146-0.019,0.292-0.04,0.438-0.064
		C124.546,15.606,124.692,15.479,124.692,15.272 M126.372,27.844c-0.091-0.129-0.287-0.193-0.59-0.193
		c-0.293,0-0.486,0.068-0.582,0.201c-0.096,0.135-0.143,0.311-0.143,0.523c0,0.201,0.039,0.379,0.118,0.529
		c0.078,0.154,0.28,0.229,0.607,0.229c0.314,0,0.513-0.072,0.598-0.219c0.084-0.146,0.126-0.326,0.126-0.539
		C126.506,28.15,126.461,27.973,126.372,27.844 M133.674,15.564c0.049-0.062,0.073-0.146,0.073-0.256v-5.294
		c0-0.463-0.024-0.904-0.073-1.324c-0.049-0.42-0.165-0.788-0.348-1.105c-0.183-0.315-0.452-0.567-0.806-0.757
		c-0.354-0.188-0.842-0.283-1.465-0.283c-0.281,0-0.568,0.034-0.86,0.101c-0.294,0.066-0.574,0.155-0.843,0.265
		c-0.269,0.11-0.522,0.229-0.76,0.356c-0.238,0.128-0.443,0.253-0.614,0.374c-0.012,0-0.021-0.003-0.027-0.01
		c-0.006-0.006-0.015-0.009-0.028-0.009V7.075c0-0.244-0.115-0.366-0.347-0.366h-1.296c-0.231,0-0.347,0.122-0.347,0.366v8.233
		c0,0.231,0.116,0.347,0.347,0.347h1.296c0.232,0,0.347-0.115,0.347-0.347V9.21c0.122-0.062,0.286-0.138,0.493-0.229
		s0.43-0.182,0.667-0.273s0.474-0.168,0.712-0.229c0.237-0.062,0.447-0.091,0.63-0.091c0.523,0,0.873,0.164,1.05,0.491
		c0.176,0.33,0.265,0.763,0.265,1.298l-0.019,5.13c0,0.231,0.117,0.347,0.35,0.347h1.326
		C133.533,15.655,133.625,15.625,133.674,15.564 M135.269,38.486v-4.971c0-0.451-0.025-0.867-0.075-1.248
		c-0.051-0.383-0.161-0.709-0.329-0.986c-0.169-0.275-0.413-0.492-0.734-0.648c-0.319-0.156-0.755-0.236-1.305-0.236
		c-0.304,0-0.602,0.039-0.894,0.117s-0.57,0.172-0.834,0.281c-0.264,0.111-0.503,0.229-0.716,0.35
		c-0.214,0.121-0.388,0.227-0.523,0.314l-0.05-0.016v-0.596c0-0.123-0.025-0.199-0.076-0.232c-0.051-0.033-0.126-0.051-0.228-0.051
		h-0.69c-0.181,0-0.27,0.096-0.27,0.287v7.635c0,0.191,0.089,0.287,0.27,0.287h0.69c0.203,0,0.304-0.096,0.304-0.289v-5.98
		c0.124-0.066,0.303-0.154,0.539-0.262c0.236-0.104,0.489-0.209,0.759-0.311c0.269-0.102,0.539-0.191,0.809-0.271
		c0.269-0.078,0.505-0.119,0.707-0.119c0.259,0,0.475,0.029,0.649,0.086s0.315,0.158,0.421,0.305c0.107,0.146,0.183,0.346,0.228,0.6
		c0.045,0.252,0.068,0.57,0.068,0.955l-0.017,4.998c0,0.193,0.095,0.289,0.286,0.289h0.708
		C135.168,38.773,135.269,38.678,135.269,38.486 M142.438,15.144c0.036-0.085,0.036-0.195,0-0.329l-0.11-0.657
		c-0.025-0.158-0.073-0.25-0.146-0.273c-0.073-0.024-0.183-0.024-0.329,0c-0.378,0.049-0.794,0.088-1.251,0.118
		c-0.456,0.03-0.824,0.045-1.104,0.045c-0.365,0-0.673-0.045-0.922-0.136s-0.454-0.252-0.611-0.481
		c-0.159-0.231-0.271-0.535-0.338-0.91c-0.067-0.377-0.101-0.851-0.101-1.42c0-1.007,0.146-1.723,0.439-2.147
		c0.292-0.425,0.809-0.637,1.551-0.637c0.316,0,0.672,0.018,1.068,0.054c0.396,0.037,0.782,0.074,1.159,0.11
		c0.171,0.012,0.299,0.006,0.384-0.019c0.085-0.023,0.146-0.104,0.182-0.237l0.129-0.738c0.036-0.246-0.055-0.418-0.275-0.516
		c-0.194-0.087-0.41-0.157-0.648-0.213c-0.237-0.057-0.481-0.103-0.73-0.139c-0.25-0.037-0.499-0.062-0.748-0.074
		c-0.25-0.012-0.478-0.018-0.685-0.018c-0.84,0-1.519,0.134-2.036,0.401s-0.912,0.617-1.186,1.05
		c-0.274,0.432-0.456,0.925-0.548,1.479c-0.092,0.555-0.137,1.111-0.137,1.67c0,0.621,0.043,1.216,0.128,1.78
		c0.085,0.566,0.264,1.063,0.539,1.488c0.273,0.426,0.669,0.767,1.186,1.022c0.517,0.255,1.202,0.384,2.054,0.384
		c0.45,0,0.937-0.034,1.46-0.101c0.524-0.066,0.962-0.174,1.315-0.32C142.297,15.308,142.401,15.229,142.438,15.144 M142.634,37.391
		c-0.428,0.123-0.86,0.219-1.298,0.287c-0.438,0.066-0.814,0.102-1.129,0.102c-0.349,0-0.641-0.057-0.876-0.17
		c-0.236-0.111-0.43-0.297-0.582-0.557c-0.151-0.258-0.261-0.59-0.328-0.994c-0.068-0.404-0.101-0.904-0.101-1.498
		c0-0.652,0.052-1.172,0.16-1.561c0.106-0.389,0.258-0.684,0.455-0.893c0.196-0.209,0.426-0.346,0.69-0.412
		c0.264-0.068,0.548-0.102,0.851-0.102c0.36,0,0.728,0.02,1.104,0.059c0.377,0.039,0.728,0.082,1.054,0.127V37.391z M143.527,30.803
		c-0.202-0.057-0.427-0.111-0.674-0.16c-0.247-0.051-0.506-0.096-0.776-0.127c-0.269-0.035-0.545-0.063-0.825-0.086
		c-0.281-0.021-0.551-0.033-0.809-0.033c-0.663,0-1.216,0.096-1.66,0.287c-0.444,0.191-0.801,0.473-1.07,0.842
		c-0.27,0.371-0.461,0.824-0.573,1.357c-0.113,0.533-0.168,1.143-0.168,1.828c0,0.641,0.047,1.219,0.143,1.736
		c0.095,0.516,0.267,0.959,0.513,1.332c0.247,0.369,0.582,0.654,1.003,0.85c0.422,0.197,0.958,0.295,1.609,0.295
		c0.304,0,0.65-0.035,1.037-0.109c0.388-0.074,0.839-0.205,1.357-0.396v0.674c0,0.293-0.031,0.543-0.093,0.752
		c-0.062,0.207-0.169,0.379-0.32,0.514c-0.152,0.133-0.354,0.232-0.607,0.295c-0.252,0.061-0.575,0.092-0.969,0.092
		c-0.348,0-0.741-0.012-1.18-0.033c-0.438-0.023-0.837-0.063-1.196-0.117c-0.123-0.023-0.219-0.023-0.287,0
		c-0.067,0.021-0.112,0.082-0.134,0.184l-0.068,0.371c-0.023,0.068-0.025,0.133-0.008,0.195c0.017,0.061,0.081,0.113,0.194,0.158
		c0.18,0.08,0.385,0.145,0.615,0.195c0.23,0.049,0.466,0.088,0.708,0.117c0.241,0.027,0.485,0.047,0.733,0.059
		c0.246,0.012,0.477,0.018,0.691,0.018c0.718,0,1.291-0.076,1.718-0.229c0.428-0.15,0.753-0.365,0.978-0.641
		c0.224-0.275,0.37-0.602,0.438-0.979c0.068-0.375,0.101-0.787,0.101-1.236v-7.332c0-0.123-0.022-0.252-0.067-0.389
		C143.836,30.953,143.718,30.857,143.527,30.803 M149.338,10.36h-3.614c0.024-0.338,0.066-0.642,0.127-0.914
		c0.061-0.271,0.161-0.501,0.301-0.688c0.14-0.188,0.32-0.329,0.539-0.426c0.219-0.096,0.499-0.145,0.839-0.145
		c0.378,0,0.685,0.06,0.923,0.181c0.237,0.121,0.419,0.283,0.548,0.489c0.127,0.205,0.216,0.438,0.264,0.697
		C149.313,9.815,149.338,10.083,149.338,10.36 M151.273,11.418c0.122-0.206,0.176-0.474,0.165-0.803
		c-0.013-0.487-0.07-0.977-0.174-1.469c-0.103-0.493-0.295-0.931-0.575-1.315c-0.28-0.383-0.673-0.696-1.177-0.94
		c-0.506-0.242-1.166-0.364-1.982-0.364c-0.888,0-1.59,0.161-2.108,0.484c-0.517,0.321-0.907,0.72-1.169,1.194
		c-0.262,0.476-0.428,0.986-0.502,1.534c-0.072,0.548-0.109,1.04-0.109,1.479c0,0.597,0.046,1.172,0.137,1.726
		c0.091,0.554,0.277,1.043,0.557,1.47c0.279,0.426,0.681,0.767,1.204,1.022c0.524,0.255,1.224,0.384,2.1,0.384
		c0.22,0,0.462-0.013,0.731-0.037c0.267-0.023,0.535-0.055,0.803-0.092c0.268-0.036,0.523-0.082,0.767-0.136
		c0.243-0.056,0.456-0.119,0.639-0.192c0.17-0.073,0.27-0.152,0.301-0.237c0.03-0.085,0.033-0.194,0.009-0.329l-0.11-0.603
		c-0.024-0.17-0.07-0.271-0.136-0.301c-0.068-0.03-0.186-0.033-0.356-0.009c-0.354,0.036-0.755,0.078-1.206,0.128
		c-0.45,0.049-0.839,0.072-1.168,0.072c-0.377,0-0.7-0.037-0.968-0.108c-0.267-0.074-0.492-0.199-0.675-0.375
		s-0.32-0.417-0.411-0.722c-0.091-0.304-0.143-0.687-0.155-1.149h4.838C150.908,11.73,151.152,11.625,151.273,11.418
		 M158.795,13.188c-0.135,0.073-0.303,0.155-0.504,0.247c-0.202,0.091-0.419,0.18-0.652,0.266c-0.232,0.085-0.465,0.158-0.697,0.219
		c-0.232,0.062-0.44,0.093-0.623,0.093c-0.245,0-0.453-0.034-0.624-0.102c-0.171-0.066-0.318-0.194-0.44-0.385
		c-0.123-0.189-0.211-0.464-0.266-0.824c-0.055-0.359-0.083-0.833-0.083-1.419c0-0.574,0.031-1.053,0.092-1.438
		s0.159-0.693,0.294-0.926c0.134-0.231,0.318-0.396,0.55-0.493c0.232-0.099,0.513-0.147,0.844-0.147
		c0.305,0,0.626,0.022,0.962,0.065c0.337,0.042,0.719,0.125,1.147,0.247V13.188z M160.721,15.564
		c0.043-0.062,0.064-0.146,0.064-0.256V3.149c0-0.109-0.018-0.198-0.054-0.264c-0.037-0.068-0.129-0.102-0.275-0.102h-1.296
		c-0.146,0-0.24,0.031-0.283,0.091c-0.042,0.062-0.064,0.152-0.064,0.274v3.779c-0.012,0-0.018,0.003-0.018,0.009
		s-0.006,0.009-0.018,0.009c-0.755-0.28-1.509-0.419-2.264-0.419c-0.742,0-1.348,0.107-1.817,0.319
		c-0.468,0.213-0.836,0.526-1.104,0.939c-0.268,0.414-0.454,0.916-0.557,1.507s-0.155,1.257-0.155,1.999
		c0,0.694,0.046,1.317,0.137,1.871c0.091,0.555,0.249,1.025,0.475,1.415c0.224,0.39,0.529,0.691,0.912,0.903
		c0.383,0.213,0.874,0.32,1.47,0.32c0.268,0,0.539-0.034,0.812-0.1c0.275-0.065,0.539-0.154,0.794-0.262
		c0.256-0.109,0.493-0.227,0.713-0.354c0.219-0.127,0.407-0.243,0.565-0.352c0.013,0,0.022,0.003,0.028,0.009
		c0.006,0.006,0.015,0.009,0.027,0.009v0.577c0,0.217,0.11,0.325,0.329,0.325h1.314C160.59,15.655,160.679,15.625,160.721,15.564
		 M165.536,38.5v-7.646c0-0.193-0.096-0.289-0.287-0.289h-0.691c-0.191,0-0.286,0.096-0.286,0.289v5.963
		c-0.135,0.066-0.322,0.156-0.558,0.27c-0.238,0.113-0.491,0.219-0.762,0.32c-0.27,0.102-0.541,0.191-0.812,0.271
		c-0.271,0.076-0.508,0.117-0.711,0.117c-0.259,0-0.48-0.027-0.66-0.084s-0.324-0.156-0.431-0.305
		c-0.107-0.146-0.183-0.344-0.228-0.59c-0.046-0.248-0.069-0.57-0.069-0.963v-5c0-0.193-0.088-0.289-0.265-0.289h-0.715
		c-0.189,0-0.283,0.096-0.283,0.287v4.971c0,0.451,0.025,0.865,0.076,1.248c0.05,0.381,0.162,0.711,0.337,0.986
		c0.174,0.273,0.424,0.49,0.75,0.648c0.325,0.156,0.764,0.236,1.314,0.236c0.303,0,0.601-0.039,0.893-0.117
		c0.292-0.076,0.568-0.17,0.826-0.283c0.258-0.109,0.498-0.227,0.716-0.348c0.22-0.121,0.397-0.227,0.531-0.314l0.034,0.033V38.5
		c0,0.193,0.101,0.287,0.303,0.287h0.691C165.44,38.787,165.536,38.693,165.536,38.5 M173.656,11.273
		c0,0.609-0.049,1.096-0.146,1.461c-0.097,0.365-0.234,0.642-0.411,0.831c-0.177,0.188-0.387,0.313-0.63,0.374
		c-0.243,0.061-0.517,0.091-0.822,0.091c-0.292,0-0.599-0.012-0.921-0.037c-0.323-0.023-0.63-0.06-0.922-0.108V8.608
		c0.255-0.062,0.48-0.113,0.675-0.155c0.195-0.043,0.374-0.076,0.539-0.101c0.164-0.024,0.325-0.039,0.484-0.045
		c0.158-0.006,0.334-0.01,0.529-0.01c0.292,0.013,0.542,0.072,0.749,0.183c0.207,0.109,0.374,0.28,0.501,0.511
		c0.128,0.232,0.223,0.536,0.284,0.913C173.625,10.282,173.656,10.738,173.656,11.273 M175.564,13.099
		c0.116-0.584,0.173-1.248,0.173-1.99c0-0.681-0.049-1.302-0.146-1.862c-0.098-0.56-0.283-1.041-0.557-1.441
		c-0.273-0.402-0.648-0.713-1.123-0.933c-0.475-0.219-1.09-0.328-1.844-0.328c-0.292,0-0.628,0.03-1.005,0.092
		c-0.377,0.061-0.797,0.177-1.259,0.347V3.149c0-0.097-0.025-0.179-0.073-0.246c-0.049-0.067-0.146-0.101-0.292-0.101h-1.297
		c-0.243,0-0.365,0.115-0.365,0.347v11.392c0,0.159,0.03,0.312,0.091,0.457c0.061,0.146,0.195,0.262,0.402,0.347
		c0.219,0.073,0.471,0.141,0.758,0.2c0.286,0.062,0.584,0.113,0.894,0.156c0.311,0.042,0.627,0.073,0.95,0.091
		c0.322,0.019,0.63,0.028,0.922,0.028c0.791,0,1.442-0.107,1.953-0.32c0.511-0.213,0.913-0.52,1.206-0.922
		C175.244,14.176,175.448,13.683,175.564,13.099 M177.964,32.313c0.164,0.254,0.272,0.574,0.328,0.963
		c0.057,0.389,0.084,0.842,0.084,1.359c0,0.529-0.027,0.988-0.084,1.377c-0.056,0.391-0.164,0.711-0.328,0.965
		c-0.164,0.252-0.387,0.441-0.674,0.564c-0.287,0.125-0.66,0.188-1.121,0.188c-0.438,0-0.791-0.066-1.062-0.195
		s-0.483-0.324-0.64-0.584c-0.158-0.258-0.264-0.58-0.32-0.961c-0.057-0.383-0.085-0.834-0.085-1.354
		c0-0.518,0.028-0.969,0.085-1.352c0.056-0.383,0.162-0.705,0.32-0.963c0.156-0.26,0.369-0.455,0.64-0.584s0.624-0.195,1.062-0.195
		c0.461,0,0.834,0.066,1.121,0.195S177.8,32.059,177.964,32.313 M178.033,30.76c-0.468-0.242-1.088-0.363-1.863-0.363
		s-1.387,0.139-1.836,0.414c-0.449,0.275-0.789,0.619-1.02,1.035c-0.23,0.418-0.379,0.865-0.446,1.348
		c-0.067,0.484-0.102,0.928-0.102,1.332c0,0.496,0.026,1.002,0.076,1.525c0.051,0.521,0.188,0.994,0.413,1.416
		s0.565,0.768,1.02,1.035c0.455,0.271,1.087,0.404,1.896,0.404c0.832,0,1.483-0.133,1.955-0.404
		c0.473-0.268,0.823-0.615,1.054-1.045c0.229-0.426,0.372-0.898,0.429-1.416c0.057-0.516,0.085-1.02,0.085-1.516
		c0-0.504-0.037-1.006-0.11-1.498c-0.072-0.496-0.232-0.936-0.479-1.324S178.498,31,178.033,30.76 M184.775,7.075
		c0.036-0.098,0.048-0.184,0.036-0.256c-0.013-0.074-0.091-0.11-0.237-0.11h-1.351c-0.134,0-0.231,0.025-0.292,0.073
		c-0.063,0.049-0.11,0.128-0.146,0.238l-1.132,3.358c-0.086,0.243-0.177,0.512-0.274,0.804c-0.084,0.243-0.186,0.528-0.301,0.857
		s-0.24,0.683-0.375,1.06h-0.072l-0.912-2.721l-1.188-3.396c-0.049-0.134-0.098-0.213-0.146-0.238
		c-0.049-0.023-0.133-0.036-0.256-0.036h-1.405c-0.134,0-0.21,0.036-0.228,0.11c-0.019,0.072-0.01,0.158,0.026,0.256l3.196,8.489
		l-1.151,3.085c-0.036,0.097-0.045,0.183-0.026,0.256c0.018,0.073,0.101,0.109,0.246,0.109h1.241c0.158,0,0.267-0.024,0.329-0.073
		c0.061-0.049,0.115-0.134,0.164-0.255L184.775,7.075z M186.989,34.541c0,0.611-0.03,1.121-0.094,1.533
		c-0.062,0.414-0.166,0.746-0.312,1c-0.147,0.254-0.342,0.436-0.586,0.543c-0.242,0.107-0.543,0.162-0.903,0.162
		c-0.361,0-0.739-0.029-1.134-0.086c-0.396-0.057-0.83-0.152-1.303-0.287v-4.881c0.146-0.08,0.336-0.176,0.566-0.287
		c0.23-0.115,0.477-0.221,0.736-0.322s0.521-0.188,0.787-0.254c0.265-0.068,0.498-0.104,0.701-0.104c0.26,0,0.485,0.035,0.678,0.104
		c0.19,0.066,0.352,0.207,0.481,0.424c0.13,0.215,0.226,0.516,0.287,0.906C186.958,33.383,186.989,33.898,186.989,34.541
		 M188.167,36.447c0.102-0.539,0.152-1.158,0.152-1.854c0-0.676-0.046-1.27-0.135-1.787c-0.09-0.518-0.24-0.951-0.448-1.307
		c-0.209-0.354-0.491-0.623-0.845-0.809c-0.355-0.186-0.798-0.277-1.327-0.277c-0.282,0-0.565,0.041-0.854,0.125
		c-0.287,0.082-0.561,0.18-0.819,0.289c-0.259,0.111-0.493,0.229-0.701,0.35c-0.209,0.123-0.375,0.223-0.499,0.299l-0.051-0.033
		v-0.596c0-0.189-0.094-0.283-0.282-0.283h-0.683c-0.188,0-0.281,0.096-0.281,0.287v10.566c0,0.123,0.016,0.207,0.049,0.252
		c0.034,0.047,0.111,0.068,0.232,0.068h0.683c0.122,0,0.202-0.025,0.241-0.076s0.059-0.131,0.059-0.244v-2.943l0.016-0.016
		c0.451,0.178,0.875,0.299,1.269,0.365s0.749,0.1,1.065,0.1c0.652,0,1.191-0.096,1.613-0.287s0.76-0.469,1.014-0.834
		C187.889,37.439,188.067,36.986,188.167,36.447 M191.117,32.992c0.079-0.303,0.196-0.563,0.354-0.775
		c0.157-0.215,0.362-0.379,0.614-0.496c0.254-0.119,0.565-0.18,0.936-0.18c0.449,0,0.809,0.076,1.079,0.221
		c0.269,0.146,0.478,0.338,0.623,0.572c0.146,0.236,0.245,0.502,0.295,0.801c0.051,0.299,0.076,0.594,0.076,0.887h-4.13
		C190.988,33.639,191.039,33.295,191.117,32.992 M191.218,30.834c-0.45,0.293-0.793,0.654-1.028,1.088s-0.388,0.898-0.455,1.398
		s-0.103,0.953-0.103,1.357c0,0.539,0.037,1.064,0.111,1.576c0.073,0.512,0.228,0.963,0.463,1.355
		c0.236,0.395,0.582,0.711,1.037,0.953c0.454,0.24,1.069,0.361,1.846,0.361c0.201,0,0.426-0.012,0.674-0.033
		c0.246-0.023,0.494-0.055,0.74-0.094c0.248-0.037,0.483-0.086,0.709-0.143c0.225-0.055,0.414-0.117,0.572-0.184
		c0.157-0.07,0.219-0.182,0.186-0.338l-0.067-0.371c-0.022-0.111-0.065-0.18-0.127-0.203c-0.062-0.021-0.149-0.027-0.26-0.016
		c-0.147,0.021-0.319,0.045-0.515,0.066c-0.196,0.023-0.402,0.043-0.615,0.059c-0.213,0.018-0.428,0.033-0.641,0.053
		c-0.213,0.016-0.404,0.023-0.574,0.023c-0.392,0-0.727-0.043-1.002-0.127c-0.274-0.084-0.502-0.229-0.682-0.436
		c-0.18-0.209-0.31-0.484-0.388-0.828c-0.079-0.342-0.124-0.768-0.136-1.271h4.752c0.316,0,0.521-0.094,0.615-0.277
		c0.097-0.186,0.139-0.414,0.127-0.684c-0.021-0.461-0.076-0.916-0.16-1.365s-0.246-0.848-0.488-1.197
		c-0.242-0.348-0.581-0.627-1.02-0.842c-0.438-0.213-1.017-0.32-1.735-0.32C192.28,30.396,191.667,30.543,191.218,30.834
		 M196.805,14.96l-0.127-0.913c-0.025-0.108-0.062-0.182-0.11-0.218c-0.048-0.037-0.122-0.049-0.219-0.037
		c-0.184,0.024-0.398,0.043-0.648,0.055c-0.25,0.013-0.441,0.019-0.574,0.019c-0.244,0-0.445-0.006-0.604-0.019
		c-0.158-0.012-0.283-0.052-0.374-0.118c-0.091-0.067-0.155-0.168-0.19-0.301c-0.037-0.135-0.056-0.323-0.056-0.566V8.316h1.953
		c0.147,0,0.241-0.028,0.283-0.083s0.063-0.142,0.063-0.264V7.056c0-0.11-0.021-0.195-0.063-0.256s-0.136-0.092-0.283-0.092h-1.953
		V4.317c0-0.206-0.122-0.28-0.366-0.219l-1.222,0.329c-0.099,0.024-0.181,0.063-0.247,0.117c-0.068,0.056-0.1,0.15-0.1,0.284v1.88
		h-0.932c-0.135,0-0.226,0.031-0.274,0.092c-0.05,0.061-0.072,0.152-0.072,0.274v0.895c0,0.122,0.022,0.209,0.072,0.264
		c0.049,0.055,0.14,0.083,0.274,0.083h0.912v4.582c0,0.39,0.02,0.761,0.055,1.114c0.037,0.353,0.129,0.663,0.274,0.931
		s0.368,0.477,0.666,0.63c0.298,0.152,0.716,0.229,1.251,0.229c0.146,0,0.319-0.007,0.52-0.019c0.201-0.013,0.414-0.034,0.64-0.063
		c0.226-0.03,0.444-0.07,0.657-0.119s0.398-0.11,0.557-0.183C196.763,15.32,196.841,15.167,196.805,14.96 M205.605,15.308v-5.294
		c0-0.463-0.027-0.904-0.083-1.324c-0.054-0.42-0.176-0.788-0.364-1.105c-0.189-0.315-0.468-0.567-0.834-0.757
		c-0.365-0.188-0.865-0.283-1.501-0.283c-0.28,0-0.567,0.034-0.858,0.101c-0.293,0.066-0.574,0.151-0.844,0.256
		c-0.268,0.104-0.518,0.213-0.75,0.328c-0.23,0.116-0.427,0.223-0.584,0.32l-0.006-4.419c0-0.23-0.121-0.347-0.365-0.347h-1.295
		c-0.22,0-0.33,0.116-0.33,0.347v12.178c0,0.231,0.11,0.347,0.33,0.347h1.295c0.135,0,0.226-0.03,0.274-0.091
		c0.048-0.062,0.073-0.146,0.073-0.256V9.156c0.121-0.049,0.285-0.122,0.492-0.22c0.207-0.097,0.43-0.188,0.666-0.273
		c0.238-0.085,0.476-0.161,0.713-0.229c0.238-0.066,0.447-0.101,0.63-0.101c0.548,0,0.903,0.155,1.067,0.467
		c0.164,0.31,0.246,0.721,0.246,1.231c0,0.889-0.002,1.769-0.009,2.638c-0.006,0.87-0.008,1.75-0.008,2.639
		c0,0.231,0.122,0.347,0.368,0.347h1.308C205.482,15.655,205.605,15.54,205.605,15.308 M213.054,10.36h-3.615
		c0.023-0.338,0.066-0.642,0.128-0.914c0.062-0.271,0.161-0.501,0.302-0.688c0.139-0.188,0.318-0.329,0.539-0.426
		c0.219-0.096,0.497-0.145,0.838-0.145c0.377,0,0.686,0.06,0.924,0.181c0.236,0.121,0.418,0.283,0.547,0.489
		c0.128,0.205,0.216,0.438,0.265,0.697C213.029,9.815,213.054,10.083,213.054,10.36 M214.989,11.418
		c0.122-0.206,0.177-0.474,0.165-0.803c-0.013-0.487-0.07-0.977-0.174-1.469c-0.104-0.493-0.296-0.931-0.575-1.315
		c-0.28-0.383-0.673-0.696-1.178-0.94c-0.505-0.242-1.165-0.364-1.981-0.364c-0.888,0-1.591,0.161-2.107,0.484
		c-0.518,0.321-0.907,0.72-1.169,1.194c-0.263,0.476-0.429,0.986-0.503,1.534c-0.071,0.548-0.109,1.04-0.109,1.479
		c0,0.597,0.046,1.172,0.139,1.726c0.09,0.554,0.276,1.043,0.555,1.47c0.281,0.426,0.683,0.767,1.205,1.022
		c0.523,0.255,1.225,0.384,2.101,0.384c0.22,0,0.462-0.013,0.729-0.037c0.269-0.023,0.537-0.055,0.805-0.092
		c0.268-0.036,0.521-0.082,0.768-0.136c0.242-0.056,0.455-0.119,0.639-0.192c0.17-0.073,0.27-0.152,0.301-0.237
		c0.029-0.085,0.033-0.194,0.009-0.329l-0.11-0.603c-0.023-0.17-0.07-0.271-0.137-0.301c-0.066-0.03-0.186-0.033-0.355-0.009
		c-0.354,0.036-0.754,0.078-1.205,0.128c-0.45,0.049-0.84,0.072-1.168,0.072c-0.379,0-0.7-0.037-0.969-0.108
		c-0.267-0.074-0.492-0.199-0.675-0.375s-0.319-0.417-0.411-0.722c-0.091-0.304-0.144-0.687-0.154-1.149h4.838
		C214.625,11.73,214.869,11.625,214.989,11.418 M215.417,36.783c-0.19,0.113-0.406,0.227-0.648,0.338
		c-0.241,0.113-0.491,0.215-0.75,0.313c-0.258,0.096-0.514,0.17-0.766,0.227c-0.254,0.057-0.486,0.084-0.7,0.084
		c-0.494,0-0.834-0.084-1.019-0.252c-0.187-0.17-0.279-0.488-0.279-0.961c0-0.674,0.152-1.129,0.455-1.365
		c0.304-0.236,0.713-0.354,1.23-0.354h2.477V36.783z M217.507,38.68c0.046-0.051,0.068-0.115,0.068-0.193v-0.422
		c0-0.135-0.097-0.207-0.287-0.219c-0.135-0.012-0.242-0.025-0.319-0.043c-0.079-0.016-0.138-0.049-0.177-0.092
		c-0.041-0.045-0.068-0.111-0.086-0.203c-0.017-0.09-0.024-0.219-0.024-0.387v-3.725c0-0.449-0.028-0.859-0.083-1.23
		c-0.057-0.371-0.186-0.686-0.391-0.943c-0.205-0.26-0.506-0.461-0.902-0.607c-0.396-0.145-0.934-0.219-1.607-0.219
		c-0.201,0-0.429,0.006-0.682,0.018s-0.51,0.031-0.768,0.059s-0.506,0.064-0.742,0.109c-0.235,0.045-0.438,0.096-0.605,0.152
		c-0.124,0.055-0.206,0.111-0.244,0.168c-0.039,0.055-0.049,0.123-0.025,0.203l0.101,0.436c0.034,0.137,0.146,0.188,0.337,0.154
		c0.18-0.023,0.376-0.043,0.59-0.059c0.215-0.02,0.428-0.035,0.641-0.053c0.214-0.016,0.419-0.025,0.615-0.033
		c0.196-0.006,0.373-0.01,0.531-0.01c0.741,0,1.256,0.119,1.541,0.355c0.287,0.236,0.43,0.664,0.43,1.281v0.572h-2.326
		c-1.122,0-1.926,0.234-2.408,0.699c-0.484,0.467-0.725,1.178-0.725,2.131c0,0.766,0.174,1.344,0.521,1.738
		c0.35,0.393,0.934,0.588,1.753,0.588c0.675,0,1.267-0.111,1.778-0.336c0.511-0.225,0.974-0.461,1.39-0.709h0.034
		c0.054,0.361,0.174,0.613,0.357,0.76c0.183,0.146,0.467,0.219,0.855,0.219c0.191,0,0.389-0.016,0.59-0.051
		C217.373,38.768,217.462,38.73,217.507,38.68 M222.614,30.414c-0.225-0.012-0.421-0.018-0.589-0.018
		c-0.742,0-1.335,0.119-1.779,0.354c-0.442,0.236-0.785,0.551-1.027,0.945c-0.242,0.393-0.399,0.842-0.471,1.348
		c-0.074,0.504-0.11,1.027-0.11,1.568c0,0.594,0.036,1.15,0.11,1.666c0.071,0.518,0.229,0.973,0.471,1.365
		c0.242,0.395,0.585,0.703,1.027,0.928c0.444,0.225,1.037,0.336,1.779,0.336c0.426,0,0.879-0.027,1.355-0.082
		c0.478-0.057,0.873-0.158,1.188-0.305c0.157-0.078,0.22-0.197,0.187-0.355l-0.068-0.352c-0.023-0.111-0.064-0.18-0.127-0.203
		c-0.061-0.021-0.143-0.027-0.244-0.016c-0.168,0.021-0.359,0.041-0.572,0.059c-0.214,0.016-0.425,0.033-0.633,0.049
		c-0.207,0.02-0.41,0.031-0.605,0.043c-0.197,0.01-0.363,0.018-0.498,0.018c-0.371,0-0.686-0.051-0.944-0.152
		c-0.258-0.102-0.466-0.273-0.623-0.514c-0.157-0.242-0.271-0.564-0.337-0.969s-0.102-0.916-0.102-1.533
		c0-0.572,0.035-1.055,0.102-1.441s0.177-0.699,0.329-0.936c0.151-0.236,0.356-0.406,0.614-0.514
		c0.259-0.107,0.58-0.162,0.961-0.162c0.304,0,0.666,0.021,1.087,0.061s0.807,0.076,1.155,0.109
		c0.102,0.012,0.192,0.006,0.277-0.016c0.084-0.023,0.137-0.078,0.16-0.17l0.068-0.387c0.011-0.068,0.008-0.135-0.01-0.201
		c-0.017-0.068-0.07-0.119-0.16-0.154c-0.181-0.078-0.381-0.141-0.606-0.191c-0.226-0.053-0.453-0.092-0.683-0.119
		S222.839,30.426,222.614,30.414 M229.777,15.327v-1.114c0-0.23-0.109-0.347-0.329-0.347h-5.11v-3.597h4.416
		c0.244,0,0.365-0.109,0.365-0.328V8.809c0-0.22-0.121-0.329-0.365-0.329h-4.416V5.322h4.983c0.242,0,0.364-0.109,0.364-0.325V3.875
		c0-0.229-0.115-0.343-0.346-0.343h-6.719c-0.244,0-0.365,0.121-0.365,0.365v11.429c0,0.218,0.121,0.328,0.365,0.328h6.81
		C229.662,15.655,229.777,15.544,229.777,15.327 M232.101,37.678c-0.314,0-0.534-0.031-0.657-0.094
		c-0.124-0.061-0.185-0.238-0.185-0.531v-9.857c0-0.123-0.025-0.203-0.076-0.236s-0.126-0.051-0.229-0.051h-0.674
		c-0.191,0-0.287,0.096-0.287,0.287v10.281c0,0.201,0.021,0.389,0.06,0.563c0.04,0.174,0.11,0.32,0.211,0.439
		c0.103,0.117,0.241,0.209,0.421,0.275c0.18,0.07,0.41,0.104,0.691,0.104c0.146,0,0.301-0.018,0.463-0.051
		c0.164-0.033,0.312-0.078,0.447-0.137c0.125-0.055,0.18-0.15,0.168-0.285l-0.067-0.539
		C232.376,37.732,232.28,37.678,232.101,37.678 M239.326,15.308V7.075c0-0.244-0.115-0.366-0.348-0.366h-1.296
		c-0.134,0-0.224,0.034-0.274,0.102c-0.048,0.065-0.072,0.154-0.072,0.265v6.097c-0.121,0.062-0.278,0.138-0.472,0.229
		c-0.194,0.092-0.405,0.183-0.637,0.274c-0.229,0.091-0.463,0.167-0.699,0.228c-0.235,0.061-0.45,0.091-0.646,0.091
		c-0.277,0-0.502-0.042-0.672-0.127s-0.303-0.204-0.399-0.355c-0.099-0.152-0.163-0.339-0.2-0.558
		c-0.035-0.219-0.054-0.468-0.054-0.749V7.075c0-0.244-0.111-0.366-0.332-0.366h-1.345c-0.233,0-0.351,0.122-0.351,0.366v5.367
		c0,0.474,0.025,0.919,0.073,1.333c0.049,0.413,0.164,0.772,0.348,1.077c0.182,0.304,0.453,0.542,0.812,0.712
		s0.849,0.256,1.47,0.256c0.28,0,0.563-0.034,0.85-0.101c0.285-0.067,0.562-0.155,0.83-0.266c0.268-0.109,0.521-0.228,0.758-0.355
		c0.236-0.128,0.447-0.252,0.631-0.374l0.035,0.018v0.566c0,0.109,0.024,0.194,0.072,0.256c0.051,0.061,0.141,0.091,0.274,0.091
		h1.296C239.21,15.655,239.326,15.54,239.326,15.308 M239.431,36.734v-5.107h1.871c0.123,0,0.203-0.023,0.236-0.068
		c0.033-0.043,0.049-0.117,0.049-0.217v-0.49c0-0.09-0.016-0.16-0.049-0.209c-0.033-0.051-0.113-0.078-0.236-0.078h-1.871v-2.072
		c0-0.225-0.096-0.309-0.287-0.252l-0.673,0.186c-0.091,0.021-0.16,0.057-0.212,0.102c-0.051,0.043-0.075,0.117-0.075,0.217v1.82
		h-0.942c-0.193,0-0.287,0.102-0.287,0.305v0.473c0,0.189,0.094,0.285,0.287,0.285h0.926v5.494c0,0.27,0.027,0.514,0.084,0.732
		c0.057,0.221,0.152,0.408,0.287,0.564c0.135,0.158,0.319,0.277,0.556,0.363c0.237,0.084,0.532,0.125,0.894,0.125
		c0.123,0,0.271-0.008,0.446-0.023c0.174-0.018,0.353-0.039,0.54-0.068c0.186-0.027,0.359-0.061,0.521-0.102
		c0.162-0.039,0.295-0.088,0.396-0.143c0.112-0.068,0.164-0.174,0.153-0.32l-0.068-0.389c-0.023-0.088-0.057-0.148-0.102-0.176
		s-0.133-0.035-0.27-0.025c-0.124,0.012-0.295,0.025-0.514,0.041c-0.219,0.02-0.375,0.027-0.463,0.027
		c-0.26,0-0.463-0.016-0.616-0.043c-0.15-0.027-0.272-0.082-0.362-0.16s-0.148-0.18-0.176-0.303
		C239.445,37.098,239.431,36.936,239.431,36.734 M246.921,8.444c0.023-0.061,0.029-0.158,0.019-0.292l-0.129-1.224
		c-0.024-0.158-0.073-0.256-0.146-0.292c-0.072-0.037-0.17-0.042-0.293-0.019c-0.219,0.036-0.455,0.104-0.711,0.201
		c-0.257,0.097-0.509,0.203-0.759,0.319c-0.249,0.115-0.483,0.244-0.702,0.383c-0.219,0.14-0.396,0.271-0.529,0.393l-0.037-0.036
		V7.075c0-0.244-0.123-0.366-0.368-0.366h-1.308c-0.232,0-0.351,0.122-0.351,0.366v8.233c0,0.231,0.118,0.347,0.351,0.347h1.326
		c0.233,0,0.35-0.115,0.35-0.347V9.429c0.158-0.072,0.353-0.146,0.585-0.219c0.231-0.073,0.481-0.148,0.749-0.229
		c0.267-0.079,0.541-0.152,0.82-0.219c0.28-0.067,0.547-0.124,0.805-0.174C246.787,8.553,246.896,8.504,246.921,8.444
		 M248.229,30.783l-1.281,3.758c-0.157,0.461-0.298,0.877-0.422,1.248c-0.112,0.326-0.221,0.633-0.328,0.918
		c-0.106,0.287-0.172,0.463-0.192,0.533l-0.911-2.58l-1.384-3.857c-0.021-0.08-0.049-0.139-0.082-0.178
		c-0.034-0.041-0.097-0.061-0.186-0.061h-0.893c-0.08,0-0.129,0.029-0.145,0.086c-0.017,0.055-0.014,0.117,0.008,0.184l2.967,7.939
		l-0.978,2.695c-0.057,0.18-0.006,0.27,0.152,0.27h0.774c0.112,0,0.19-0.02,0.236-0.059c0.045-0.039,0.078-0.098,0.102-0.178
		l3.858-10.684c0.058-0.168,0.017-0.254-0.118-0.254h-0.91C248.363,30.564,248.273,30.639,248.229,30.783 M253.641,11.163
		c0,0.488-0.024,0.914-0.074,1.279c-0.048,0.365-0.146,0.666-0.292,0.903s-0.35,0.415-0.611,0.529
		c-0.263,0.116-0.6,0.173-1.015,0.173c-0.39,0-0.705-0.061-0.948-0.182c-0.242-0.121-0.433-0.301-0.566-0.539
		c-0.133-0.237-0.229-0.535-0.283-0.894c-0.055-0.359-0.082-0.782-0.082-1.271c0-0.474,0.027-0.891,0.082-1.25
		c0.055-0.358,0.152-0.66,0.292-0.902c0.14-0.244,0.332-0.427,0.577-0.549c0.242-0.122,0.559-0.183,0.949-0.183
		c0.412,0,0.748,0.061,1.002,0.183c0.257,0.122,0.457,0.302,0.604,0.539s0.244,0.535,0.292,0.895
		C253.617,10.253,253.641,10.677,253.641,11.163 M255.566,12.661c0.066-0.56,0.1-1.102,0.1-1.625c0-0.536-0.045-1.071-0.135-1.606
		c-0.092-0.535-0.277-1.02-0.557-1.451c-0.279-0.433-0.684-0.782-1.211-1.05c-0.528-0.268-1.236-0.401-2.122-0.401
		c-0.875,0-1.57,0.155-2.086,0.465c-0.515,0.312-0.908,0.694-1.175,1.15c-0.267,0.457-0.44,0.946-0.52,1.47
		c-0.079,0.524-0.117,0.998-0.117,1.424c0,0.523,0.03,1.065,0.09,1.625c0.061,0.561,0.223,1.074,0.483,1.542
		c0.261,0.469,0.653,0.854,1.175,1.151s1.239,0.447,2.149,0.447c0.948,0,1.688-0.149,2.222-0.447
		c0.535-0.298,0.936-0.683,1.203-1.151C255.333,13.735,255.5,13.221,255.566,12.661 M263.296,11.109c0,0.572-0.029,1.05-0.09,1.433
		c-0.062,0.385-0.162,0.691-0.302,0.922c-0.14,0.231-0.321,0.394-0.547,0.484c-0.228,0.091-0.502,0.137-0.831,0.137
		c-0.316,0-0.643-0.021-0.977-0.063c-0.336-0.043-0.709-0.125-1.123-0.246V9.21c0.134-0.073,0.302-0.158,0.502-0.256
		c0.201-0.098,0.414-0.185,0.639-0.265c0.225-0.079,0.454-0.149,0.684-0.21c0.232-0.062,0.439-0.091,0.623-0.091
		c0.241,0,0.453,0.032,0.629,0.1c0.177,0.067,0.326,0.198,0.447,0.392c0.121,0.196,0.211,0.47,0.264,0.822
		C263.27,10.057,263.296,10.525,263.296,11.109 M265.197,13.117c0.109-0.584,0.164-1.247,0.164-1.99c0-0.692-0.046-1.319-0.137-1.88
		c-0.092-0.56-0.249-1.038-0.475-1.433c-0.227-0.396-0.533-0.703-0.922-0.923c-0.391-0.219-0.883-0.328-1.479-0.328
		c-0.267,0-0.535,0.036-0.804,0.109c-0.268,0.072-0.529,0.164-0.785,0.273c-0.254,0.11-0.495,0.229-0.721,0.357
		c-0.225,0.127-0.416,0.246-0.574,0.355l-0.055-0.037V7.075c0-0.11-0.022-0.199-0.064-0.265c-0.043-0.067-0.131-0.102-0.266-0.102
		h-1.295c-0.232,0-0.348,0.122-0.348,0.366v11.574c0,0.122,0.021,0.213,0.064,0.273c0.043,0.062,0.137,0.092,0.283,0.092h1.295
		c0.147,0,0.24-0.036,0.284-0.109c0.042-0.073,0.063-0.159,0.063-0.256v-3.213l0.019-0.019c0.425,0.146,0.837,0.249,1.232,0.311
		c0.395,0.061,0.745,0.092,1.05,0.092c0.718,0,1.311-0.104,1.779-0.311s0.841-0.512,1.113-0.913
		C264.895,14.194,265.087,13.701,265.197,13.117 M272.5,10.36h-3.615c0.025-0.338,0.068-0.642,0.128-0.914
		c0.062-0.271,0.161-0.501,0.302-0.688c0.141-0.188,0.318-0.329,0.539-0.426c0.219-0.096,0.499-0.145,0.839-0.145
		c0.377,0,0.685,0.06,0.922,0.181s0.421,0.283,0.548,0.489c0.129,0.205,0.215,0.438,0.266,0.697
		C272.475,9.815,272.5,10.083,272.5,10.36 M274.435,11.418c0.122-0.206,0.177-0.474,0.164-0.803
		c-0.012-0.487-0.07-0.977-0.174-1.469c-0.104-0.493-0.295-0.931-0.574-1.315c-0.28-0.383-0.672-0.696-1.178-0.94
		c-0.506-0.242-1.166-0.364-1.981-0.364c-0.889,0-1.591,0.161-2.108,0.484c-0.518,0.321-0.908,0.72-1.168,1.194
		c-0.262,0.476-0.43,0.986-0.502,1.534c-0.074,0.548-0.109,1.04-0.109,1.479c0,0.597,0.045,1.172,0.137,1.726
		c0.091,0.554,0.275,1.043,0.557,1.47c0.28,0.426,0.681,0.767,1.205,1.022c0.523,0.255,1.223,0.384,2.1,0.384
		c0.219,0,0.462-0.013,0.73-0.037c0.268-0.023,0.535-0.055,0.803-0.092c0.267-0.036,0.523-0.082,0.767-0.136
		c0.244-0.056,0.456-0.119,0.639-0.192c0.171-0.073,0.271-0.152,0.302-0.237s0.033-0.194,0.01-0.329l-0.11-0.603
		c-0.024-0.17-0.069-0.271-0.137-0.301c-0.067-0.03-0.187-0.033-0.356-0.009c-0.353,0.036-0.755,0.078-1.205,0.128
		c-0.451,0.049-0.84,0.072-1.168,0.072c-0.377,0-0.701-0.037-0.968-0.108c-0.269-0.074-0.492-0.199-0.675-0.375
		c-0.182-0.176-0.32-0.417-0.411-0.722c-0.091-0.304-0.144-0.687-0.155-1.149h4.838C274.07,11.73,274.313,11.625,274.435,11.418
		 M281.791,13.318c-0.17,0.097-0.365,0.198-0.584,0.301c-0.218,0.104-0.443,0.198-0.675,0.283s-0.463,0.153-0.694,0.201
		c-0.23,0.049-0.443,0.073-0.639,0.073c-0.426,0-0.721-0.076-0.886-0.229c-0.163-0.152-0.245-0.429-0.245-0.831
		c0-0.596,0.133-1,0.402-1.214c0.267-0.213,0.632-0.319,1.094-0.319h2.227V13.318z M284.804,15.272v-0.768
		c0-0.097-0.024-0.165-0.072-0.2c-0.05-0.036-0.143-0.062-0.275-0.073c-0.146-0.012-0.262-0.03-0.347-0.055
		s-0.149-0.064-0.192-0.119c-0.041-0.055-0.071-0.135-0.09-0.237s-0.027-0.246-0.027-0.429V9.867c0-0.51-0.037-0.973-0.109-1.387
		c-0.072-0.413-0.232-0.764-0.475-1.05c-0.244-0.286-0.6-0.509-1.068-0.666c-0.469-0.158-1.1-0.237-1.891-0.237
		c-0.219,0-0.465,0.009-0.738,0.027c-0.275,0.018-0.553,0.042-0.831,0.071c-0.28,0.03-0.554,0.069-0.822,0.117
		c-0.267,0.048-0.499,0.109-0.694,0.182c-0.207,0.085-0.334,0.165-0.383,0.243s-0.061,0.178-0.035,0.297l0.164,0.67
		c0.024,0.133,0.069,0.209,0.137,0.228c0.066,0.017,0.191,0.015,0.375-0.01c0.182-0.013,0.385-0.03,0.611-0.055
		c0.225-0.024,0.449-0.043,0.674-0.055c0.226-0.012,0.445-0.024,0.658-0.037c0.213-0.012,0.394-0.018,0.539-0.018
		c0.377,0,0.688,0.024,0.93,0.074c0.244,0.049,0.439,0.135,0.584,0.258c0.147,0.123,0.248,0.279,0.303,0.47s0.082,0.42,0.082,0.69
		v0.479h-2.336c-1.157,0-2.021,0.24-2.594,0.721c-0.572,0.481-0.853,1.258-0.84,2.327c0,0.391,0.041,0.743,0.119,1.061
		c0.078,0.315,0.213,0.587,0.401,0.812c0.188,0.226,0.444,0.401,0.767,0.529c0.323,0.128,0.728,0.192,1.215,0.192
		c0.619,0,1.219-0.11,1.797-0.328c0.578-0.221,1.1-0.506,1.562-0.859l0.037,0.02c0.097,0.426,0.276,0.718,0.539,0.876
		c0.261,0.157,0.604,0.236,1.03,0.236c0.134,0,0.273-0.009,0.421-0.026c0.145-0.019,0.292-0.04,0.437-0.064
		C284.658,15.606,284.804,15.479,284.804,15.272 M293.785,15.564c0.049-0.062,0.074-0.146,0.074-0.256v-5.294
		c0-0.463-0.025-0.904-0.072-1.324c-0.05-0.42-0.166-0.788-0.349-1.105c-0.185-0.315-0.453-0.567-0.808-0.757
		c-0.354-0.188-0.842-0.283-1.463-0.283c-0.283,0-0.568,0.034-0.862,0.101c-0.292,0.066-0.573,0.155-0.843,0.265
		c-0.269,0.11-0.521,0.229-0.76,0.356s-0.443,0.253-0.613,0.374c-0.012,0-0.021-0.003-0.026-0.01
		c-0.007-0.006-0.017-0.009-0.028-0.009V7.075c0-0.244-0.115-0.366-0.346-0.366h-1.297c-0.23,0-0.346,0.122-0.346,0.366v8.233
		c0,0.231,0.115,0.347,0.346,0.347h1.297c0.23,0,0.346-0.115,0.346-0.347V9.21c0.121-0.062,0.286-0.138,0.493-0.229
		s0.429-0.182,0.666-0.273c0.238-0.092,0.476-0.168,0.712-0.229c0.237-0.062,0.447-0.091,0.631-0.091
		c0.523,0,0.873,0.164,1.049,0.491c0.177,0.33,0.266,0.763,0.266,1.298l-0.018,5.13c0,0.231,0.117,0.347,0.35,0.347h1.326
		C293.643,15.655,293.735,15.625,293.785,15.564 M310.127,11.218l0.018-7.32c0-0.11-0.022-0.198-0.063-0.265
		c-0.043-0.067-0.131-0.101-0.264-0.101h-1.355c-0.241,0-0.362,0.121-0.362,0.365v7.32c0,0.949-0.21,1.646-0.63,2.091
		c-0.419,0.443-1.031,0.667-1.835,0.667s-1.408-0.235-1.817-0.703c-0.407-0.469-0.612-1.154-0.612-2.055v-7.32
		c0-0.244-0.114-0.365-0.345-0.365h-1.37c-0.231,0-0.347,0.121-0.347,0.365v7.32c0,0.476,0.042,0.929,0.127,1.36
		c0.085,0.433,0.225,0.83,0.42,1.196c0.705,1.351,2.016,2.026,3.936,2.026c0.449,0,0.887-0.047,1.312-0.138s0.819-0.233,1.184-0.429
		c0.365-0.194,0.69-0.444,0.976-0.748s0.52-0.676,0.702-1.114c0.133-0.353,0.221-0.709,0.263-1.068
		C310.105,11.946,310.127,11.583,310.127,11.218 M320.021,15.564c0.049-0.062,0.074-0.146,0.074-0.256v-5.294
		c0-0.463-0.025-0.904-0.073-1.324c-0.049-0.42-0.166-0.788-0.348-1.105c-0.185-0.315-0.453-0.567-0.808-0.757
		c-0.354-0.188-0.842-0.283-1.465-0.283c-0.281,0-0.566,0.034-0.861,0.101c-0.292,0.066-0.572,0.155-0.842,0.265
		c-0.269,0.11-0.521,0.229-0.76,0.356s-0.443,0.253-0.613,0.374c-0.012,0-0.021-0.003-0.026-0.01
		c-0.007-0.006-0.018-0.009-0.028-0.009V7.075c0-0.244-0.116-0.366-0.347-0.366h-1.295c-0.232,0-0.349,0.122-0.349,0.366v8.233
		c0,0.231,0.116,0.347,0.349,0.347h1.295c0.23,0,0.347-0.115,0.347-0.347V9.21c0.121-0.062,0.286-0.138,0.493-0.229
		s0.429-0.182,0.666-0.273s0.475-0.168,0.712-0.229c0.237-0.062,0.447-0.091,0.63-0.091c0.524,0,0.873,0.164,1.05,0.491
		c0.176,0.33,0.266,0.763,0.266,1.298l-0.019,5.13c0,0.231,0.117,0.347,0.351,0.347h1.325
		C319.879,15.655,319.971,15.625,320.021,15.564 M324.312,4.746c0.025-0.127,0.037-0.264,0.037-0.41c0-0.315-0.067-0.568-0.2-0.758
		c-0.135-0.188-0.427-0.283-0.877-0.283c-0.438,0-0.728,0.101-0.868,0.302c-0.14,0.2-0.21,0.447-0.21,0.739
		c0,0.135,0.013,0.265,0.037,0.394c0.025,0.127,0.073,0.24,0.146,0.337s0.179,0.177,0.318,0.237
		c0.141,0.061,0.332,0.092,0.576,0.092c0.231,0,0.417-0.028,0.557-0.082c0.141-0.055,0.248-0.131,0.328-0.229
		C324.236,4.987,324.288,4.875,324.312,4.746 M332.218,11.163c0,0.488-0.024,0.914-0.074,1.279
		c-0.048,0.365-0.146,0.666-0.292,0.903c-0.146,0.237-0.35,0.415-0.612,0.529c-0.261,0.116-0.599,0.173-1.013,0.173
		c-0.389,0-0.705-0.061-0.949-0.182c-0.243-0.121-0.432-0.301-0.564-0.539c-0.135-0.237-0.229-0.535-0.284-0.894
		c-0.056-0.359-0.082-0.782-0.082-1.271c0-0.474,0.026-0.891,0.082-1.25c0.055-0.358,0.151-0.66,0.292-0.902
		c0.14-0.244,0.332-0.427,0.576-0.549c0.242-0.122,0.56-0.183,0.948-0.183c0.413,0,0.749,0.061,1.004,0.183
		c0.256,0.122,0.457,0.302,0.603,0.539c0.146,0.237,0.244,0.535,0.292,0.895C332.194,10.253,332.218,10.677,332.218,11.163
		 M334.144,12.661c0.067-0.56,0.1-1.102,0.1-1.625c0-0.536-0.045-1.071-0.136-1.606c-0.092-0.535-0.277-1.02-0.557-1.451
		c-0.278-0.433-0.684-0.782-1.211-1.05c-0.528-0.268-1.235-0.401-2.121-0.401c-0.875,0-1.571,0.155-2.086,0.465
		c-0.517,0.312-0.908,0.694-1.175,1.15c-0.268,0.457-0.441,0.946-0.52,1.47c-0.08,0.524-0.118,0.998-0.118,1.424
		c0,0.523,0.03,1.065,0.091,1.625c0.061,0.561,0.223,1.074,0.482,1.542c0.261,0.469,0.653,0.854,1.176,1.151
		c0.521,0.298,1.238,0.447,2.149,0.447c0.946,0,1.688-0.149,2.221-0.447c0.535-0.298,0.937-0.683,1.203-1.151
		C333.911,13.735,334.077,13.221,334.144,12.661 M343.792,15.308v-5.294c0-0.463-0.025-0.904-0.073-1.324
		c-0.049-0.42-0.166-0.788-0.349-1.105c-0.184-0.315-0.453-0.567-0.806-0.757c-0.354-0.188-0.842-0.283-1.465-0.283
		c-0.281,0-0.568,0.034-0.861,0.101s-0.574,0.155-0.843,0.265c-0.268,0.11-0.522,0.229-0.759,0.356
		c-0.239,0.128-0.443,0.253-0.613,0.374c-0.013,0-0.021-0.003-0.028-0.01c-0.006-0.006-0.016-0.009-0.026-0.009V7.075
		c0-0.244-0.117-0.366-0.348-0.366h-1.296c-0.231,0-0.347,0.122-0.347,0.366v8.233c0,0.231,0.115,0.347,0.347,0.347h1.296
		c0.23,0,0.348-0.115,0.348-0.347V9.21c0.121-0.062,0.285-0.138,0.492-0.229c0.206-0.091,0.43-0.182,0.667-0.273
		c0.236-0.092,0.474-0.168,0.712-0.229c0.236-0.062,0.446-0.091,0.629-0.091c0.523,0,0.874,0.164,1.051,0.491
		c0.175,0.33,0.264,0.763,0.264,1.298l-0.018,5.13c0,0.231,0.117,0.347,0.35,0.347h1.326c0.135,0,0.228-0.03,0.276-0.091
		C343.767,15.502,343.792,15.417,343.792,15.308"/>
</g>
</svg>
