<?xml version="1.0" encoding="utf-8"?>
<!-- Generator: Adobe Illustrator 23.0.2, SVG Export Plug-In . SVG Version: 6.00 Build 0)  -->
<svg version="1.1" id="Layer_1" xmlns="http://www.w3.org/2000/svg" xmlns:xlink="http://www.w3.org/1999/xlink" x="0px" y="0px"
	 viewBox="0 0 309.8 100" style="enable-background:new 0 0 309.8 100;" xml:space="preserve">
<style type="text/css">
	.st0{fill:#6B6B6B;}
</style>
<path class="st0" d="M67,29.1h0.1H67 M20,60c7.4,0,13.4,6,13.4,13.4s-6,13.4-13.4,13.4s-13.4-6-13.4-13.4S12.6,60,20,60 M29.7,90
	c0-3.8,3.1-6.9,6.9-6.9s6.9,3.1,6.9,6.9s-3.1,6.9-6.9,6.9C32.8,96.9,29.7,93.8,29.7,90 M82.6,35.3c-0.1-0.9-0.2-1.8-0.2-2.7
	c-0.2-0.7-0.3-1.8-0.4-2.4c-0.3-0.8-0.3-1.1-0.4-1.7c-0.2-0.6-0.2-0.6-0.5-1.9c-0.7-2.5-1.8-5-3-7.4c-0.8-1.5-1.8-2.8-2.8-4.1
	c-0.2-0.3-0.8-1-1-1.2c-0.4-0.5-2.6-3.1-3.3-3.7c-0.7-0.6-1.3-1.2-2.1-1.8c-0.7-0.6-1.5-1.2-2.2-1.7c-0.6-0.5-1.3-0.7-1.9-1.1
	c-3.4-2.1-7.2-3.8-11.1-4.7c-13.1-3-28.5,1.4-37,12.1c-0.9,1.1-1.8,2.2-2.7,3.4c-0.4,0.5-0.6,1.2-1,1.8c-0.8,1.3-1.4,2.5-2,3.9
	C8.6,27.4,7.1,33.9,7.6,40c0.3,3.4,0.9,6.8,2.1,10c0.4,1,0.7,2,1.2,3c0.3,0.7,1.1,2.1,1.2,2.3c-7,3.1-11.9,10.1-11.9,18.3
	c0,11,9,20,20,20c2.4,0,4.7-0.4,6.8-1.2c0,0.1,0.1,0.1,0.1,0.2c1.1,4.3,5,7.6,9.7,7.6c5.5,0,10-4.5,10-10c0-4.8-3.3-8.8-7.8-9.8
	c0-0.1,0.1-0.2,0.1-0.3c0.1-0.4,0.3-0.8,0.4-1.2c0.2-0.5,0.3-1,0.4-1.6c0-0.3,0.1-0.6,0.1-1c0.1-0.4,0.1-0.8,0.1-1.2
	c0.1-0.1,0.2,0,0.4,0c2.2,0.1,4.4,0.5,6.6,0.3c4.1-0.2,8.5-1,12.2-2.7c3.9-1.7,7.7-3.9,10.9-6.8c1.5-1.3,3-2.8,4.2-4.5
	c0.6-0.8,1.3-1.5,1.8-2.3c0.4-0.7,1-1.4,1.4-2.1c0.3-0.5,0.3-0.8,0.6-1.3c0.2-0.3,0.4-0.6,0.5-1c0.3-0.7,0.4-1.5,0.4-2.3
	c0.1-1.5-0.4-3.1-1.3-4.4c-0.7-1.1-2.4-2.1-3.7-2.5c-1.5-0.4-3.3-0.3-4.8,0.2c-1.6,0.6-2.7,2-3.6,3.5c-1,1.6-1.9,3.1-3.2,4.4
	c-2.5,2.5-5.2,4.5-8.5,5.8c-12.6,5.1-27.2-1.8-31.4-14.7c-1.9-6-1.4-12.7,1.7-18.3c1.6-2.9,3.8-5.5,6.4-7.6c1.4-1.1,3-2.1,4.6-2.8
	c1.5-0.6,3-1,4.5-1.5c1.2-0.4,2.8-0.5,4-0.6c1.3-0.1,2.7-0.1,4,0.1c2.7,0.4,5.5,1.1,8,2.3c1.3,0.7,2.8,1.6,4,2.6s2.5,2.2,3.5,3.4
	c0.8,1,1.2,1.7,2,2.7c0.8,1.2,1.9,2.5,2,4c-3.1,0-6.3,0-9.4,0c-3,0-6.3-0.7-9.1,0.7c-2.9,1.5-5.2,5.7-3.3,8.8c0.9,1.5,1.3,2.7,3,3.5
	s3.1,0.9,5,0.9c4.3-0.1,8.6,0,12.9,0h6.7c1.9,0,3.8,0.1,5.6-0.6C81.4,41.4,82.9,38.5,82.6,35.3"/>
<g>
	<path class="st0" d="M112.4,40.7c0,1.1-0.5,1.7-1.6,1.7H97.5v1.3c0,4.2,1.8,6.3,5.5,6.3c2.3,0,4.4-0.5,6.1-1.4
		c0.2-0.1,0.5-0.2,0.7-0.2c0.5,0,0.9,0.2,1.2,0.6s0.5,0.8,0.5,1.3c0,0.7-0.3,1.2-1,1.6c-2.2,1.2-4.8,1.8-7.7,1.8
		c-3.3,0-5.8-1-7.4-3.1c-1.5-1.8-2.2-4.2-2.2-7.3v-4.5c0-3.1,0.7-5.5,2.2-7.3c1.7-2,4.1-3.1,7.4-3.1c3.4,0,5.8,1,7.5,3.1
		c1.4,1.7,2.1,4.1,2.1,7.2V40.7z M108.2,38.2c0-4.1-1.8-6.2-5.3-6.2c-3.6,0-5.5,2.1-5.5,6.2V39h10.8V38.2z"/>
	<path class="st0" d="M137.5,53.7c-0.9,0-1.8-0.3-2.6-1c-0.5-0.4-0.8-1-1.2-1.8c-1.8,1.9-4.3,2.8-7.6,2.8c-5.3,0-8-3-8-8.9V30.6
		c0-0.6,0.2-1.1,0.6-1.5c0.4-0.4,0.9-0.6,1.5-0.6s1.1,0.2,1.5,0.6s0.6,0.9,0.6,1.5v13.8c0,1.7,0.3,3,0.9,3.8c0.7,0.9,2,1.4,3.7,1.4
		c2.8,0,4.8-1.1,5.9-3.3V30.5c0-0.6,0.2-1.1,0.6-1.5c0.4-0.4,0.9-0.6,1.5-0.6s1.1,0.2,1.5,0.6s0.6,0.9,0.6,1.5v16.7
		c0,1.5,0.5,2.6,1.5,3.1c0.6,0.3,0.8,0.8,0.8,1.4C139.6,53.1,138.9,53.7,137.5,53.7z"/>
	<path class="st0" d="M157.6,32.9c-0.3,0-0.5-0.1-0.8-0.1s-0.6-0.1-0.9-0.1c-0.3,0-0.5,0-0.7,0c-3,0-4.8,1.5-5.4,4.4v14.5
		c0,0.6-0.2,1.1-0.6,1.5s-0.9,0.6-1.5,0.6s-1.1-0.2-1.5-0.6s-0.6-0.9-0.6-1.5V35.2c0-1.5-0.5-2.6-1.5-3.1c-0.6-0.3-0.8-0.8-0.8-1.4
		c0-1.2,0.7-1.9,2.1-1.9c0.4,0,0.6,0,0.7,0c1.6,0.4,2.7,1.4,3.3,3c1.6-2.2,3.8-3.4,6.7-3.4c1.3,0,2.4,0.2,3.3,0.6
		c0.7,0.4,1,0.9,1,1.7c0,0.6-0.2,1.1-0.6,1.5c-0.4,0.4-0.9,0.6-1.4,0.6C158.1,32.9,157.9,32.9,157.6,32.9z"/>
	<path class="st0" d="M179.1,50.7c-1.7,2-4.2,3-7.6,3c-3.3,0-5.8-1-7.5-3c-1.5-1.8-2.3-4.2-2.3-7.1v-5c0-3,0.8-5.3,2.3-7.1
		c1.7-2,4.2-3,7.5-3c3.4,0,5.9,1,7.6,3c1.5,1.8,2.3,4.2,2.3,7.1v5C181.4,46.6,180.6,48.9,179.1,50.7z M177.1,38.6
		c0-4.1-1.9-6.1-5.6-6.1c-3.7,0-5.5,2-5.5,6.1v5c0,4.1,1.8,6.2,5.5,6.2s5.6-2.1,5.6-6.2V38.6z"/>
	<path class="st0" d="M198.1,53.7c-2.2,0-4.1-0.6-5.8-1.9v8.4c0,0.6-0.2,1.1-0.6,1.5c-0.4,0.4-0.9,0.6-1.5,0.6s-1.1-0.2-1.5-0.6
		s-0.6-0.9-0.6-1.5V34.8c0-1.6-0.5-2.6-1.4-3.1c-0.6-0.3-0.8-0.8-0.8-1.4c0-1.2,0.7-1.9,2.1-1.9c0.9,0,1.8,0.3,2.6,1
		c0.3,0.3,0.6,0.7,0.9,1.1c2-1.4,4.1-2.1,6.4-2.1c6,0,9,3.3,9,9.9v4.4C206.9,50.1,203.9,53.7,198.1,53.7z M202.6,38.1
		c0-3.9-1.8-5.9-5.4-5.9c-1.7,0-3.4,0.7-4.9,2v13.5c1.5,1.5,3.2,2.2,5.1,2.2c3.5,0,5.2-2.2,5.2-6.6L202.6,38.1L202.6,38.1z"/>
	<path class="st0" d="M231.3,40.7c0,1.1-0.5,1.7-1.6,1.7h-13.3v1.3c0,4.2,1.8,6.3,5.5,6.3c2.3,0,4.4-0.5,6.1-1.4
		c0.2-0.1,0.5-0.2,0.7-0.2c0.5,0,0.9,0.2,1.2,0.6s0.5,0.8,0.5,1.3c0,0.7-0.3,1.2-1,1.6c-2.2,1.2-4.8,1.8-7.7,1.8
		c-3.3,0-5.8-1-7.4-3.1c-1.5-1.8-2.2-4.2-2.2-7.3v-4.5c0-3.1,0.7-5.5,2.2-7.3c1.7-2,4.1-3.1,7.4-3.1c3.4,0,5.8,1,7.5,3.1
		c1.4,1.7,2.1,4.1,2.1,7.2V40.7z M227.2,38.2c0-4.1-1.8-6.2-5.3-6.2c-3.6,0-5.5,2.1-5.5,6.2V39h10.8V38.2z"/>
	<path class="st0" d="M254.1,53.7c-1,0-1.9-0.3-2.5-1c-0.4-0.3-0.7-0.8-1-1.5c-1.5,1.7-3.8,2.5-6.8,2.5c-2.9,0-5.1-0.7-6.5-2
		c-1.3-1.3-2-3-2-5.1v-0.4c0-2.1,0.7-3.8,2.1-5.1c1.6-1.3,3.9-2,6.8-2h5.6v-1.2c0-2.1-0.3-3.5-1-4.4c-0.7-1-2.1-1.5-4.1-1.5
		c-1.8,0-3.5,0.4-5,1.2c-0.4,0.2-0.7,0.3-1,0.3c-0.5,0-1-0.2-1.3-0.6s-0.5-0.8-0.5-1.3c0-0.6,0.3-1.1,0.9-1.5
		c1.8-1.1,4.2-1.7,7.2-1.7c3.3,0,5.7,0.8,7.1,2.5c1.3,1.5,1.9,4,1.9,7.3v9.1c0,1.5,0.5,2.6,1.4,3.1c0.6,0.4,0.8,0.8,0.8,1.4
		C256.2,53.1,255.5,53.7,254.1,53.7z M249.7,42.4h-5.1c-3.4,0-5.2,1.3-5.2,3.8v0.4c0,2.5,1.7,3.8,5,3.8c3.5,0,5.3-1.7,5.3-5.1
		C249.7,45.3,249.7,42.4,249.7,42.4z"/>
	<path class="st0" d="M280.2,53.1c-0.4,0.4-0.9,0.6-1.5,0.6c-0.6,0-1.1-0.2-1.5-0.6c-0.4-0.4-0.6-0.9-0.6-1.5V37.8
		c0-1.7-0.3-3-0.9-3.8c-0.7-1-2-1.5-3.7-1.5c-2.8,0-4.7,1-5.9,3.1v16c0,0.6-0.2,1.1-0.6,1.5s-0.9,0.6-1.5,0.6s-1.1-0.2-1.5-0.6
		s-0.6-0.9-0.6-1.5V35.2c0-1.5-0.5-2.6-1.5-3.1c-0.6-0.3-0.8-0.8-0.8-1.4c0-1.2,0.7-1.9,2.1-1.9c0.9,0,1.8,0.3,2.6,1
		c0.5,0.5,0.8,1,1.1,1.6c1.8-2,4.3-2.9,7.6-2.9c5.3,0,8,3,8,8.9v14.2C280.8,52.2,280.6,52.7,280.2,53.1z"/>
	<path class="st0" d="M304.9,53.7c-1,0-1.9-0.3-2.5-1c-0.4-0.3-0.7-0.8-1-1.5c-1.5,1.7-3.8,2.5-6.8,2.5c-2.9,0-5.1-0.7-6.5-2
		c-1.3-1.3-2-3-2-5.1v-0.4c0-2.1,0.7-3.8,2.1-5.1c1.6-1.3,3.9-2,6.8-2h5.6v-1.2c0-2.1-0.3-3.5-1-4.4c-0.7-1-2.1-1.5-4.1-1.5
		c-1.8,0-3.5,0.4-5,1.2c-0.4,0.2-0.7,0.3-1,0.3c-0.5,0-1-0.2-1.3-0.6c-0.3-0.4-0.5-0.8-0.5-1.3c0-0.6,0.3-1.1,0.9-1.5
		c1.8-1.1,4.2-1.7,7.2-1.7c3.3,0,5.7,0.8,7.1,2.5c1.3,1.5,1.9,4,1.9,7.3v9.1c0,1.5,0.5,2.6,1.4,3.1c0.6,0.4,0.8,0.8,0.8,1.4
		C307,53.1,306.3,53.7,304.9,53.7z M300.6,42.4h-5.1c-3.4,0-5.2,1.3-5.2,3.8v0.4c0,2.5,1.7,3.8,5,3.8c3.5,0,5.3-1.7,5.3-5.1
		C300.6,45.3,300.6,42.4,300.6,42.4z"/>
</g>
</svg>