<?xml version="1.0" encoding="utf-8"?>
<!-- Generator: Adobe Illustrator 23.0.2, SVG Export Plug-In . SVG Version: 6.00 Build 0)  -->
<svg version="1.1" id="Layer_1" xmlns="http://www.w3.org/2000/svg" xmlns:xlink="http://www.w3.org/1999/xlink" x="0px" y="0px"
	 viewBox="0 0 248.3 66.6" style="enable-background:new 0 0 248.3 66.6;" xml:space="preserve">
<style type="text/css">
	.st0{fill:#6B6B6B;}
</style>
<g>
	<path class="st0" d="M74.2,61c0-0.1,0-0.3-0.1-0.3s-0.1-0.1-0.3-0.1h-1.2v-8.6h1.3v1.7c0,0.1,0,0.1,0.1,0.1l0.1,0.1h1.2
		c0.1,0,0.1,0,0.1-0.1l0.1-0.1v-3.3c0-0.1,0-0.1-0.1-0.1l-0.1-0.1h-7.7c-0.1,0-0.1,0-0.1,0.1l-0.1,0.1v3.3c0,0.1,0,0.1,0.1,0.1
		l0.1,0.1h1.2c0.1,0,0.1,0,0.1-0.1l0.1-0.1v-1.7h1.3v8.6h-1.3c-0.1,0-0.1,0-0.3,0.1c-0.1,0-0.1,0.1-0.1,0.3v1c0,0.1,0,0.3,0.1,0.3
		s0.1,0.1,0.3,0.1h4.7c0.1,0,0.3,0,0.3-0.1c0.1,0,0.1-0.1,0.1-0.3C74.2,62,74.2,61,74.2,61z"/>
	<path class="st0" d="M86,61c0-0.1,0-0.1,0-0.1l-0.1-0.1h-0.9v-4.8c0-0.9-0.1-1.5-0.4-2c-0.3-0.4-0.9-0.9-1.9-0.9
		c-0.6,0-1.2,0.1-1.5,0.4c-0.4,0.1-0.7,0.4-0.9,0.7v-4.5c0-0.1,0-0.1,0-0.1l-0.1-0.1h-2.9c-0.1,0-0.1,0-0.1,0.1v0.1v1.2
		c0,0.1,0,0.1,0,0.1l0.1,0.1h0.9v9.4h-0.9c-0.1,0-0.1,0-0.1,0.1v0.1V62c0,0.1,0,0.1,0,0.1l0.1,0.1H81c0.1,0,0.1,0,0.1-0.1V62v-1.2
		c0-0.1,0-0.1,0-0.1L81,60.5h-1.2v-4.7c0.1-0.1,0.3-0.3,0.6-0.4c0.3-0.1,0.6-0.3,1-0.3s0.7,0.1,0.9,0.4c0.1,0.3,0.1,0.6,0.1,1v5.5
		c0,0.1,0,0.1,0,0.1l0.1,0.1h2.9c0.1,0,0.1,0,0.1-0.1v-0.1L86,61L86,61z"/>
	<path class="st0" d="M92.2,61c0-0.1,0-0.1,0-0.1l-0.1-0.1h-1.2v-6.8c0-0.1,0-0.1,0-0.1l-0.1-0.1h-3.2c-0.1,0-0.1,0-0.1,0.1v0.1V55
		c0,0.1,0,0.1,0,0.1l0.1,0.1h1.2v5.5h-1.2c-0.1,0-0.1,0-0.1,0.1v0.1v1.2c0,0.1,0,0.1,0,0.1l0.1,0.1h4.7c0.1,0,0.1,0,0.1-0.1v-0.1V61
		C92.4,61,92.2,61,92.2,61z M91.1,50.8c0-0.4-0.1-0.9-0.4-1c-0.3-0.3-0.6-0.4-1-0.4c-0.4,0-0.9,0.1-1.2,0.4c-0.3,0.3-0.4,0.6-0.4,1
		s0.1,0.9,0.4,1c0.3,0.3,0.6,0.4,1.2,0.4c0.4,0,0.9-0.1,1-0.4C91.1,51.7,91.1,51.2,91.1,50.8"/>
	<path class="st0" d="M102.7,61c0-0.1,0-0.1,0-0.1l-0.1-0.1h-0.9v-4.8c0-0.9-0.1-1.5-0.4-2c-0.3-0.4-0.9-0.9-1.9-0.9
		c-0.7,0-1.3,0.1-1.7,0.4c-0.4,0.3-0.9,0.4-1,0.9c-0.1-0.1-0.1-0.4-0.1-0.6c-0.1-0.1-0.1-0.3-0.4-0.3h-2.5c-0.1,0-0.1,0-0.1,0v0.1
		v1.2c0,0.1,0,0.1,0,0.1l0.1,0.1h0.9c0.1,0.1,0.1,0.4,0.1,0.6c0,0.1,0,0.4,0,1v4.1h-0.9c-0.1,0-0.1,0-0.1,0.1V61v1.2
		c0,0.1,0,0.1,0,0.1l0.1,0.1h4.1c0.1,0,0.1,0,0.1-0.1v-0.1V61c0-0.1,0-0.1,0-0.1l-0.1-0.1h-0.9v-4.9c0.1-0.1,0.3-0.3,0.6-0.4
		c0.3-0.1,0.6-0.3,1-0.3c0.4,0,0.7,0.1,0.9,0.4c0.1,0.3,0.1,0.6,0.1,1V62c0,0.1,0,0.1,0,0.1l0.1,0.1h2.9c0.1,0,0.1,0,0.1-0.1V62V61
		L102.7,61z"/>
	<path class="st0" d="M112.7,61c0-0.1,0-0.1,0-0.1l-0.1-0.1h-1l-2.8-3.3l2.5-2h0.9c0.1,0,0.1,0,0.1-0.1V55v-1.2c0-0.1,0-0.1,0-0.1
		s-0.1-0.1-0.1,0h-3.9c-0.1,0-0.1,0-0.1,0v0.1V55c0,0.1,0,0.1,0,0.1l0.1,0.1h0.7l0,0l-2.2,1.7v-7.3c0-0.1,0-0.1,0-0.1l-0.1-0.1h-2.9
		c-0.1,0-0.1,0-0.1,0.1v0.1v1.2c0,0.1,0,0.1,0,0.1l0.1,0.1h0.9v9.4h-0.9c-0.1,0-0.1,0-0.1,0.1V61v1.2c0,0.1,0,0.1,0,0.1l0.1,0.1h4.1
		c0.1,0,0.1,0,0.1-0.1c0,0,0.1-0.1,0-0.1V61c0-0.1,0-0.1,0-0.1l-0.1-0.1h-0.9v-2.8l0,0l3.1,4.2c0.1,0.1,0.1,0.1,0.1,0.1h0.1h2.2
		c0.1,0,0.1,0,0.1-0.1V62L112.7,61L112.7,61z"/>
	<path class="st0" d="M129.9,61c0-0.1,0-0.3-0.1-0.3c-0.1,0-0.1-0.1-0.3-0.1h-0.9v-8.9h0.9c0.1,0,0.1,0,0.3-0.1
		c0.1-0.1,0.1-0.1,0.1-0.3v-1c0-0.1,0-0.3-0.1-0.3c-0.1,0-0.1,0.1-0.3,0.1h-4.2c-0.1,0-0.1,0-0.3,0.1c-0.1,0-0.1,0.1-0.1,0.3v1
		c0,0.1,0,0.3,0.1,0.3c0.1,0,0.1,0.1,0.3,0.1h0.9v3.2h-3.3v-3.2h0.9c0.1,0,0.3,0,0.3-0.1c0.1-0.1,0.1-0.1,0.1-0.3v-1
		c0-0.1,0-0.3-0.1-0.3c-0.1,0-0.1-0.1-0.1-0.1h-4.2c-0.1,0-0.3,0-0.3,0.1c-0.1,0-0.1,0.1-0.1,0.3v1c0,0.1,0,0.3,0.1,0.3
		c0.1,0,0.1,0.1,0.3,0.1h0.9v8.9h-0.9c-0.1,0-0.3,0-0.3,0.1c-0.1,0-0.1,0.1-0.1,0.3v1c0,0.1,0,0.3,0.1,0.3c0.1,0,0.1,0.1,0.3,0.1
		h4.2c0.1,0,0.3,0,0.3-0.1c0.1,0,0.1-0.1,0.1-0.3v-1c0-0.1,0-0.3-0.1-0.3s-0.1-0.1-0.3-0.1h-0.9v-3.6h3.3v3.6h-0.9
		c-0.1,0-0.1,0-0.3,0.1c-0.1,0-0.1,0.1-0.1,0.3v1c0,0.1,0,0.3,0.1,0.3s0.1,0.1,0.3,0.1h4.2c0.1,0,0.1,0,0.3-0.1
		c0.1,0,0.1-0.1,0.1-0.3V61H129.9z"/>
	<path class="st0" d="M136.3,61c0-0.1,0-0.1,0-0.1l-0.1-0.1h-1.2v-6.8c0-0.1,0-0.1,0-0.1l-0.1-0.1h-3.2c-0.1,0-0.1,0-0.1,0.1v0.1V55
		c0,0.1,0,0.1,0,0.1l0.1,0.1h1.2v5.5h-1.2c-0.1,0-0.1,0-0.1,0.1v0.1v1.2c0,0.1,0,0.1,0,0.1l0.1,0.1h4.7c0.1,0,0.1,0,0.1-0.1v-0.1V61
		C136.4,61,136.3,61,136.3,61z M135.1,50.8c0-0.4-0.1-0.9-0.4-1c-0.3-0.3-0.6-0.4-1-0.4s-0.9,0.1-1,0.4c-0.3,0.3-0.4,0.6-0.4,1
		s0.1,0.9,0.4,1c0.3,0.3,0.6,0.4,1,0.4c0.4,0,0.9-0.1,1-0.4C134.9,51.7,135.1,51.2,135.1,50.8"/>
	<path class="st0" d="M141.3,55.7c0,0.1,0,0.1,0.1,0.1l0.1,0.1h1.2c0.1,0,0.1,0,0.1-0.1v-0.1V54c0-0.1-0.1-0.3-0.4-0.4
		c-0.3-0.1-0.6-0.1-1-0.3c-0.4-0.1-0.7-0.1-1.2-0.1c-1,0-1.7,0.3-2.3,0.9c-0.6,0.4-0.9,1.2-0.9,2c0,0.4,0.1,0.9,0.3,1.3
		c0.1,0.3,0.4,0.6,0.7,0.9c0.4,0.3,0.9,0.4,1.3,0.6c0.4,0.1,0.9,0.3,1.2,0.4c0.3,0.1,0.4,0.4,0.4,0.9c0,0.3-0.1,0.6-0.3,0.7
		c-0.1,0.1-0.4,0.1-0.9,0.1c-0.3,0-0.4,0-0.9-0.1c-0.1-0.1-0.4-0.1-0.4-0.1v-0.9c0-0.1,0-0.1,0-0.3l-0.1-0.1h-1.2
		c-0.1,0-0.1,0-0.1,0.1l-0.1,0.1v1.9c0,0.1,0.1,0.4,0.6,0.4c0.4,0.1,0.9,0.3,1.3,0.4c0.4,0.1,0.9,0.1,1.3,0.1c1,0,1.7-0.3,2.2-0.9
		c0.4-0.4,0.9-1.2,0.9-2c0-0.4-0.1-1-0.3-1.3c-0.1-0.4-0.4-0.6-0.9-0.9c-0.4-0.3-0.9-0.4-1.3-0.6c-0.4-0.1-0.9-0.3-1.2-0.4
		c-0.3-0.1-0.4-0.4-0.4-0.7s0.1-0.4,0.3-0.7c0.1-0.1,0.4-0.1,0.9-0.1c0.1,0,0.1,0,0.3,0s0.1,0,0.3,0v1h0.4V55.7z"/>
	<path class="st0" d="M148,55.1h1.7c0.1,0,0.1,0,0.1,0c0.1,0,0.1-0.1,0.1-0.1l0.3-1.2v-0.1v-0.1c0-0.1,0-0.1-0.1-0.1
		c-0.1,0-0.1,0-0.1,0h-2v-2.5c0-0.1,0-0.1,0-0.1l-0.1-0.1c-0.1,0-0.1,0-0.1,0h-0.1l-1.6,0.1c-0.1,0-0.1,0-0.1,0.1l-0.1,0.1v2.3h-1.3
		c-0.1,0-0.1,0-0.1,0.1v0.1v1.2c0,0.1,0,0.1,0,0.1l0.1,0.1h1.3v4.1c0,0.6,0,1.2,0.1,1.6c0.1,0.4,0.3,1,0.6,1.3s0.9,0.4,1.6,0.4
		c0.6,0,1.2-0.1,1.7-0.1c0.4-0.1,0.9-0.3,0.9-0.4c0-0.1,0-0.1,0-0.1l-0.4-1.5c0-0.1-0.1-0.1-0.1-0.1c-0.1,0-0.3,0.1-0.4,0.1
		c-0.1,0.1-0.4,0.1-0.9,0.1c-0.3,0-0.4-0.1-0.4-0.3c-0.1-0.1-0.1-0.4-0.1-0.9L148,55.1L148,55.1z"/>
	<path class="st0" d="M155.1,60.8c-0.6,0-1-0.3-1.2-0.9c-0.1-0.4-0.3-1.2-0.3-2s0.1-1.5,0.3-2c0.1-0.4,0.6-0.9,1.2-0.9
		s1,0.3,1.2,0.9c0.1,0.4,0.3,1.2,0.3,2s-0.1,1.6-0.3,2C156,60.5,155.7,60.8,155.1,60.8 M158.9,57.9c0-1.5-0.4-2.6-1-3.3
		c-0.7-0.9-1.6-1.3-2.8-1.3s-2.2,0.4-2.8,1.3c-0.7,0.9-1,2-1,3.3c0,1.5,0.4,2.6,1,3.3c0.7,0.9,1.6,1.3,2.8,1.3s2.2-0.4,2.8-1.3
		C158.6,60.5,158.9,59.4,158.9,57.9"/>
	<path class="st0" d="M164.7,61c0-0.1,0-0.1,0-0.1l-0.1-0.1h-1v-4.5c0.1-0.1,0.3-0.3,0.6-0.4c0.3-0.1,0.4-0.3,0.9-0.3
		c0.1,0,0.4,0,0.4,0.1c0,0.1,0.1,0.1,0.3,0.1c0,0,0.1,0,0.1-0.1c0,0,0-0.1,0.1-0.1l0.6-1.5c0,0,0,0,0-0.1v-0.1
		c0-0.1-0.1-0.1-0.3-0.3c-0.1-0.1-0.4-0.1-0.7-0.1c-0.4,0-0.7,0.1-1,0.3c-0.3,0.1-0.4,0.4-0.7,0.6c-0.1,0.1-0.3,0.4-0.4,0.4
		c-0.1-0.1-0.1-0.4-0.1-0.7c-0.1-0.1-0.1-0.4-0.4-0.4h-2.3c-0.1,0-0.1,0-0.1,0v0.1v1.2c0,0.1,0,0.1,0,0.1l0.1,0.1h0.9
		c0,0.1,0.1,0.4,0.1,0.6c0,0.1,0.1,0.4,0.1,1v4.1h-0.9c-0.1,0-0.1,0-0.1,0.1V61v1.2c0,0.1,0,0.1,0,0.1l0.1,0.1h4.1
		c0.1,0,0.1,0,0.1-0.1v-0.1L164.7,61L164.7,61z"/>
	<path class="st0" d="M174.8,55.1h0.6c0.1,0,0.1,0,0.1-0.1v-0.1v-1.2c0-0.1,0-0.1-0.1-0.1h-0.1H173c-0.1,0-0.1,0-0.1,0l-0.1,0.1
		l-1,4.4c0,0.1-0.1,0.4-0.1,0.9c-0.1,0.4-0.1,0.9-0.1,1.3c-0.1,0.4-0.1,0.9-0.1,1l0,0c0-0.1-0.1-0.4-0.1-0.9
		c-0.1-0.4-0.1-0.9-0.3-1.2c-0.1-0.4-0.1-0.7-0.1-1l-1.2-4.4c0-0.1-0.1-0.1-0.1-0.1l-0.1-0.1h-2.5c-0.1,0-0.1,0-0.1,0.1v0.1V55
		c0,0.1,0,0.1,0,0.1l0.1,0.1h0.6l2.5,6.8c0,0.1,0.1,0.1,0.1,0.1l0.1,0.1h0.9l-0.1,0.6c-0.1,0.4-0.3,0.7-0.4,1
		c-0.1,0.1-0.4,0.4-1,0.4c-0.4,0-0.7-0.1-1-0.1c-0.3-0.1-0.4-0.1-0.4-0.1h-0.1l-0.1,0.1l-0.4,1.2v0.1v0.1c0,0.1,0.1,0.1,0.4,0.4
		c0.3,0.1,0.6,0.1,1,0.3c0.4,0.1,0.7,0.1,1.2,0.1c0.4,0,1-0.1,1.5-0.3c0.4-0.1,0.9-0.7,1.2-1.3c0.1-0.3,0.3-0.7,0.4-1.2
		s0.3-1,0.4-1.5c0.1-0.4,0.1-0.9,0.3-1.3L174.8,55.1z"/>
	<path class="st0" d="M180.1,50.3c0-0.1,0-0.1,0-0.3v-0.1c0-0.1,0-0.1-0.1-0.1s-0.1,0-0.1,0H178c-0.1,0-0.1,0-0.1,0
		c-0.1,0-0.1,0.1-0.1,0.1v0.1c0,0,0,0.1,0,0.3l0.4,7c0,0.1,0,0.3,0.1,0.3c0.1,0,0.1,0.1,0.3,0.1h1c0.1,0,0.1,0,0.3-0.1
		c0.1,0,0.1-0.1,0.1-0.3L180.1,50.3z M180.4,61.1c0-0.4-0.1-0.9-0.4-1.2c-0.3-0.3-0.6-0.4-1.2-0.4c-0.4,0-0.9,0.1-1.2,0.4
		c-0.3,0.3-0.4,0.6-0.4,1.2c0,0.4,0.1,0.9,0.4,1.2c0.3,0.3,0.6,0.4,1.2,0.4c0.4,0,0.9-0.1,1.2-0.4C180.1,61.8,180.4,61.5,180.4,61.1
		"/>
	<path class="st0" d="M15.3,31c0-0.4-0.1-0.7-0.1-0.9C15,30,14.8,30,14.3,30H11V19.7h8.4c0.4,0,0.7,0,0.9-0.1
		c0.1-0.1,0.1-0.4,0.1-0.9v-3.2c0-0.4,0-0.7-0.1-0.9c-0.1-0.1-0.4-0.1-0.9-0.1H11v-8h6.2v2.9c0,0.4,0.1,0.7,0.1,0.9
		c0.1,0.1,0.4,0.1,0.9,0.1h3.2c0.4,0,0.7,0,0.9-0.1c0.1-0.1,0.1-0.4,0.1-0.9V1.8c0-0.4-0.1-0.6-0.1-0.7c-0.1-0.1-0.4-0.1-0.9-0.1
		H1.8c-0.4,0-0.7,0-0.9,0.1S0.8,1.5,0.8,1.9v2.8c0,0.4,0.1,0.7,0.1,0.9c0.1,0.1,0.4,0.1,0.9,0.1h2.5V30H1.8c-0.4,0-0.7,0-0.9,0.1
		c-0.1,0.1-0.1,0.4-0.1,0.9v2.8c0,0.4,0.1,0.7,0.1,0.9c0.1,0.1,0.4,0.1,0.9,0.1h12.4c0.4,0,0.7,0,0.9-0.1c0.1-0.1,0.1-0.4,0.1-0.9
		L15.3,31L15.3,31z"/>
	<path class="st0" d="M43.2,17.4c0-2.6-0.6-4.5-1.9-6s-3.5-2-6.5-2c-1.3,0-2.6,0.1-3.9,0.3c-1.3,0.1-2.5,0.4-3.3,0.9
		c-0.9,0.4-1.5,0.7-1.5,1.2c0,0.1,0,0.1,0.1,0.3c0,0.1,0.1,0.1,0.1,0.3l1,3.1c0,0.1,0.1,0.1,0.1,0.3c0.1,0.1,0.1,0.1,0.3,0.1
		c0.4-0.1,1.2-0.3,2.3-0.7c1.2-0.4,2.5-0.7,3.9-0.7c1.5,0,2.5,0.3,2.9,1c0.4,0.7,0.6,1.5,0.6,2.8v1.5c-1,0-2.2,0-3.6,0.1
		c-1.5,0.1-2.8,0.4-4.2,0.9C28,21,26.8,21.9,25.8,23c-0.9,1.2-1.5,2.8-1.5,4.8c0,2.3,0.7,4.2,2,5.5c1.3,1.3,3.1,2,5.4,2
		c1.7-0.1,3.2-0.4,4.2-1.2c1-0.7,1.7-1.3,2.2-1.7c0.1,0.4,0.1,0.9,0.4,1.5c0.1,0.4,0.4,0.7,1.2,0.7H46c0.3,0,0.4,0,0.6-0.1
		c0.1-0.1,0.1-0.3,0.1-0.4v-3.2c0-0.3,0-0.4-0.1-0.4c-0.1-0.3-0.4-0.3-0.6-0.3h-2c-0.1-0.4-0.1-1-0.3-1.6c-0.1-0.6-0.1-1.5-0.1-2.6
		C43.2,25.9,43.2,17.4,43.2,17.4z M37.3,29.1c-0.3,0.3-0.9,0.7-1.5,1.2c-0.6,0.4-1.5,0.7-2.3,0.7c-1,0-1.7-0.3-2.3-1
		c-0.6-0.6-0.9-1.5-0.9-2.5c0.1-1.5,0.6-2.5,1.5-3.1c1-0.6,2-0.9,3.1-0.9c1.2-0.1,1.9-0.1,2.5-0.1V29.1L37.3,29.1z"/>
	<path class="st0" d="M64.3,29.7c0-0.1-0.1-0.1-0.1-0.1c-0.1,0-0.1-0.1-0.1-0.1c-0.1,0-0.7,0.1-1.5,0.4c-0.7,0.3-1.7,0.4-2.9,0.4
		c-1.9,0-3.2-0.6-4.1-1.9c-0.9-1.3-1.2-3.3-1.2-6c0-2.8,0.4-4.9,1.2-6.2c0.9-1.3,2-2,3.8-2c0.1,0,0.4,0,0.6,0s0.4,0.1,0.6,0.1v3.8
		c0,0.3,0,0.4,0.1,0.6c0.1,0.1,0.3,0.1,0.4,0.1h3.5c0.3,0,0.4,0,0.4-0.1c0.1-0.1,0.1-0.3,0.1-0.6v-6.7c0-0.4-0.4-0.9-1-1.2
		c-0.7-0.3-1.5-0.6-2.5-0.7c-0.6-0.1-1.5-0.1-2.3-0.1c-3.6,0-6.5,1.2-8.6,3.6s-3.1,5.7-3.1,9.9s1,7.3,2.9,9.4c1.9,2,4.7,3.1,8,3.1
		c1,0,2-0.1,3.1-0.3c1.2-0.1,1.9-0.4,2.8-0.7c0.7-0.3,1.2-0.6,1.2-1c0-0.1,0-0.1-0.1-0.1c0-0.1-0.1-0.1-0.1-0.1L64.3,29.7z"/>
	<path class="st0" d="M78.6,14.9h4.8c0.1,0,0.4,0,0.6-0.1c0.1-0.1,0.3-0.3,0.3-0.6l0.7-2.9c0-0.1,0-0.1,0.1-0.1c0-0.1,0-0.1,0-0.1
		c0-0.1-0.1-0.3-0.3-0.4c-0.1-0.1-0.4-0.1-0.6-0.1h-5.7V3.5c0-0.3,0-0.4-0.1-0.6S78.3,2.8,78,2.8c-0.1,0-0.3,0-0.4,0s-0.1,0-0.3,0
		l-4.4,0.6c-0.3,0-0.6,0.1-0.7,0.1c0.1,0,0.1,0.3,0.1,0.6v6.2h-3.5c-0.3,0-0.4,0-0.6,0.1c-0.1,0.1-0.1,0.3-0.1,0.4v3.2
		c0,0.3,0,0.4,0.1,0.4c0.1,0.1,0.3,0.1,0.6,0.1h3.5v11c0,1.5,0,3.1,0.1,4.5c0.1,1.5,0.7,2.6,1.6,3.6c0.9,0.9,2.5,1.5,4.5,1.5
		c1.7,0,3.3-0.1,4.7-0.6c1.5-0.4,2-0.9,2.2-1.2c0-0.1,0-0.3-0.1-0.4l-1-4.1c-0.1-0.1-0.1-0.3-0.4-0.3s-0.9,0.1-1.5,0.4
		c-0.6,0.3-1.5,0.4-2.5,0.4c-0.9,0-1.3-0.3-1.5-0.9c-0.1-0.6-0.1-1.3-0.1-2V14.7h0.3V14.9z"/>
	<path class="st0" d="M99.3,16.8c0,0.3,0,0.4,0.1,0.4c0.1,0,0.3,0.1,0.4,0.1h3.3c0.3,0,0.4,0,0.4-0.1s0.1-0.3,0.1-0.4v-5.1
		c0-0.4-0.4-1-1.2-1.3c-0.9-0.3-1.7-0.6-2.8-0.7c-1-0.1-2-0.1-2.9-0.1c-2.8,0.1-4.8,0.9-6.4,2.3c-1.5,1.5-2.3,3.3-2.5,5.7
		c0,1.5,0.3,2.6,0.9,3.5c0.6,0.9,1.2,1.6,2,2c1.2,0.7,2.3,1.2,3.5,1.6c1.2,0.4,2.3,0.9,3.2,1.3c0.9,0.4,1.3,1.2,1.5,2
		c0,0.9-0.3,1.5-0.9,1.9c-0.6,0.4-1.3,0.6-2,0.6c-0.9,0-1.5-0.1-2-0.3c-0.6-0.1-1.2-0.3-1.5-0.4v-2.5c0-0.3,0-0.6-0.1-0.7
		s-0.3-0.1-0.6-0.1H89c-0.3,0-0.4,0-0.4,0.1c-0.1,0.1-0.1,0.3-0.1,0.4v5.7c0.1,0.4,0.6,1,1.6,1.5c1,0.4,2.2,0.9,3.6,1
		c1.3,0.1,2.5,0.4,3.6,0.4c2.6,0,4.7-0.9,6.2-2.3c1.5-1.5,2.2-3.3,2.3-5.7c0-1.5-0.3-2.6-0.9-3.6s-1.5-1.7-2.5-2.5
		c-1.2-0.7-2.5-1.3-3.6-1.7c-1.2-0.4-2.2-0.9-3.1-1.2c-0.9-0.4-1.2-1.2-1.3-2c0-0.9,0.3-1.5,0.9-1.9c0.6-0.4,1.5-0.6,2.3-0.6
		c0.3,0,0.6,0,1,0.1c0.3,0,0.6,0.1,0.9,0.1v2.5C99.6,16.8,99.3,16.8,99.3,16.8z"/>
	<path class="st0" d="M128.8,16.8c0.4-0.4,1.3-1,2.3-1.7c1-0.9,1.9-1.7,2.8-3.1c0.9-1.2,1.2-2.6,1.3-4.1c-0.1-2.5-0.9-4.4-2.6-5.8
		c-1.6-1.5-3.6-2-6.2-2c-1.6,0-3.1,0.3-4.7,1c-1.5,0.7-2.8,1.6-3.6,2.8s-1.5,2.8-1.5,4.5c0,1.2,0.4,2.5,1,3.3c0.6,1,1.3,2,2,2.8
		c0.7,0.9,1.2,1.3,1.6,1.7c-0.7,0.4-1.6,0.9-2.8,1.7c-1.2,0.7-2.2,1.6-3.2,3.1c-0.9,1.3-1.5,3.1-1.5,4.9c0,3.1,1.2,5.2,3.1,6.8
		c2,1.6,4.7,2.5,8.1,2.5c2.8-0.1,4.9-0.4,6.2-1.3c1.5-0.9,2.5-1.6,3.2-2.3l2.8,3.2c0.1,0.1,0.1,0.1,0.3,0.3c0.1,0.1,0.3,0.1,0.4,0.1
		s0.1,0,0.4-0.1c0.1-0.1,0.1-0.1,0.3-0.1l2.5-2.2c0.1-0.1,0.3-0.3,0.4-0.4c0.1-0.1,0.1-0.1,0.1-0.4c0-0.1-0.1-0.1-0.1-0.3
		c-0.1-0.1-0.1-0.1-0.3-0.3l-3.5-4.2c0.3-0.4,0.7-1.2,1.2-2.2c0.4-1,0.9-2.2,1.2-3.3c0.4-1.2,0.6-2.5,0.6-3.3c0-0.1,0-0.3-0.1-0.4
		c-0.1-0.1-0.1-0.1-0.4-0.3l-3.6-0.9c-0.1,0-0.1,0-0.3-0.1c-0.1,0-0.1,0-0.3,0c-0.3,0-0.4,0.3-0.4,0.9c0,0.6-0.1,1.3-0.3,2.3
		c-0.1,1-0.6,2-1.2,3.3L128.8,16.8z M125.9,13.4c-0.3-0.3-0.7-0.7-1.2-1.2c-0.4-0.4-1-1.2-1.5-1.7c-0.4-0.7-0.6-1.5-0.7-2.2
		c0-1.2,0.3-1.9,1-2.5c0.6-0.6,1.5-1,2.5-1s1.7,0.3,2.3,0.9s0.9,1.5,0.9,2.6c-0.1,1.3-0.4,2.3-1.3,3.2
		C127.2,12.3,126.5,12.8,125.9,13.4 M131,27.5c-0.4,0.4-1,1-1.9,1.7c-0.9,0.6-2,1-3.5,1c-1.5,0-2.6-0.4-3.5-1.5
		c-0.9-0.9-1.5-2-1.5-3.6c0-1,0.3-2,0.7-2.8c0.4-0.9,1-1.5,1.6-1.9c0.6-0.4,1-0.9,1.5-1.2L131,27.5z"/>
	<path class="st0" d="M164.4,31c0-0.4-0.1-0.7-0.1-0.9s-0.4-0.1-0.9-0.1h-3.3V19.7h8.4c0.4,0,0.7,0,0.9-0.1s0.1-0.4,0.1-0.9v-3.2
		c0-0.4,0-0.7-0.1-0.9s-0.4-0.1-0.9-0.1h-8.4v-8h6.2v2.9c0,0.4,0.1,0.7,0.1,0.9c0.1,0.1,0.4,0.1,0.9,0.1h3.2c0.4,0,0.7,0,0.9-0.1
		c0.1-0.1,0.1-0.4,0.1-0.9V1.8c0-0.4-0.1-0.6-0.1-0.7c-0.1-0.1-0.4-0.1-0.9-0.1h-19.8c-0.4,0-0.7,0-0.9,0.1
		c-0.1,0.1-0.1,0.4-0.1,0.9v2.8c0,0.4,0.1,0.7,0.1,0.9c0.1,0.1,0.4,0.1,0.9,0.1h2.5V30h-2.5c-0.4,0-0.7,0-0.9,0.1
		c-0.1,0.1-0.1,0.4-0.1,0.9v2.8c0,0.4,0.1,0.7,0.1,0.9c0.1,0.1,0.4,0.1,0.9,0.1h12.4c0.4,0,0.7,0,0.9-0.1c0.1-0.1,0.1-0.4,0.1-0.9
		L164.4,31L164.4,31z"/>
	<path class="st0" d="M188.7,30.7c0-0.3,0-0.4-0.1-0.4c-0.1-0.1-0.3-0.1-0.6-0.1h-3.2V11c0-0.3,0-0.4-0.1-0.4
		c-0.1-0.1-0.3-0.1-0.6-0.1h-8.9c-0.3,0-0.4,0-0.6,0.1c-0.1,0.1-0.1,0.3-0.1,0.4v3.2c0,0.3,0,0.4,0.1,0.4c0.1,0.1,0.3,0.1,0.6,0.1
		h3.2V30h-3.2c-0.3,0-0.4,0-0.6,0.1c-0.1,0.1-0.1,0.3-0.1,0.4v3.2c0,0.3,0,0.4,0.1,0.4c0.1,0.1,0.3,0.1,0.6,0.1h12.6
		c0.3,0,0.4,0,0.6-0.1c0.1-0.1,0.1-0.3,0.1-0.4L188.7,30.7L188.7,30.7z M185.7,3c0-1.2-0.4-2-1.2-2.9c-0.9-0.9-1.7-1.2-2.9-1.2
		c-1.2,0-2,0.4-2.9,1.2c-0.9,0.9-1.2,1.7-1.2,2.9s0.4,2,1.2,2.9c0.9,0.9,1.7,1.2,2.9,1.2c1.2,0,2-0.4,2.9-1.2
		C185.2,5.1,185.7,4.1,185.7,3"/>
	<path class="st0" d="M193.2,25.9c0,1.5,0,3.1,0.1,4.5c0.1,1.5,0.7,2.6,1.6,3.6c0.9,0.9,2.3,1.5,4.4,1.5c1.2,0,2.5-0.1,3.3-0.4
		c1-0.3,1.5-0.6,1.6-0.9c0-0.1,0-0.3-0.1-0.4l-1-4.1c-0.1-0.1-0.1-0.3-0.4-0.3c-0.1,0-0.4,0.1-0.7,0.1c-0.3,0.1-0.7,0.1-1.2,0.1
		c-0.7,0-1.2-0.3-1.2-0.9c-0.1-0.6-0.1-1.3-0.1-2V0.1c0-0.3,0-0.4-0.1-0.4c-0.1-0.1-0.3-0.1-0.6-0.1h-8c-0.3,0-0.4,0-0.6,0.1
		C190-0.2,190-0.1,190,0.1v3.2c0,0.3,0,0.4,0.1,0.4c0.1,0.1,0.3,0.1,0.6,0.1h2.5V25.9L193.2,25.9z"/>
	<path class="st0" d="M225.9,24.2c0.4,0,0.9-0.1,0.9-0.3c0.1-0.1,0.1-0.4,0.1-1c0-2-0.1-4.1-0.7-6.1c-0.4-2-1.5-3.8-2.9-5.2
		c-1.5-1.5-3.5-2-6.2-2.2c-3.3,0.1-6,1.3-7.8,3.6c-1.9,2.3-2.9,5.7-2.9,9.6c0.1,4.5,1.2,7.8,3.1,9.7c2,2,4.7,3.1,8,3.1
		c1.3,0,2.8-0.1,4.1-0.4c1.3-0.3,2.5-0.7,3.3-1.2s1.5-0.9,1.5-1.3c0-0.1,0-0.1-0.1-0.3c0-0.1-0.1-0.1-0.1-0.3l-1.2-3.1
		c0-0.1-0.1-0.1-0.1-0.3c-0.1-0.1-0.1-0.1-0.3-0.1c-0.3,0.1-1,0.3-2,0.9c-1,0.4-2.5,0.7-4.2,0.9c-1.5,0-2.8-0.4-3.5-1
		c-0.9-0.6-1.3-1.5-1.6-2.5c-0.3-0.9-0.4-1.9-0.4-2.8h13.4L225.9,24.2L225.9,24.2z M212.7,19.5c0-0.4,0.1-1.2,0.3-2
		c0.1-0.9,0.4-1.6,1.2-2.5c0.6-0.7,1.5-1.2,2.8-1.2c1.2,0,1.9,0.4,2.5,1c0.4,0.6,0.9,1.5,1,2.2c0.1,0.9,0.1,1.6,0.1,2.3h-7.8V19.5z"
		/>
	<path class="st0" d="M242.1,16.8c0,0.3,0,0.4,0.1,0.4c0.1,0,0.3,0.1,0.4,0.1h3.3c0.3,0,0.4,0,0.4-0.1s0.1-0.3,0.1-0.4v-5.1
		c0-0.4-0.4-1-1.2-1.3c-0.9-0.3-1.7-0.6-2.8-0.7c-1-0.1-2-0.1-2.9-0.1c-2.8,0.1-4.8,0.9-6.4,2.3c-1.5,1.5-2.3,3.3-2.5,5.7
		c0,1.5,0.3,2.6,0.9,3.5c0.6,0.9,1.2,1.6,2,2c1.2,0.7,2.3,1.2,3.5,1.6c1.2,0.4,2.3,0.9,3.2,1.3c0.9,0.4,1.3,1.2,1.5,2
		c0,0.9-0.3,1.5-0.9,1.9c-0.6,0.4-1.3,0.6-2,0.6c-0.9,0-1.5-0.1-2-0.3c-0.6-0.1-1.2-0.3-1.5-0.4v-2.5c0-0.3,0-0.6-0.1-0.7
		c-0.1-0.1-0.3-0.1-0.6-0.1h-3.3c-0.3,0-0.4,0-0.4,0.1c-0.1,0.1-0.1,0.3-0.1,0.4v5.7c0.1,0.4,0.6,1,1.6,1.5c1,0.4,2.2,0.9,3.6,1
		c1.3,0.1,2.5,0.4,3.6,0.4c2.6,0,4.7-0.9,6.2-2.3c1.5-1.5,2.2-3.3,2.3-5.7c0-1.5-0.3-2.6-0.9-3.6s-1.5-1.7-2.5-2.5
		c-1.2-0.7-2.5-1.3-3.6-1.7c-1.2-0.4-2.2-0.9-3.1-1.2c-0.9-0.4-1.2-1.2-1.3-2c0-0.9,0.3-1.5,0.9-1.9c0.6-0.4,1.5-0.6,2.3-0.6
		c0.3,0,0.6,0,1,0.1c0.3,0,0.6,0.1,0.9,0.1L242.1,16.8L242.1,16.8z"/>
</g>
</svg>