<?xml version="1.0" encoding="utf-8"?>
<!-- Generator: Adobe Illustrator 23.0.2, SVG Export Plug-In . SVG Version: 6.00 Build 0)  -->
<svg version="1.1" id="Layer_1" xmlns="http://www.w3.org/2000/svg" xmlns:xlink="http://www.w3.org/1999/xlink" x="0px" y="0px"
	 viewBox="0 0 363 55.1" style="enable-background:new 0 0 363 55.1;" xml:space="preserve">
<style type="text/css">
	.st0{fill:#6B6B6B;}
</style>
<g>
	<path class="st0" d="M170,13.2c-9.9-0.8-18.8,6.8-20.2,17.4c-1.3,9.3,2.9,17.7,10.7,21.8c6.9,3.6,16,2.1,21.6-3.6
		c1-1,1.7-2.2,2.3-3.6c-0.6-0.3-1.9-1.1-2.5-1.3c-5.4,5.8-11.8,8.4-19.3,5c-5.2-2.4-8.4-6.6-8.9-13.3c11,0,21.6,0,32.2,0
		c0.2-1.2,0.5-1.8,0.5-2.4C186.6,22.7,179.4,14,170,13.2z M168.3,31.5c-4.6,0-9.3,0-14.3,0c0.6-8.5,7.3-14.6,14.9-14.3
		c7.2,0.2,12.8,5.9,13.1,14.3C177.5,31.5,172.9,31.5,168.3,31.5z"/>
	<ellipse transform="matrix(0.9732 -0.2298 0.2298 0.9732 -6.414 6.4131)" class="st0" cx="24.3" cy="30.8" rx="4.5" ry="4.5"/>
	<ellipse transform="matrix(0.7071 -0.7071 0.7071 0.7071 -33.034 17.7489)" class="st0" cx="4.9" cy="48.8" rx="4.5" ry="4.5"/>
	<ellipse transform="matrix(0.3827 -0.9239 0.9239 0.3827 -15.5547 69.041)" class="st0" cx="43.9" cy="46.2" rx="4.5" ry="4.5"/>
	<circle class="st0" cx="66.5" cy="30.6" r="4.5"/>
	<circle class="st0" cx="67.7" cy="47.6" r="4.5"/>
	<ellipse transform="matrix(0.7071 -0.7071 0.7071 0.7071 77.6804 208.1164)" class="st0" cx="290.1" cy="10.3" rx="4.5" ry="4.5"/>
	<ellipse transform="matrix(0.9871 -0.1602 0.1602 0.9871 -1.6115 47.2071)" class="st0" cx="292" cy="33.6" rx="4.5" ry="4.5"/>
	<ellipse transform="matrix(0.9732 -0.2298 0.2298 0.9732 3.5911 72.9175)" class="st0" cx="314.9" cy="21" rx="4.5" ry="4.5"/>
	<circle class="st0" cx="338.9" cy="21.4" r="4.5"/>
	<ellipse transform="matrix(0.3827 -0.9239 0.9239 0.3827 209.1274 338.7406)" class="st0" cx="358" cy="12.9" rx="4.5" ry="4.5"/>
	<path class="st0" d="M119.2,15.1c-2,1-3.7,2.6-5.8,4.2c-0.1-1.2-0.2-4-0.3-5h-3.9c-0.1,0.5-0.1,2.7-0.1,3.2
		c0.1,9.8,0,24.9,0.1,35.1h3.9c0-5.9-0.1-16.2,0.1-21.5c0.3-8.1,6.3-14,13.5-13.8c7.3,0.1,12,5.6,12.1,14.2
		c0.1,6.1-0.1,15.1,0.1,21.2h3.8c0.1-7,0.5-17-0.1-23.9C141.6,16.3,129.7,9.5,119.2,15.1z"/>
	<path class="st0" d="M205.7,51c-2.4-0.1-5.4-2-5.4-4.8c0-9.2-0.2-19.2-0.2-27.7c1.9-0.1,5.5-0.3,7.3-0.3v-4.5c-1.8,0-5.6,0-7.5-0.1
		c0.2-4.5,0.1-8.3,0.3-12.4c-1.3,0-2.7,0-4,0c0,2.3,0.1,4.7,0,7c-0.1,4.9-2.4,6.1-8,6.1v4.1c2,0,5.1,0,7.2,0c0.1,1.7,0.2,2.8,0.2,4
		c0.1,7.8-0.1,15.7,0.4,23.5c0.4,6.7,7.1,11,16.4,7c0,0-0.2-2.7-0.4-2.9C211.8,50,208,51,205.7,51z"/>
	<path class="st0" d="M246.5,14.3c-8.9-0.1-17.8-0.2-26.7,0v4.1c7.8,0,15.7,0,24.1,0c-6.2,11.3-11.9,21.8-17.7,32.2
		c-1.1,2-2,3.7,0,4.9c0.3,0,1.3,0.4,1.7,0.4c7.3-13.2,14.5-26.4,21.9-39.9C249.6,14.2,247.5,14.3,246.5,14.3z"/>
</g>
</svg>