<?xml version="1.0" encoding="utf-8"?>
<!-- Generator: Adobe Illustrator 16.0.3, SVG Export Plug-In . SVG Version: 6.00 Build 0)  -->
<!DOCTYPE svg PUBLIC "-//W3C//DTD SVG 1.1//EN" "http://www.w3.org/Graphics/SVG/1.1/DTD/svg11.dtd">
<svg version="1.1" id="Layer_1" xmlns="http://www.w3.org/2000/svg" xmlns:xlink="http://www.w3.org/1999/xlink" x="0px" y="0px"
	 width="612px" height="792px" viewBox="0 0 612 792" enable-background="new 0 0 612 792" xml:space="preserve">
<g>
	<rect x="32.634" y="95.493" fill="#6B6B6B" width="68.033" height="76.538"/>
	<polygon fill="#6B6B6B" points="100.667,95.493 66.653,121.007 66.653,206.044 100.667,172.031 	"/>
	<g>
		<path fill="#6B6B6B" d="M119.379,62.591c0-11.016,7.242-18.615,17.748-18.615c9.486,0,15.963,6.834,15.963,16.83
			c0,10.914-7.191,18.462-17.646,18.462C125.907,79.269,119.379,72.485,119.379,62.591z M126.213,61.266
			c0,9.129,4.029,15.198,10.098,15.198c6.12,0,9.945-5.763,9.945-14.994c0-8.874-4.029-14.943-9.945-14.943
			C130.191,46.527,126.213,52.392,126.213,61.266z M128.61,38.724c0-1.887,0.918-2.856,2.754-2.856s2.856,1.02,2.856,2.856
			c0,1.734-1.02,2.754-2.805,2.754C129.579,41.478,128.61,40.509,128.61,38.724z M138.249,38.673c0-1.785,1.02-2.805,2.907-2.805
			c1.683,0,2.703,1.02,2.703,2.754c0,1.836-1.02,2.856-2.805,2.856C139.218,41.478,138.249,40.509,138.249,38.673z"/>
		<path fill="#6B6B6B" d="M157.374,77.636v-5.967h3.417l2.397,4.794c0.612,0.051,0.867,0.051,1.122,0.051
			c3.06,0,4.743-1.224,4.743-3.519c0-1.632-0.408-2.142-3.009-3.672l-4.233-2.55c-3.264-1.938-4.437-3.621-4.437-6.375
			c0-4.029,3.468-7.038,8.211-7.038c0.714,0,1.887,0.102,3.06,0.255c0.969,0.102,1.734,0.255,2.295,0.357l2.091,0.459l0.561,0.102
			v5.457h-3.366l-2.244-4.284c-0.255-0.051-0.357-0.051-0.561-0.051c-2.907,0-4.488,1.071-4.488,3.111
			c0,1.479,0.561,2.142,2.805,3.417l4.488,2.499c2.754,1.581,4.131,3.774,4.131,6.63c0,4.539-3.672,7.701-8.874,7.701
			c-1.275,0-2.805-0.204-5.049-0.714l-2.295-0.51L157.374,77.636z"/>
		<path fill="#6B6B6B" d="M180.884,56.166h-3.825v-1.734l0.561-0.204c4.182-1.428,4.488-1.632,6.12-4.233
			c0.714-1.122,1.02-1.632,1.479-2.703h1.989v6.324h7.854v2.55h-7.854v15.198c0,3.417,1.02,4.437,4.539,4.437
			c0.561,0,1.071,0,1.53-0.102l1.377-0.204l0.408-0.051l0.459,1.989l-0.561,0.153l-2.652,0.663
			c-1.836,0.459-3.927,0.714-5.406,0.714c-4.131,0-6.018-1.938-6.018-6.12V56.166z"/>
		<path fill="#6B6B6B" d="M218.868,65.549h-15.912c0,6.375,3.519,10.149,9.384,10.149c1.479,0,3.417-0.255,5.763-0.765l0.357,1.887
			c-4.131,1.428-7.701,2.193-10.149,2.193c-7.191,0-11.781-4.743-11.781-12.24c0-7.701,5.1-13.413,11.985-13.413
			c4.335,0,7.242,1.428,8.772,4.335C218.46,59.889,218.766,61.418,218.868,65.549z M212.136,62.949
			c-0.102-5.406-1.275-7.548-4.233-7.548c-3.162,0-4.896,2.907-4.896,8.415L212.136,62.949z"/>
		<path fill="#6B6B6B" d="M232.229,57.594v17.697l5.355,1.785v1.428h-15.759v-1.428l4.335-1.785V57.594l-4.335-1.326v-1.377
			l10.404-1.836v3.162l0.561-0.306c3.927-2.142,5.61-2.805,7.191-2.805c0.969,0,1.989,0.306,3.162,0.918v6.222h-5.202l-1.377-3.213
			c-0.51-0.051-0.918-0.102-1.173-0.102C234.626,56.931,233.301,57.236,232.229,57.594z"/>
		<path fill="#6B6B6B" d="M255.632,57.594v17.697l5.355,1.785v1.428h-15.759v-1.428l4.335-1.785V57.594l-4.335-1.326v-1.377
			l10.404-1.836v3.162l0.561-0.306c3.927-2.142,5.61-2.805,7.191-2.805c0.969,0,1.989,0.306,3.162,0.918v6.222h-5.202l-1.377-3.213
			c-0.51-0.051-0.918-0.102-1.173-0.102C258.029,56.931,256.703,57.236,255.632,57.594z"/>
		<path fill="#6B6B6B" d="M289.903,65.549h-15.912c0,6.375,3.519,10.149,9.384,10.149c1.479,0,3.417-0.255,5.763-0.765l0.357,1.887
			c-4.131,1.428-7.701,2.193-10.149,2.193c-7.191,0-11.781-4.743-11.781-12.24c0-7.701,5.1-13.413,11.985-13.413
			c4.335,0,7.242,1.428,8.772,4.335C289.495,59.889,289.801,61.418,289.903,65.549z M283.171,62.949
			c-0.102-5.406-1.275-7.548-4.233-7.548c-3.162,0-4.896,2.907-4.896,8.415L283.171,62.949z"/>
		<path fill="#6B6B6B" d="M297.196,75.291V57.594l-4.335-1.275v-1.377l10.659-1.887v22.236l4.335,1.785v1.428h-14.994v-1.428
			L297.196,75.291z M296.431,46.017c0-1.887,1.173-2.805,3.672-2.805c2.754,0,3.927,0.816,3.927,2.703
			c0,2.04-1.071,2.907-3.723,2.907C297.502,48.822,296.431,48.057,296.431,46.017z"/>
		<path fill="#6B6B6B" d="M330.906,54.482v5.763h-4.283l-2.347-4.692c-0.204,0-0.306,0-0.407,0c-4.438,0-7.701,4.233-7.701,9.996
			c0,6.528,3.468,10.149,9.639,10.149c1.326,0,2.499-0.153,4.335-0.51l0.562-0.153l0.356,1.989
			c-4.386,1.377-7.395,1.938-9.792,1.938c-6.885,0-11.679-4.947-11.679-12.087c0-8.109,5.61-13.515,13.974-13.515
			C325.756,53.36,327.948,53.718,330.906,54.482z"/>
		<path fill="#6B6B6B" d="M343.651,57.44v17.85l3.773,1.785v1.428h-14.178v-1.428l4.284-1.785V47.139l-4.539-1.224v-1.428
			l10.659-2.04v13.464l0.561-0.204c4.029-1.581,6.783-2.346,8.466-2.346c1.785,0,3.57,0.816,4.641,2.142
			c1.378,1.632,1.785,3.162,1.785,6.324v13.464l4.335,1.785v1.428h-13.974v-1.428l3.57-1.785V63.306c0-4.59-1.479-6.375-5.202-6.375
			C346.405,56.931,344.62,57.135,343.651,57.44z"/>
		<path fill="#6B6B6B" d="M369.66,75.291V57.594l-4.335-1.275v-1.377l10.659-1.887v22.236l4.335,1.785v1.428h-14.994v-1.428
			L369.66,75.291z M368.896,46.017c0-1.887,1.173-2.805,3.672-2.805c2.754,0,3.927,0.816,3.927,2.703
			c0,2.04-1.071,2.907-3.723,2.907C369.966,48.822,368.896,48.057,368.896,46.017z"/>
		<path fill="#6B6B6B" d="M383.532,77.636v-5.967h3.417l2.396,4.794c0.612,0.051,0.867,0.051,1.122,0.051
			c3.061,0,4.743-1.224,4.743-3.519c0-1.632-0.408-2.142-3.009-3.672l-4.233-2.55c-3.264-1.938-4.437-3.621-4.437-6.375
			c0-4.029,3.468-7.038,8.211-7.038c0.714,0,1.887,0.102,3.06,0.255c0.969,0.102,1.734,0.255,2.295,0.357l2.091,0.459l0.562,0.102
			v5.457h-3.366l-2.244-4.284c-0.255-0.051-0.356-0.051-0.561-0.051c-2.907,0-4.488,1.071-4.488,3.111
			c0,1.479,0.562,2.142,2.805,3.417l4.488,2.499c2.754,1.581,4.131,3.774,4.131,6.63c0,4.539-3.672,7.701-8.874,7.701
			c-1.274,0-2.805-0.204-5.049-0.714l-2.295-0.51L383.532,77.636z"/>
		<path fill="#6B6B6B" d="M426.27,54.482v5.763h-4.284l-2.346-4.692c-0.204,0-0.307,0-0.408,0c-4.437,0-7.701,4.233-7.701,9.996
			c0,6.528,3.468,10.149,9.639,10.149c1.326,0,2.499-0.153,4.335-0.51l0.562-0.153l0.356,1.989
			c-4.386,1.377-7.395,1.938-9.791,1.938c-6.886,0-11.68-4.947-11.68-12.087c0-8.109,5.61-13.515,13.975-13.515
			C421.118,53.36,423.312,53.718,426.27,54.482z"/>
		<path fill="#6B6B6B" d="M439.014,57.44v17.85l3.773,1.785v1.428h-14.178v-1.428l4.284-1.785V47.139l-4.539-1.224v-1.428
			l10.659-2.04v13.464l0.561-0.204c4.029-1.581,6.783-2.346,8.467-2.346c1.784,0,3.569,0.816,4.641,2.142
			c1.377,1.632,1.785,3.162,1.785,6.324v13.464l4.335,1.785v1.428h-13.975v-1.428l3.57-1.785V63.306c0-4.59-1.479-6.375-5.202-6.375
			C441.768,56.931,439.982,57.135,439.014,57.44z"/>
		<path fill="#6B6B6B" d="M482.771,65.549h-15.911c0,6.375,3.519,10.149,9.384,10.149c1.479,0,3.417-0.255,5.763-0.765l0.357,1.887
			c-4.132,1.428-7.701,2.193-10.149,2.193c-7.19,0-11.781-4.743-11.781-12.24c0-7.701,5.101-13.413,11.985-13.413
			c4.335,0,7.242,1.428,8.771,4.335C482.363,59.889,482.669,61.418,482.771,65.549z M476.039,62.949
			c-0.103-5.406-1.275-7.548-4.233-7.548c-3.162,0-4.896,2.907-4.896,8.415L476.039,62.949z"/>
	</g>
	<g>
		<path fill="#6B6B6B" d="M126.494,102.902v23.409l4.08,1.785v1.428h-11.679v-1.428l4.284-1.785V98.721l-4.284-1.785v-1.428h9.996
			l17.391,23V98.721l-4.029-1.785v-1.428h11.628v1.428l-4.284,1.785v31.313h-2.601L126.494,102.902z"/>
		<path fill="#6B6B6B" d="M164.641,106.575l-2.346,4.692h-4.539v-4.896c4.437-1.326,7.752-1.989,10.2-1.989
			c2.244,0,3.927,0.357,5.304,1.122c1.938,1.122,2.499,2.193,2.499,5.049v13.566v0.816c0,0.561,0.51,0.969,1.632,1.275l2.703,0.663
			v1.428l-0.51,0.153l-2.244,0.663c-1.173,0.357-1.938,0.561-2.244,0.612c-0.714,0.204-1.428,0.306-2.142,0.306
			c-1.683,0-2.499-0.714-3.111-2.754c-2.907,1.734-5.61,2.754-7.446,2.754c-3.876,0-6.681-2.703-6.681-6.375
			c0-3.111,1.683-5.202,4.845-6.018c2.244-0.561,4.947-0.969,9.129-1.326v-5.967c0-2.856-0.918-3.876-3.519-3.876
			c-0.204,0-0.408,0-1.173,0.051C164.896,106.523,164.794,106.575,164.641,106.575z M169.69,117.999l-0.663,0.102l-2.295,0.51
			c-3.723,0.765-4.692,1.632-4.692,3.978c0,2.397,1.683,3.876,4.284,3.876c1.02,0,2.193-0.204,3.366-0.561V117.999z"/>
		<path fill="#6B6B6B" d="M185.092,107.187h-3.825v-1.734l0.561-0.204c4.182-1.428,4.488-1.632,6.12-4.233
			c0.714-1.122,1.02-1.632,1.479-2.703h1.989v6.324h7.854v2.55h-7.854v15.198c0,3.417,1.02,4.437,4.539,4.437
			c0.561,0,1.071,0,1.53-0.102l1.377-0.204l0.408-0.051l0.459,1.989l-0.561,0.153l-2.652,0.663
			c-1.836,0.459-3.927,0.714-5.406,0.714c-4.131,0-6.018-1.938-6.018-6.12V107.187z"/>
		<path fill="#6B6B6B" d="M206.256,126.312v-17.697l-4.335-1.275v-1.377l10.659-1.887v22.236l4.335,1.785v1.428h-14.994v-1.428
			L206.256,126.312z M205.491,97.038c0-1.887,1.173-2.805,3.672-2.805c2.754,0,3.927,0.816,3.927,2.703
			c0,2.04-1.071,2.907-3.723,2.907C206.562,99.843,205.491,99.078,205.491,97.038z"/>
		<path fill="#6B6B6B" d="M218.649,117.846c0-8.058,5.355-13.464,13.311-13.464c7.752,0,12.801,4.947,12.801,12.546
			c0,7.956-5.355,13.362-13.311,13.362C223.749,130.29,218.649,125.292,218.649,117.846z M225.483,116.774
			c0,6.885,2.346,10.965,6.273,10.965c3.927,0,6.171-3.672,6.171-9.996c0-6.834-2.397-11.067-6.273-11.067
			S225.483,110.399,225.483,116.774z"/>
		<path fill="#6B6B6B" d="M257.714,108.615v17.697l3.825,1.785v1.428h-14.229v-1.428l4.335-1.785v-17.697l-4.335-1.224v-1.377
			l10.404-1.887v2.856l0.51-0.204l2.499-0.918c1.479-0.561,2.448-0.918,2.856-1.02c0.816-0.255,1.785-0.408,2.907-0.408
			c2.193,0,3.57,0.663,4.794,2.142c1.326,1.683,1.683,2.958,1.683,6.375v13.362l4.284,1.785v1.428H263.58v-1.428l3.264-1.785V114.53
			c0-4.896-1.173-6.324-5.1-6.324C260.265,108.207,259.449,108.309,257.714,108.615z"/>
		<path fill="#6B6B6B" d="M288.62,106.575l-2.346,4.692h-4.539v-4.896c4.437-1.326,7.752-1.989,10.2-1.989
			c2.244,0,3.927,0.357,5.304,1.122c1.938,1.122,2.499,2.193,2.499,5.049v13.566v0.816c0,0.561,0.51,0.969,1.632,1.275l2.703,0.663
			v1.428l-0.51,0.153l-2.244,0.663c-1.173,0.357-1.938,0.561-2.244,0.612c-0.714,0.204-1.428,0.306-2.142,0.306
			c-1.683,0-2.499-0.714-3.111-2.754c-2.907,1.734-5.61,2.754-7.446,2.754c-3.876,0-6.681-2.703-6.681-6.375
			c0-3.111,1.683-5.202,4.845-6.018c2.244-0.561,4.947-0.969,9.129-1.326v-5.967c0-2.856-0.918-3.876-3.519-3.876
			c-0.204,0-0.408,0-1.173,0.051C288.875,106.523,288.773,106.575,288.62,106.575z M293.669,117.999l-0.663,0.102l-2.295,0.51
			c-3.723,0.765-4.692,1.632-4.692,3.978c0,2.397,1.683,3.876,4.284,3.876c1.02,0,2.193-0.204,3.366-0.561V117.999z"/>
		<path fill="#6B6B6B" d="M310.142,126.312V98.16l-4.539-1.224v-1.428l10.659-2.04v32.844l4.539,1.785v1.428h-14.943v-1.428
			L310.142,126.312z"/>
		<path fill="#6B6B6B" d="M325.951,128.811V98.16l-4.539-1.224v-1.428l10.659-2.04v13.719l0.459-0.255l2.601-1.326
			c2.143-0.969,3.876-1.479,5.253-1.479c5.202,0,9.181,5.049,9.181,11.628c0,8.313-6.069,14.229-14.638,14.229
			c-1.325,0-3.672-0.255-5.763-0.612l-2.601-0.459L325.951,128.811z M332.071,127.178c0.867,0.255,1.224,0.306,2.192,0.306
			c5.305,0,8.67-3.876,8.67-9.996c0-5.814-2.957-9.537-7.649-9.537c-1.173,0-2.346,0.204-3.213,0.561V127.178z"/>
		<path fill="#6B6B6B" d="M357.111,126.312v-17.697l-4.335-1.275v-1.377l10.659-1.887v22.236l4.335,1.785v1.428h-14.994v-1.428
			L357.111,126.312z M356.347,97.038c0-1.887,1.173-2.805,3.672-2.805c2.754,0,3.927,0.816,3.927,2.703
			c0,2.04-1.07,2.907-3.723,2.907C357.418,99.843,356.347,99.078,356.347,97.038z"/>
		<path fill="#6B6B6B" d="M371.596,128.811V98.16l-4.539-1.224v-1.428l10.659-2.04v13.719l0.459-0.255l2.601-1.326
			c2.142-0.969,3.876-1.479,5.253-1.479c5.202,0,9.18,5.049,9.18,11.628c0,8.313-6.068,14.229-14.637,14.229
			c-1.326,0-3.672-0.255-5.763-0.612l-2.602-0.459L371.596,128.811z M377.716,127.178c0.866,0.255,1.224,0.306,2.192,0.306
			c5.304,0,8.67-3.876,8.67-9.996c0-5.814-2.958-9.537-7.649-9.537c-1.173,0-2.347,0.204-3.213,0.561V127.178z"/>
		<path fill="#6B6B6B" d="M402.501,126.312V98.16l-4.539-1.224v-1.428l10.659-2.04v32.844l4.539,1.785v1.428h-14.943v-1.428
			L402.501,126.312z"/>
		<path fill="#6B6B6B" d="M419.535,126.312v-17.697l-4.335-1.275v-1.377l10.658-1.887v22.236l4.335,1.785v1.428H415.2v-1.428
			L419.535,126.312z M418.77,97.038c0-1.887,1.173-2.805,3.672-2.805c2.754,0,3.928,0.816,3.928,2.703
			c0,2.04-1.071,2.907-3.724,2.907C419.841,99.843,418.77,99.078,418.77,97.038z"/>
		<path fill="#6B6B6B" d="M431.928,117.846c0-8.058,5.354-13.464,13.311-13.464c7.752,0,12.801,4.947,12.801,12.546
			c0,7.956-5.354,13.362-13.311,13.362C437.027,130.29,431.928,125.292,431.928,117.846z M438.762,116.774
			c0,6.885,2.346,10.965,6.272,10.965s6.171-3.672,6.171-9.996c0-6.834-2.396-11.067-6.272-11.067S438.762,110.399,438.762,116.774z
			"/>
		<path fill="#6B6B6B" d="M463.445,107.187h-3.825v-1.734l0.562-0.204c4.182-1.428,4.487-1.632,6.119-4.233
			c0.715-1.122,1.021-1.632,1.479-2.703h1.989v6.324h7.854v2.55h-7.854v15.198c0,3.417,1.02,4.437,4.539,4.437
			c0.561,0,1.07,0,1.529-0.102l1.377-0.204l0.408-0.051l0.459,1.989l-0.561,0.153l-2.652,0.663
			c-1.836,0.459-3.927,0.714-5.406,0.714c-4.131,0-6.018-1.938-6.018-6.12V107.187z"/>
		<path fill="#6B6B6B" d="M490.22,108.461v17.85l3.773,1.785v1.428h-14.178v-1.428l4.284-1.785V98.16l-4.539-1.224v-1.428
			l10.659-2.04v13.464l0.561-0.204c4.029-1.581,6.783-2.346,8.466-2.346c1.785,0,3.57,0.816,4.642,2.142
			c1.377,1.632,1.785,3.162,1.785,6.324v13.464l4.335,1.785v1.428h-13.975v-1.428l3.57-1.785v-11.985
			c0-4.59-1.479-6.375-5.202-6.375C492.974,107.952,491.188,108.156,490.22,108.461z"/>
		<path fill="#6B6B6B" d="M533.977,116.57h-15.912c0,6.375,3.52,10.149,9.385,10.149c1.479,0,3.417-0.255,5.763-0.765l0.356,1.887
			c-4.131,1.428-7.7,2.193-10.148,2.193c-7.191,0-11.781-4.743-11.781-12.24c0-7.701,5.101-13.413,11.985-13.413
			c4.335,0,7.242,1.428,8.771,4.335C533.568,110.91,533.875,112.439,533.977,116.57z M527.245,113.97
			c-0.103-5.406-1.275-7.548-4.233-7.548c-3.162,0-4.896,2.907-4.896,8.415L527.245,113.97z"/>
		<path fill="#6B6B6B" d="M540.76,126.312V98.16l-4.539-1.224v-1.428l10.914-2.04v32.844l3.519,1.785v1.428h-14.178v-1.428
			L540.76,126.312z M547.746,116.009l8.008-8.517l-3.315-1.428v-1.428h12.699v1.428l-5.05,1.734l-6.731,5.814l8.874,13.056
			l3.672,1.428v1.428h-9.384L547.746,116.009z"/>
	</g>
</g>
</svg>
