<?xml version="1.0" encoding="utf-8"?>
<!-- Generator: Adobe Illustrator 16.0.3, SVG Export Plug-In . SVG Version: 6.00 Build 0)  -->
<!DOCTYPE svg PUBLIC "-//W3C//DTD SVG 1.1//EN" "http://www.w3.org/Graphics/SVG/1.1/DTD/svg11.dtd">
<svg version="1.1" id="Layer_1" xmlns="http://www.w3.org/2000/svg" xmlns:xlink="http://www.w3.org/1999/xlink" x="0px" y="0px"
	 width="612px" height="225px" viewBox="0 0 612 225" enable-background="new 0 0 612 225" xml:space="preserve">
<g>
	<rect x="0.634" y="94.576" fill="#6B6B6B" width="77.856" height="88.47"/>
	<polygon fill="#6B6B6B" points="78.49,94.576 39.565,124.068 39.565,222.362 78.49,183.046 	"/>
	<g>
		<path fill="#6B6B6B" d="M99.905,56.545c0-12.732,8.287-21.516,20.31-21.516c10.855,0,18.268,7.899,18.268,19.453
			c0,12.615-8.229,21.34-20.194,21.34C107.375,75.823,99.905,67.982,99.905,56.545z M107.725,55.014
			c0,10.552,4.61,17.566,11.555,17.566c7.004,0,11.382-6.661,11.382-17.331c0-10.257-4.611-17.272-11.382-17.272
			C112.277,37.977,107.725,44.756,107.725,55.014z M110.468,28.957c0-2.18,1.051-3.301,3.151-3.301c2.102,0,3.269,1.179,3.269,3.301
			c0,2.004-1.167,3.184-3.209,3.184C111.577,32.141,110.468,31.021,110.468,28.957z M121.498,28.898
			c0-2.063,1.167-3.243,3.328-3.243c1.926,0,3.093,1.179,3.093,3.184c0,2.122-1.167,3.301-3.21,3.301
			C122.608,32.141,121.498,31.021,121.498,28.898z"/>
		<path fill="#6B6B6B" d="M143.385,73.936v-6.897h3.91l2.743,5.541c0.7,0.059,0.992,0.059,1.284,0.059
			c3.502,0,5.428-1.415,5.428-4.067c0-1.887-0.466-2.476-3.443-4.245l-4.844-2.948c-3.736-2.24-5.078-4.186-5.078-7.369
			c0-4.657,3.968-8.135,9.396-8.135c0.817,0,2.16,0.117,3.502,0.295c1.108,0.118,1.984,0.295,2.626,0.413l2.392,0.53l0.642,0.118
			v6.308h-3.852l-2.568-4.952c-0.292-0.059-0.408-0.059-0.642-0.059c-3.327,0-5.136,1.238-5.136,3.596
			c0,1.709,0.642,2.476,3.209,3.95l5.136,2.889c3.152,1.828,4.727,4.362,4.727,7.664c0,5.247-4.202,8.9-10.155,8.9
			c-1.458,0-3.209-0.234-5.777-0.824l-2.626-0.589L143.385,73.936z"/>
		<path fill="#6B6B6B" d="M170.29,49.118h-4.377v-2.004l0.642-0.236c4.786-1.65,5.136-1.886,7.003-4.893
			c0.817-1.297,1.167-1.886,1.693-3.125h2.275v7.311h8.989v2.947h-8.989v17.566c0,3.95,1.167,5.129,5.195,5.129
			c0.642,0,1.226,0,1.75-0.119l1.576-0.235l0.468-0.06l0.525,2.299l-0.642,0.177l-3.035,0.767c-2.102,0.53-4.494,0.825-6.187,0.825
			c-4.728,0-6.887-2.24-6.887-7.074V49.118z"/>
		<path fill="#6B6B6B" d="M213.759,59.964H195.55c0,7.369,4.026,11.731,10.738,11.731c1.692,0,3.91-0.294,6.595-0.883l0.409,2.181
			c-4.728,1.651-8.813,2.534-11.614,2.534c-8.229,0-13.482-5.481-13.482-14.147c0-8.901,5.836-15.503,13.715-15.503
			c4.961,0,8.287,1.65,10.039,5.011C213.292,53.421,213.643,55.189,213.759,59.964z M206.055,56.958
			c-0.117-6.249-1.459-8.725-4.844-8.725c-3.618,0-5.603,3.36-5.603,9.727L206.055,56.958z"/>
		<path fill="#6B6B6B" d="M229.049,50.769v20.456l6.128,2.063v1.651h-18.034v-1.651l4.96-2.063V50.769l-4.96-1.533v-1.591
			l11.906-2.123v3.655l0.642-0.354c4.495-2.476,6.42-3.242,8.229-3.242c1.109,0,2.276,0.354,3.619,1.061v7.192h-5.954l-1.576-3.713
			c-0.583-0.06-1.05-0.118-1.342-0.118C231.793,50.003,230.275,50.355,229.049,50.769z"/>
		<path fill="#6B6B6B" d="M255.831,50.769v20.456l6.128,2.063v1.651h-18.034v-1.651l4.96-2.063V50.769l-4.96-1.533v-1.591
			l11.906-2.123v3.655l0.642-0.354c4.494-2.476,6.421-3.242,8.229-3.242c1.109,0,2.276,0.354,3.619,1.061v7.192h-5.953l-1.576-3.713
			c-0.584-0.06-1.051-0.118-1.343-0.118C258.574,50.003,257.056,50.355,255.831,50.769z"/>
		<path fill="#6B6B6B" d="M295.051,59.964h-18.21c0,7.369,4.027,11.731,10.739,11.731c1.692,0,3.911-0.294,6.595-0.883l0.408,2.181
			c-4.728,1.651-8.813,2.534-11.614,2.534c-8.229,0-13.482-5.481-13.482-14.147c0-8.901,5.836-15.503,13.715-15.503
			c4.96,0,8.289,1.65,10.039,5.011C294.584,53.421,294.935,55.189,295.051,59.964z M287.348,56.958
			c-0.117-6.249-1.459-8.725-4.845-8.725c-3.619,0-5.603,3.36-5.603,9.727L287.348,56.958z"/>
		<path fill="#6B6B6B" d="M303.397,71.225V50.769l-4.961-1.474v-1.592l12.198-2.181v25.703l4.962,2.063v1.651h-17.16v-1.651
			L303.397,71.225z M302.521,37.387c0-2.181,1.342-3.242,4.201-3.242c3.151,0,4.496,0.943,4.496,3.125
			c0,2.358-1.227,3.36-4.262,3.36C303.747,40.629,302.521,39.745,302.521,37.387z"/>
		<path fill="#6B6B6B" d="M341.975,47.173v6.661h-4.902l-2.685-5.423c-0.234,0-0.35,0-0.467,0c-5.078,0-8.813,4.893-8.813,11.554
			c0,7.546,3.969,11.731,11.03,11.731c1.518,0,2.859-0.177,4.961-0.589l0.643-0.176l0.407,2.299
			c-5.019,1.592-8.462,2.24-11.205,2.24c-7.879,0-13.365-5.718-13.365-13.971c0-9.373,6.42-15.622,15.991-15.622
			C336.08,45.876,338.589,46.289,341.975,47.173z"/>
		<path fill="#6B6B6B" d="M356.56,50.592v20.633l4.319,2.063v1.651h-16.226v-1.651l4.903-2.063V38.684l-5.195-1.415v-1.65
			l12.198-2.358v15.563l0.643-0.236c4.61-1.827,7.763-2.711,9.688-2.711c2.043,0,4.086,0.943,5.312,2.475
			c1.577,1.887,2.042,3.655,2.042,7.31v15.563l4.961,2.063v1.651h-15.991v-1.651l4.086-2.063V57.371
			c0-5.306-1.693-7.368-5.954-7.368C359.711,50.003,357.669,50.238,356.56,50.592z"/>
		<path fill="#6B6B6B" d="M386.324,71.225V50.769l-4.961-1.474v-1.592l12.198-2.181v25.703l4.961,2.063v1.651h-17.159v-1.651
			L386.324,71.225z M385.449,37.387c0-2.181,1.342-3.242,4.202-3.242c3.151,0,4.493,0.943,4.493,3.125
			c0,2.358-1.226,3.36-4.259,3.36C386.674,40.629,385.449,39.745,385.449,37.387z"/>
		<path fill="#6B6B6B" d="M402.2,73.936v-6.897h3.91l2.742,5.541c0.701,0.059,0.991,0.059,1.284,0.059
			c3.502,0,5.427-1.415,5.427-4.067c0-1.887-0.466-2.476-3.441-4.245l-4.846-2.948c-3.734-2.24-5.076-4.186-5.076-7.369
			c0-4.657,3.968-8.135,9.395-8.135c0.817,0,2.159,0.117,3.503,0.295c1.108,0.118,1.984,0.295,2.625,0.413l2.394,0.53l0.643,0.118
			v6.308h-3.852l-2.569-4.952c-0.291-0.059-0.406-0.059-0.641-0.059c-3.327,0-5.137,1.238-5.137,3.596
			c0,1.709,0.643,2.476,3.21,3.95l5.137,2.889c3.151,1.828,4.727,4.362,4.727,7.664c0,5.247-4.201,8.9-10.155,8.9
			c-1.458,0-3.209-0.234-5.777-0.824l-2.627-0.589L402.2,73.936z"/>
		<path fill="#6B6B6B" d="M451.107,47.173v6.661h-4.902l-2.684-5.423c-0.234,0-0.352,0-0.469,0c-5.076,0-8.813,4.893-8.813,11.554
			c0,7.546,3.969,11.731,11.032,11.731c1.517,0,2.858-0.177,4.96-0.589l0.643-0.176l0.408,2.299
			c-5.019,1.592-8.463,2.24-11.205,2.24c-7.879,0-13.366-5.718-13.366-13.971c0-9.373,6.421-15.622,15.993-15.622
			C445.212,45.876,447.722,46.289,451.107,47.173z"/>
		<path fill="#6B6B6B" d="M465.691,50.592v20.633l4.318,2.063v1.651h-16.224v-1.651l4.901-2.063V38.684l-5.194-1.415v-1.65
			l12.198-2.358v15.563l0.642-0.236c4.612-1.827,7.763-2.711,9.69-2.711c2.041,0,4.084,0.943,5.31,2.475
			c1.575,1.887,2.044,3.655,2.044,7.31v15.563l4.96,2.063v1.651h-15.993v-1.651l4.087-2.063V57.371c0-5.306-1.692-7.368-5.953-7.368
			C468.843,50.003,466.801,50.238,465.691,50.592z"/>
		<path fill="#6B6B6B" d="M515.768,59.964h-18.209c0,7.369,4.025,11.731,10.738,11.731c1.691,0,3.911-0.294,6.595-0.883l0.409,2.181
			c-4.729,1.651-8.813,2.534-11.614,2.534c-8.229,0-13.482-5.481-13.482-14.147c0-8.901,5.837-15.503,13.716-15.503
			c4.961,0,8.288,1.65,10.038,5.011C515.301,53.421,515.65,55.189,515.768,59.964z M508.063,56.958
			c-0.117-6.249-1.459-8.725-4.845-8.725c-3.619,0-5.603,3.36-5.603,9.727L508.063,56.958z"/>
	</g>
	<g>
		<path fill="#6B6B6B" d="M108.046,103.141v27.059l4.669,2.063v1.65H99.351v-1.65l4.902-2.063V98.307l-4.902-2.063v-1.65h11.438
			l19.903,26.586V98.307l-4.611-2.063v-1.65h13.307v1.65l-4.903,2.063v36.196h-2.977L108.046,103.141z"/>
		<path fill="#6B6B6B" d="M151.702,107.386l-2.685,5.423h-5.195v-5.658c5.078-1.533,8.872-2.3,11.673-2.3
			c2.568,0,4.495,0.413,6.07,1.297c2.218,1.297,2.86,2.535,2.86,5.837v15.68v0.943c0,0.648,0.583,1.12,1.868,1.474l3.093,0.766v1.65
			l-0.584,0.177l-2.567,0.767c-1.344,0.413-2.218,0.648-2.568,0.708c-0.817,0.236-1.635,0.354-2.452,0.354
			c-1.926,0-2.86-0.825-3.561-3.184c-3.326,2.005-6.419,3.184-8.521,3.184c-4.436,0-7.646-3.124-7.646-7.369
			c0-3.596,1.927-6.013,5.544-6.956c2.568-0.648,5.662-1.12,10.447-1.533v-6.897c0-3.302-1.05-4.48-4.026-4.48
			c-0.233,0-0.467,0-1.343,0.058C151.994,107.326,151.877,107.386,151.702,107.386z M157.479,120.59l-0.758,0.118l-2.626,0.589
			c-4.26,0.884-5.37,1.886-5.37,4.598c0,2.77,1.926,4.48,4.903,4.48c1.167,0,2.509-0.236,3.851-0.648V120.59z"/>
		<path fill="#6B6B6B" d="M175.105,108.093h-4.377v-2.004l0.642-0.235c4.786-1.65,5.136-1.887,7.004-4.893
			c0.817-1.297,1.167-1.886,1.693-3.125h2.275v7.311h8.988v2.947h-8.988v17.567c0,3.95,1.167,5.128,5.194,5.128
			c0.642,0,1.226,0,1.751-0.118l1.576-0.235l0.466-0.059l0.525,2.299l-0.643,0.177l-3.035,0.767
			c-2.101,0.53-4.494,0.825-6.186,0.825c-4.728,0-6.888-2.241-6.888-7.075V108.093z"/>
		<path fill="#6B6B6B" d="M199.326,130.199v-20.456l-4.96-1.474v-1.592l12.198-2.18v25.702l4.961,2.063v1.65h-17.159v-1.65
			L199.326,130.199z M198.45,96.362c0-2.181,1.342-3.243,4.203-3.243c3.151,0,4.494,0.944,4.494,3.125c0,2.358-1.226,3.36-4.26,3.36
			C199.676,99.604,198.45,98.72,198.45,96.362z"/>
		<path fill="#6B6B6B" d="M213.508,120.414c0-9.314,6.128-15.563,15.233-15.563c8.872,0,14.649,5.718,14.649,14.502
			c0,9.196-6.128,15.445-15.233,15.445C219.345,134.797,213.508,129.021,213.508,120.414z M221.329,119.175
			c0,7.958,2.685,12.675,7.179,12.675c4.494,0,7.062-4.245,7.062-11.555c0-7.899-2.743-12.792-7.178-12.792
			C223.955,107.503,221.329,111.807,221.329,119.175z"/>
		<path fill="#6B6B6B" d="M258.214,109.743v20.456l4.377,2.063v1.65h-16.283v-1.65l4.96-2.063v-20.456l-4.96-1.414v-1.592
			l11.906-2.182v3.301l0.584-0.236l2.86-1.061c1.692-0.648,2.801-1.062,3.268-1.178c0.934-0.296,2.043-0.473,3.327-0.473
			c2.51,0,4.086,0.767,5.486,2.477c1.517,1.945,1.926,3.419,1.926,7.369v15.445l4.903,2.063v1.65h-15.642v-1.65l3.736-2.063v-13.618
			c0-5.659-1.343-7.31-5.837-7.31C261.133,109.272,260.199,109.39,258.214,109.743z"/>
		<path fill="#6B6B6B" d="M293.582,107.386l-2.684,5.423h-5.195v-5.658c5.078-1.533,8.872-2.3,11.674-2.3
			c2.567,0,4.492,0.413,6.068,1.297c2.218,1.297,2.861,2.535,2.861,5.837v15.68v0.943c0,0.648,0.583,1.12,1.867,1.474l3.093,0.766
			v1.65l-0.583,0.177l-2.567,0.767c-1.343,0.413-2.218,0.648-2.568,0.708c-0.817,0.236-1.634,0.354-2.451,0.354
			c-1.926,0-2.86-0.825-3.561-3.184c-3.327,2.005-6.42,3.184-8.52,3.184c-4.437,0-7.646-3.124-7.646-7.369
			c0-3.596,1.925-6.013,5.544-6.956c2.568-0.648,5.662-1.12,10.448-1.533v-6.897c0-3.302-1.051-4.48-4.028-4.48
			c-0.234,0-0.467,0-1.342,0.058C293.875,107.326,293.757,107.386,293.582,107.386z M299.361,120.59l-0.759,0.118l-2.626,0.589
			c-4.26,0.884-5.369,1.886-5.369,4.598c0,2.77,1.925,4.48,4.902,4.48c1.167,0,2.509-0.236,3.853-0.648V120.59z"/>
		<path fill="#6B6B6B" d="M318.211,130.199v-32.54l-5.193-1.416v-1.65l12.197-2.358v37.964l5.195,2.063v1.65h-17.102v-1.65
			L318.211,130.199z"/>
		<path fill="#6B6B6B" d="M336.304,133.088V97.659l-5.194-1.416v-1.65l12.198-2.358v15.857l0.525-0.294l2.977-1.533
			c2.451-1.12,4.436-1.71,6.011-1.71c5.953,0,10.507,5.836,10.507,13.441c0,9.609-6.946,16.447-16.751,16.447
			c-1.517,0-4.203-0.295-6.595-0.708l-2.977-0.53L336.304,133.088z M343.308,131.201c0.992,0.295,1.4,0.354,2.509,0.354
			c6.07,0,9.922-4.48,9.922-11.555c0-6.721-3.385-11.023-8.753-11.023c-1.343,0-2.686,0.236-3.678,0.648V131.201z"/>
		<path fill="#6B6B6B" d="M371.963,130.199v-20.456l-4.96-1.474v-1.592l12.197-2.18v25.702l4.961,2.063v1.65h-17.158v-1.65
			L371.963,130.199z M371.088,96.362c0-2.181,1.342-3.243,4.202-3.243c3.151,0,4.493,0.944,4.493,3.125
			c0,2.358-1.223,3.36-4.259,3.36C372.314,99.604,371.088,98.72,371.088,96.362z"/>
		<path fill="#6B6B6B" d="M388.538,133.088V97.659l-5.194-1.416v-1.65l12.199-2.358v15.857l0.525-0.294l2.976-1.533
			c2.451-1.12,4.437-1.71,6.012-1.71c5.953,0,10.505,5.836,10.505,13.441c0,9.609-6.944,16.447-16.749,16.447
			c-1.519,0-4.203-0.295-6.595-0.708l-2.978-0.53L388.538,133.088z M395.543,131.201c0.991,0.295,1.4,0.354,2.509,0.354
			c6.07,0,9.923-4.48,9.923-11.555c0-6.721-3.386-11.023-8.754-11.023c-1.343,0-2.687,0.236-3.678,0.648V131.201z"/>
		<path fill="#6B6B6B" d="M423.906,130.199v-32.54l-5.194-1.416v-1.65l12.198-2.358v37.964l5.195,2.063v1.65h-17.102v-1.65
			L423.906,130.199z"/>
		<path fill="#6B6B6B" d="M443.4,130.199v-20.456l-4.96-1.474v-1.592l12.197-2.18v25.702l4.961,2.063v1.65H438.44v-1.65
			L443.4,130.199z M442.525,96.362c0-2.181,1.342-3.243,4.201-3.243c3.152,0,4.495,0.944,4.495,3.125c0,2.358-1.227,3.36-4.262,3.36
			C443.75,99.604,442.525,98.72,442.525,96.362z"/>
		<path fill="#6B6B6B" d="M457.583,120.414c0-9.314,6.128-15.563,15.232-15.563c8.871,0,14.648,5.718,14.648,14.502
			c0,9.196-6.127,15.445-15.232,15.445C463.418,134.797,457.583,129.021,457.583,120.414z M465.403,119.175
			c0,7.958,2.685,12.675,7.178,12.675c4.494,0,7.063-4.245,7.063-11.555c0-7.899-2.742-12.792-7.178-12.792
			S465.403,111.807,465.403,119.175z"/>
		<path fill="#6B6B6B" d="M493.65,108.093h-4.377v-2.004l0.644-0.235c4.785-1.65,5.134-1.887,7.003-4.893
			c0.817-1.297,1.167-1.886,1.692-3.125h2.276v7.311h8.987v2.947h-8.987v17.567c0,3.95,1.166,5.128,5.195,5.128
			c0.64,0,1.225,0,1.75-0.118l1.575-0.235l0.467-0.059l0.526,2.299l-0.643,0.177l-3.036,0.767c-2.101,0.53-4.493,0.825-6.186,0.825
			c-4.729,0-6.888-2.241-6.888-7.075V108.093z"/>
		<path fill="#6B6B6B" d="M524.291,109.567v20.632l4.318,2.063v1.65h-16.225v-1.65l4.902-2.063v-32.54l-5.193-1.416v-1.65
			l12.197-2.358v15.563l0.643-0.236c4.611-1.827,7.763-2.711,9.688-2.711c2.044,0,4.085,0.943,5.312,2.476
			c1.576,1.887,2.044,3.655,2.044,7.311v15.563l4.96,2.063v1.65h-15.991v-1.65l4.085-2.063v-13.854c0-5.306-1.692-7.368-5.952-7.368
			C527.443,108.978,525.399,109.213,524.291,109.567z"/>
		<path fill="#6B6B6B" d="M574.366,118.939h-18.208c0,7.369,4.026,11.731,10.739,11.731c1.691,0,3.91-0.294,6.594-0.884l0.408,2.181
			c-4.728,1.651-8.812,2.535-11.613,2.535c-8.229,0-13.482-5.482-13.482-14.147c0-8.902,5.837-15.504,13.716-15.504
			c4.962,0,8.288,1.651,10.038,5.011C573.899,112.396,574.25,114.164,574.366,118.939z M566.664,115.934
			c-0.119-6.249-1.461-8.725-4.845-8.725c-3.62,0-5.604,3.36-5.604,9.727L566.664,115.934z"/>
		<path fill="#6B6B6B" d="M582.13,130.199v-32.54l-5.195-1.416v-1.65l12.49-2.358v37.964l4.027,2.063v1.65h-16.225v-1.65
			L582.13,130.199z M590.124,118.291l9.165-9.845l-3.794-1.65v-1.65h14.531v1.65l-5.778,2.004l-7.703,6.721l10.155,15.091
			l4.202,1.651v1.65h-10.739L590.124,118.291z"/>
	</g>
</g>
</svg>
