<?xml version="1.0" encoding="utf-8"?>
<!-- Generator: Adobe Illustrator 16.0.3, SVG Export Plug-In . SVG Version: 6.00 Build 0)  -->
<!DOCTYPE svg PUBLIC "-//W3C//DTD SVG 1.1//EN" "http://www.w3.org/Graphics/SVG/1.1/DTD/svg11.dtd">
<svg version="1.1" id="Layer_1" xmlns="http://www.w3.org/2000/svg" xmlns:xlink="http://www.w3.org/1999/xlink" x="0px" y="0px"
	 width="570px" height="214px" viewBox="0 0 570 214" enable-background="new 0 0 570 214" xml:space="preserve">
<path fill-rule="evenodd" clip-rule="evenodd" fill="#6B6B6B" d="M408.511,162.795c-2.191,0-5.575,0-7.88,0
	c-15.498,0-28.038-4.493-37.621-13.755c-9.583-9.284-14.374-21.344-14.374-36.199c0-14.924,4.975-27.236,14.901-36.979
	c9.95-9.744,22.573-14.466,37.933-14.466c2.126,0,4.81,0,7.073,0l-0.031,27.396c-2.182,0-6.086,0-7.285,0
	c-7.702,0-13.984,2.178-18.845,6.511c-4.86,4.356-7.29,9.881-7.29,16.598c0,6.672,2.407,12.243,7.222,16.759
	c4.814,4.493,10.82,6.74,18.042,6.74c1.601,0,4.728,0,8.155,0v27.008V162.795z M265.546,161.414V62.883h11.165l36.688,43.143V62.883
	h25.431v98.531h-11.578l-36.205-42.729v42.729H265.546z M128.397,62.932h25.584c14.008,0,24.439,2.888,31.271,8.688
	c6.832,5.8,10.248,14.695,10.248,26.64c0,11.554-3.324,20.542-9.95,26.983c-6.625,6.419-15.91,9.629-27.877,9.629h-3.829v26.388
	h-25.447C128.397,128.483,128.397,95.708,128.397,62.932z M153.844,110.228h1.513h1.513c4.172,0,7.405-1.032,9.72-3.096
	c2.316-2.063,3.462-4.929,3.462-8.597c0-3.897-1.146-6.9-3.439-8.987c-2.27-2.086-5.571-3.118-9.88-3.118h-1.376h-1.513V110.228z
	 M203.583,162.795v-27.396c4.672,0,6.79,0,10.477,0c2.846,0,5.505,0.216,6.924-0.688c1.788-1.468,2.682-3.302,2.682-5.502
	c0-2.912-2.43-6.603-7.313-11.073c-1.673-1.514-2.934-2.729-3.828-3.622c-3.462-3.508-6.007-7.107-7.681-10.821
	c-1.65-3.714-2.476-7.726-2.476-12.013c0-8.826,3.095-16.07,9.262-21.756c6.189-5.686,14.19-8.528,23.98-8.528
	c3.438,0,8.524-0.404,12.903,0l0,27.396c-5.269,0-4.712,0-9.981,0c-5.25,0-7.281,1.315-7.251,4.442
	c0.027,2.773,2.334,5.531,7.034,9.245c1.88,1.536,3.324,2.751,4.356,3.645c3.805,3.302,6.717,7.107,8.711,11.418
	c1.995,4.287,2.98,8.872,2.98,13.755c0,9.812-3.255,17.515-9.767,23.109c-6.534,5.593-15.566,8.39-27.121,8.39
	C213.861,162.725,208.604,162.795,203.583,162.795z"/>
<path fill-rule="evenodd" clip-rule="evenodd" fill="#6B6B6B" d="M347.231,32.451c19.568,1.643,38.242,3.965,55.744,6.879
	l41.022-27.211c-19.256-5.58-53.842-8.886-95.674-9.121c3.563,3.738,5.738,8.721,5.738,14.193
	C354.063,23.201,351.437,28.623,347.231,32.451 M57.909,66.045c47.652-21.978,128.446-36.436,220.08-36.436
	c12.667,0,25.127,0.276,37.322,0.811c-3.048-3.611-4.875-8.215-4.875-13.229c0-5.273,2.021-10.093,5.355-13.782
	c-61.515,1.845-132.846,9.823-193.327,26.001c-27.121,7.254-51.707,15.447-71.528,25.115C54.634,57.289,57.213,61.375,57.909,66.045
	z M39.61,56.187c7.115,0,12.885,5.555,12.885,12.405s-5.77,12.405-12.885,12.405c-7.115,0-12.885-5.555-12.885-12.405
	S32.495,56.187,39.61,56.187z M332.249,1.439c9.033,0,16.359,7.053,16.359,15.751c0,8.697-7.326,15.751-16.359,15.751
	s-16.36-7.054-16.36-15.751C315.889,8.493,323.216,1.439,332.249,1.439z M129.081,180.349
	c-70.207-14.84-116.334-39.877-116.334-68.259c0-10.102,5.854-19.779,16.548-28.725c-3.724-2.415-6.485-6.101-7.613-10.411
	C8.85,83.921,1.48,96.5,1.48,111.15c0,34.157,49.499,64.281,124.79,82.083c-0.26-1.12-0.397-2.286-0.397-3.484
	C125.873,186.209,127.07,182.948,129.081,180.349z M141.254,199.845c5.575,0,10.096-4.521,10.096-10.096
	s-4.521-10.097-10.096-10.097c-5.575,0-10.096,4.521-10.096,10.097S135.679,199.845,141.254,199.845z M464.096,44.837
	c-19.722-3.608-40.05-5.347-60.893-5.469c20.018,3.34,38.492,7.458,55.018,12.221C459.755,49.139,461.738,46.87,464.096,44.837z
	 M489.217,178.423c46.33-17.741,75.346-41.445,78.899-67.272c2.383-17.321-9.075-31.379-31.622-43.05
	c-1.054,5.882-4.492,11.204-9.586,15.453c10.552,8.893,16.323,18.505,16.323,28.537c0,19.676-22.181,37.741-59.171,51.92
	C487.267,168,489.186,172.996,489.217,178.423z M464.498,160.144c10.563,0,19.127,8.246,19.127,18.415s-8.564,18.415-19.127,18.415
	s-19.127-8.246-19.127-18.415S453.936,160.144,464.498,160.144z M473.092,44.758c0.318,0.477,4.652,2.872,5.426,2.937
	c0.16-0.689,1.522-3.019,1.932-3.643c0.373-0.568,0.709-1.136,1.118-1.67c0.166-0.216,1.203-1.503,1.231-1.606
	c-0.118,0.057-1.152,0.364-1.297,0.396c-0.463,0.102-0.851,0.262-1.285,0.407c-0.858,0.286-1.674,0.586-2.512,0.924
	C476.045,43.171,474.595,43.962,473.092,44.758z M483.694,49.387c1.57,0.366,3.203,0.687,4.879,0.946
	c1.452,0.225,3.76,0.497,5.322,0.497l0.104-11.149v-0.199c-0.833,0.069-2.857,1.149-3.476,1.552
	c-1.063,0.695-1.899,1.419-2.758,2.319c-0.862,0.902-1.549,1.703-2.259,2.769C485.185,46.604,483.736,48.888,483.694,49.387z
	 M499.261,50.83c1.553,0,3.754-0.204,5.104-0.436c0.814-0.139,1.582-0.249,2.367-0.371c0.618-0.097,1.747-0.441,2.3-0.487
	c-0.156-0.672-1.322-2.509-1.69-3.137c-0.465-0.792-1.471-2.145-2.104-2.774c-0.876-0.87-1.546-1.581-2.577-2.301
	c-0.545-0.38-2.506-1.583-3.243-1.644L499.261,50.83z M514.26,47.894c0.203,0,2.155-0.953,2.439-1.095
	c0.419-0.21,2.048-1.243,2.239-1.294c-0.132-0.492-7.346-3.909-8.412-3.932c0.664,0.992,1.426,1.912,2.007,3.02
	c0.287,0.547,0.6,1.047,0.88,1.609C513.499,46.373,514.187,47.894,514.26,47.894z M460.646,60.188l14.635,0.149v-0.199
	c0-1.042,0.354-2.798,0.529-3.802c0.225-1.285,0.54-2.381,0.815-3.564c-0.901-0.21-3.561-1.614-4.38-2.091
	c-0.648-0.377-1.362-0.82-1.972-1.264c-0.615-0.447-1.241-1.041-1.813-1.423c-0.811,0.543-1.835,1.713-2.551,2.426
	c-0.764,0.762-1.627,1.874-2.238,2.79c-0.604,0.907-1.375,2.124-1.788,3.189C461.588,57.162,460.667,59.277,460.646,60.188z
	 M480.708,60.188v0.239l13.092,0.11v-4.331c-2.241,0-4.275-0.358-6.277-0.593c-0.935-0.109-2.051-0.298-2.921-0.513
	c-0.452-0.112-0.964-0.176-1.426-0.316c-0.233-0.071-1.236-0.316-1.423-0.32c-0.025,0.313-0.259,1.026-0.338,1.354
	c-0.11,0.463-0.159,0.948-0.279,1.413C480.971,57.869,480.708,59.466,480.708,60.188z M509.58,60.735h2.19v-0.398
	c0-1.73-0.602-4.195-0.946-5.675c-0.671,0.056-1.917,0.414-2.716,0.569c-0.907,0.176-1.921,0.394-2.857,0.478
	c-1.939,0.175-3.956,0.546-6.075,0.546v4.38l0.747-0.009L509.58,60.735z M516.002,53.021c0.035,0.422,0.284,1.394,0.397,1.842
	c0.151,0.594,0.237,1.239,0.381,1.859c0.202,0.875,0.416,3.111,0.416,4.114l13.64,0.148c0-0.89-0.823-3.017-1.125-3.753
	c-0.449-1.098-1.06-2.268-1.683-3.196c-0.64-0.953-1.336-1.963-2.109-2.769c-0.667-0.695-1.692-1.97-2.45-2.478
	c-0.54,0.362-1.063,0.842-1.652,1.234c-0.595,0.396-1.175,0.768-1.815,1.122c-0.592,0.327-1.321,0.731-1.942,0.995
	C517.456,52.396,516.539,52.736,516.002,53.021z M523.07,79.948c1.338-0.896,4.213-4.211,5.062-5.69
	c0.64-1.113,1.366-2.271,1.815-3.561c0.204-0.586,0.527-1.381,0.645-2.043c0.104-0.593,0.429-1.571,0.443-2.244l-11.748-0.164
	l-2.091,0.014c0,1.741-0.4,3.313-0.603,4.873c-0.08,0.62-0.304,1.641-0.473,2.265c-0.131,0.483-0.534,1.773-0.567,2.17
	c0.618,0.327,1.396,0.598,2.058,0.929c0.687,0.343,1.314,0.641,1.954,1.033c0.63,0.384,1.258,0.722,1.826,1.161
	C521.754,78.97,522.761,79.785,523.07,79.948z M481.703,73.378c0.617-0.014,2.006-0.455,2.782-0.553
	c0.908-0.115,1.946-0.291,2.893-0.443c1.728-0.278,4.279-0.448,6.223-0.448l0.091-5.973l-13.133-0.149
	C480.559,68.441,481.198,71.211,481.703,73.378z M510.426,73.826c0.035-0.409,0.412-1.355,0.487-1.803
	c0.094-0.559,0.245-1.294,0.39-1.85c0.226-0.873,0.468-2.971,0.468-4.012l-12.694-0.113l-0.062,4.842l0.012,1.145
	c1.959,0,4.144,0.441,5.973,0.648c0.739,0.083,2.051,0.359,2.749,0.536C508.145,73.32,510.202,73.826,510.426,73.826z
	 M509.63,86.967c1.187-0.276,3.586-1.15,4.612-1.66c0.723-0.359,1.421-0.635,2.141-0.995c0.416-0.208,1.783-1.004,2.059-1.078
	c-0.332-0.452-4.115-2.46-4.879-2.638c-0.153,0.659-1.413,2.76-1.803,3.374c-0.348,0.548-0.673,1.039-1.034,1.554
	C510.383,86.013,509.951,86.487,509.63,86.967z M498.777,88.41c0.708-0.016,2.708-1.243,3.236-1.593
	c0.945-0.627,1.752-1.434,2.551-2.228c1.564-1.553,2.794-3.652,3.871-5.687c-0.25-0.021-1.854-0.402-2.148-0.491
	c-0.642-0.195-1.501-0.259-2.187-0.401c-1.071-0.222-3.5-0.551-4.676-0.551h-0.498L498.777,88.41z M493.551,77.311
	c-2.263,0-5.113,0.315-7.124,0.642c-0.545,0.088-1.146,0.204-1.648,0.292c-0.313,0.055-0.555,0.092-0.835,0.161
	c-0.443,0.109-0.453-0.004-0.249,0.398c0.453,0.891,0.849,1.671,1.364,2.519c0.982,1.613,2.15,3.024,3.476,4.289
	c0.559,0.533,1.522,1.273,2.213,1.67c0.461,0.265,2.087,1.166,2.654,1.178L493.551,77.311z M460.397,65.912
	c0.026,1.174,0.71,3.365,1.075,4.3c0.552,1.411,1.078,2.326,1.779,3.548c0.305,0.533,0.725,1.112,1.092,1.595
	c0.388,0.51,0.851,0.991,1.211,1.477c0.346,0.466,0.888,0.972,1.302,1.386c0.243,0.244,1.256,1.131,1.356,1.282
	c0.531-0.281,1.236-0.978,1.872-1.364c0.683-0.415,1.282-0.861,2.011-1.225c0.695-0.347,1.403-0.771,2.161-1.075
	c0.698-0.281,1.622-0.605,2.27-0.916c-0.036-0.435-0.337-1.505-0.468-1.972c-0.172-0.618-0.202-1.459-0.372-2.017
	c-0.183-0.603-0.504-3.547-0.504-4.324v-0.846l-13.342-0.149h-1.443V65.912z M472.843,82.736c0.244,0.465,3.773,2.094,4.546,2.423
	c0.802,0.341,1.641,0.711,2.491,0.993c0.429,0.142,0.88,0.282,1.296,0.447c0.403,0.159,0.976,0.25,1.324,0.418
	c-0.02-0.074-1.038-1.419-1.182-1.606c-0.368-0.48-0.778-1.155-1.092-1.695c-0.437-0.751-1.672-2.866-1.858-3.667
	c-0.564,0.012-2.359,0.972-2.931,1.201c-0.361,0.145-0.974,0.493-1.33,0.71C473.883,82.096,472.983,82.698,472.843,82.736z
	 M284.798,210.182c60.06,0,114.654-6.615,159.556-17.828c-2.881-3.892-4.576-8.653-4.576-13.795c0-0.376,0.011-0.75,0.028-1.122
	c-44.78,10.742-100.9,17.135-161.817,17.135c-43.988,0-85.471-3.336-121.996-9.231c0.417,1.397,0.643,2.877,0.643,4.409
	c0,3.442-1.132,6.621-3.043,9.185C192.824,206.114,237.452,210.182,284.798,210.182z"/>
</svg>
