<?xml version="1.0" encoding="utf-8"?>
<!-- Generator: Adobe Illustrator 21.0.0, SVG Export Plug-In . SVG Version: 6.00 Build 0)  -->
<!DOCTYPE svg PUBLIC "-//W3C//DTD SVG 1.1//EN" "http://www.w3.org/Graphics/SVG/1.1/DTD/svg11.dtd">
<svg version="1.1" id="Ebene_1" xmlns="http://www.w3.org/2000/svg" xmlns:xlink="http://www.w3.org/1999/xlink" x="0px" y="0px"
	 viewBox="0 0 28 28" style="enable-background:new 0 0 28 28;" xml:space="preserve">
<style type="text/css">
	.st0{fill:#444444;}
</style>
<g>
	<path class="st0" d="M11.2,14.8c-0.1-0.1-0.3-0.2-0.5-0.2c-0.2,0-0.4,0.1-0.5,0.2l-1.6,1.6v-7c0-0.4-0.3-0.7-0.7-0.7H7.2
		C6.9,8.7,6.6,9,6.6,9.4v7L5,14.8c-0.1-0.1-0.3-0.2-0.5-0.2c-0.2,0-0.4,0.1-0.5,0.2l-0.4,0.4c-0.1,0.1-0.2,0.3-0.2,0.5
		s0.1,0.4,0.2,0.5l3.5,3.5c0.1,0.1,0.3,0.2,0.5,0.2c0.2,0,0.4-0.1,0.5-0.2l3.5-3.5c0.1-0.1,0.2-0.3,0.2-0.5s-0.1-0.4-0.2-0.5
		L11.2,14.8z"/>
	<path class="st0" d="M25.3,15.2l-0.4-0.4c-0.1-0.1-0.3-0.2-0.5-0.2c-0.2,0-0.4,0.1-0.5,0.2l-1.6,1.6v-7c0-0.4-0.3-0.7-0.7-0.7h-0.7
		c-0.4,0-0.7,0.3-0.7,0.7v7l-1.6-1.6c-0.1-0.1-0.3-0.2-0.5-0.2c-0.2,0-0.4,0.1-0.5,0.2l-0.4,0.4c-0.1,0.1-0.2,0.3-0.2,0.5
		s0.1,0.4,0.2,0.5l3.5,3.5c0.1,0.1,0.3,0.2,0.5,0.2c0.2,0,0.4-0.1,0.5-0.2l3.5-3.5c0.1-0.1,0.2-0.3,0.2-0.5S25.4,15.3,25.3,15.2z"/>
	<circle class="st0" cx="11.1" cy="11.9" r="1.2"/>
	<circle class="st0" cx="17.6" cy="11.9" r="1.2"/>
	<circle class="st0" cx="14.4" cy="11.9" r="1.2"/>
</g>
</svg>
