<?xml version="1.0" encoding="utf-8"?>
<!-- Generator: Adobe Illustrator 16.0.3, SVG Export Plug-In . SVG Version: 6.00 Build 0)  -->
<!DOCTYPE svg PUBLIC "-//W3C//DTD SVG 1.1//EN" "http://www.w3.org/Graphics/SVG/1.1/DTD/svg11.dtd">
<svg version="1.1" id="Layer_1" xmlns="http://www.w3.org/2000/svg" xmlns:xlink="http://www.w3.org/1999/xlink" x="0px" y="0px"
	 width="595.279px" height="841.89px" viewBox="0 0 595.279 841.89" enable-background="new 0 0 595.279 841.89"
	 xml:space="preserve">
<path display="none" d="M415.009,320.447c-1.452,0-2.949,0.274-4.416,0.859l-126.018,46.568h-0.007l-127.463-44.997
	c-4.837-1.608-9.902-2.429-14.999-2.431c-4.958,0-9.908,0.778-14.681,2.327L14.91,361.91C5.907,365.511,0.002,374.229,0,383.927
	v256.644c0,6.811,5.581,11.872,11.85,11.872c1.453,0,2.942-0.274,4.417-0.859l126.018-46.568l127.462,44.989
	c9.626,3.213,20.03,3.252,29.68,0.112l112.516-39.136c9.005-3.6,14.91-12.32,14.91-22.018V332.319
	C426.852,325.509,421.272,320.447,415.009,320.447z M22.699,384.312l107.728-37.476v237.281l-106.78,39.461L22.699,384.312z
	 M154.141,584.05V346.977l118.57,41.855v237.073L154.141,584.05z M296.425,626.053v-237.28l106.779-39.469l0.949,239.268
	L296.425,626.053L296.425,626.053z"/>
<path d="M178.098,333.618c-31.905,0-57.859,25.956-57.859,57.859c0,31.906,25.954,57.86,57.859,57.86s57.859-25.954,57.859-57.86
	C235.957,359.574,210.003,333.618,178.098,333.618z M178.098,430.051c-21.27,0-38.572-17.305-38.572-38.574
	c0-21.269,17.302-38.572,38.572-38.572s38.572,17.304,38.572,38.572C216.67,412.746,199.368,430.051,178.098,430.051z
	 M178.098,275.758c-63.91,0-115.719,51.811-115.719,115.719c0,46.657,16.256,59.688,103.826,186.64
	c5.747,8.301,18.039,8.301,23.785,0c87.57-126.952,103.826-139.982,103.826-186.64C293.817,327.569,242.008,275.758,178.098,275.758
	z M178.098,561.401C94.144,439.989,81.666,430.348,81.666,391.477c0-25.758,10.029-49.975,28.244-68.188
	c18.214-18.214,42.43-28.244,68.188-28.244c25.758,0,49.975,10.03,68.188,28.244c18.214,18.213,28.243,42.43,28.243,68.188
	C274.53,430.347,262.058,439.975,178.098,561.401z"/>
<path d="M549.139,443.322L418.986,313.167c-5.529-5.529-13.029-8.636-20.85-8.636H272.751c-16.285,0-29.486,13.202-29.486,29.486
	v125.387c0,7.819,3.107,15.318,8.637,20.849l130.154,130.154c11.513,11.514,30.184,11.514,41.698,0l125.385-125.387
	C560.653,473.505,560.653,454.835,549.139,443.322L549.139,443.322z M535.241,471.121L409.856,596.505
	c-3.838,3.836-10.06,3.842-13.9,0L265.801,466.351c-1.849-1.84-2.885-4.342-2.878-6.948V334.016c0-5.418,4.41-9.829,9.829-9.829
	h125.385c2.625,0,5.096,1.021,6.949,2.88L535.241,457.22C539.073,461.053,539.073,467.289,535.241,471.121L535.241,471.121z
	 M331.72,380.7c6.774,0,12.287,5.511,12.287,12.288c0,6.772-5.513,12.283-12.287,12.283s-12.285-5.511-12.285-12.283
	C319.435,386.211,324.946,380.7,331.72,380.7 M331.72,363.502c-16.283,0-29.483,13.201-29.483,29.486
	c0,16.283,13.2,29.483,29.483,29.483c16.285,0,29.486-13.2,29.486-29.483C361.206,376.703,348.005,363.502,331.72,363.502z"/>
</svg>
