<?xml version="1.0" encoding="utf-8"?>
<!-- Generator: Adobe Illustrator 21.0.0, SVG Export Plug-In . SVG Version: 6.00 Build 0)  -->
<!DOCTYPE svg PUBLIC "-//W3C//DTD SVG 1.1//EN" "http://www.w3.org/Graphics/SVG/1.1/DTD/svg11.dtd">
<svg version="1.1" id="Ebene_1" xmlns="http://www.w3.org/2000/svg" xmlns:xlink="http://www.w3.org/1999/xlink" x="0px" y="0px"
	 viewBox="0 0 176.7 249.7" style="enable-background:new 0 0 176.7 249.7;" xml:space="preserve">
<style type="text/css">
	.st0{fill:#A84A20;}
	.st1{fill:#CD7F32;}
	.st2{fill:#C96D50;}
	.st3{fill:#FFFFFF;}
</style>
<polygon class="st0" points="-0.1,0 -0.1,171.5 88.4,249.7 88.4,0 "/>
<polygon class="st1" points="88.4,0 88.4,249.7 176.8,171.5 176.8,0 "/>
<g>
	<g>
		<path class="st2" d="M69.4,31.3l-2.2,3.5l3.3,2.4l-1,4l3.9,1.3l0.3,4.1l4.1,0l1.6,3.8l3.9-1.3l2.7,3.1l3.3-2.4l3.5,2.2l2.4-3.3
			l4,1l1.3-3.9l4.1-0.3l0-4.1l3.8-1.6l-1.3-3.9l3.1-2.7L108,30l2.2-3.5l-3.3-2.4l1-4l-3.9-1.3l-0.3-4.1l-4.1,0l-1.6-3.8L94,12.1
			l-2.7-3.1L88,11.4l-3.5-2.2l-2.4,3.3l-4-1l-1.3,3.9l-4.1,0.3l0,4.1l-3.8,1.6l1.3,3.9L67,28L69.4,31.3z M88.7,13.8
			c9.3,0,16.9,7.6,16.9,16.9S98,47.5,88.7,47.5S71.8,40,71.8,30.7S79.4,13.8,88.7,13.8z"/>
		<path class="st2" d="M140.3,79.3c0-0.9,0-1.4-0.5-1.4H138c0,0-1.1,1.9-5,1.9h-8.7c0.1-1.1,0.1-2.2,0.1-3.3H68.7
			c-0.1,1.3-0.1,2.7-0.1,4c0,11.9,3.6,22.5,9.2,29.6c1.5,1.9,3.2,3.6,5.1,5c-2.3-0.8-4.5-2-6.6-3.6c-8.2-6.5-13.8-19.4-13.8-34.2
			c0-0.3,0-0.6,0-0.8h-7.6c0,1.1,0,2.2,0.1,3.3h-8.7c-3.9,0-5-1.9-5-1.9h-1.8c-0.5,0-0.5,0.4-0.5,1.4s-0.2,17.5,9.4,28.9
			c8.7,10.4,14.3,9.4,16.6,9c3.5-0.7,4.9-4.6,7.2-2.8c1,0.8,0.8,2.4-0.2,2.8c-1.4,0.5-2.2,0-2.2,0c-0.2-0.4-2.1-0.6-2.2,1.3
			c0,1.2,0.8,1.9,1.4,2.4c1.3,0.6,4.6,0.9,6.3-0.8c0.7-0.7,2.2-2.2,1.6-4.7c2.9,1.5,4.9,4.5,4.9,8c0,3.8-2.3,7-5.6,8.3v5.9H64.5
			c-0.3,0-0.6,0.3-0.6,0.6v8.2h-6.8c-0.3,0-0.6,0.3-0.6,0.6v44.4c0,0.3,0.3,0.6,0.6,0.6h65.2c0.3,0,0.6-0.3,0.6-0.6v-44.4
			c0-0.3-0.3-0.6-0.6-0.6h-6.7v-8.2c0-0.3-0.3-0.6-0.6-0.6h-11.9v-5.9c-3.3-1.3-5.7-4.6-5.7-8.4c0-3.4,1.9-6.3,4.6-7.8l0.3-0.2
			c-0.5,2.6,0.9,4,1.6,4.7c1.7,1.6,5,1.3,6.3,0.8c0.6-0.5,1.5-1.2,1.4-2.4c-0.1-1.9-2-1.7-2.2-1.3c0,0-0.8,0.5-2.2,0
			c-1-0.3-1.2-2-0.2-2.8c2.3-1.8,3.6,2.1,7.2,2.8c2.2,0.4,7.9,1.4,16.6-9C140.5,96.8,140.3,80.3,140.3,79.3z M69.2,110.4
			c-1.3,0.3-2.5,1.2-4.2,2.5c-1.3,0.9-2.7,1.3-5-0.1c-2.7-1.6-9.6-6.2-13.8-16.2c-4.3-10.4-3.3-13-3.3-13h12.5
			c1.6,11,6.7,20.5,13.9,26.7L69.2,110.4z M110.5,145.2V187H65v-41.8H110.5z M133.1,96.6c-4.1,10-11,14.7-13.8,16.2
			c-2.3,1.3-3.7,1-5,0.1c-1.8-1.3-2.9-2.2-4.2-2.5l-0.1,0c7.2-6.3,12.3-15.8,13.9-26.7h12.5C136.4,83.6,137.4,86.2,133.1,96.6z"/>
		<path class="st2" d="M54.2,75h72.6c0.3,0,0.6-0.3,0.6-0.6v-4.9c0-0.3-0.3-0.6-0.6-0.6H122c-6.8-9-18.3-15-31.3-15
			s-24.5,5.9-31.3,15h-5.1c-0.3,0-0.6,0.3-0.6,0.6v4.9C53.6,74.7,53.9,75,54.2,75z"/>
	</g>
	<g>
		<path class="st3" d="M56.6,66.9c6.8-9,18.3-15,31.3-15s24.5,5.9,31.3,15h4.9c0.3,0,0.6,0.3,0.6,0.6v4.9c0,0.3-0.3,0.6-0.6,0.6
			H51.6c-0.3,0-0.6-0.3-0.6-0.6v-4.9c0-0.3,0.3-0.6,0.6-0.6H56.6z M103,44.6l-4.1,0.3l-1.3,3.9l-4-1l-2.4,3.3L87.7,49l-3.3,2.4
			l-2.7-3.1l-3.9,1.3l-1.6-3.8l-4.1,0l-0.3-4.1l-3.9-1.3l1-4l-3.3-2.4l2.2-3.5L65.3,27l3.1-2.7l-1.3-3.9l3.8-1.6l0-4.1l4.1-0.3
			l1.3-3.9l4,1l2.4-3.3l3.5,2.2l3.3-2.4l2.7,3.1l3.9-1.3l1.6,3.8l4.1,0l0.3,4.1l3.9,1.3l-1,4l3.3,2.4l-2.2,3.5l2.4,3.3l-3.1,2.7
			l1.3,3.9l-3.8,1.6L103,44.6z M70.1,29.7c0,9.3,7.6,16.9,16.9,16.9s16.9-7.6,16.9-16.9S96.3,12.8,87,12.8S70.1,20.4,70.1,29.7z
			 M70.5,161.1h1.6c0.7,0,1.3,0.2,1.7,0.5c0.4,0.4,0.6,0.9,0.6,1.6c0,0.7-0.2,1.3-0.6,1.6c-0.4,0.4-1,0.5-1.7,0.5h-1.6V161.1z
			 M101,180.3c0-0.6,0.2-1.1,0.6-1.5c0.4-0.4,0.9-0.5,1.4-0.5c0.6,0,1,0.2,1.4,0.5c0.4,0.4,0.6,0.8,0.6,1.5c0,0.6-0.2,1.1-0.6,1.5
			c-0.4,0.4-0.9,0.5-1.4,0.5c-0.6,0-1-0.2-1.4-0.5C101.3,181.4,101,180.9,101,180.3z M82,182.3c-0.9,0-1.6-0.3-2.1-1
			c-0.6-0.7-0.8-1.6-0.9-2.9c0-1.3,0.3-2.2,0.9-2.9c0.6-0.7,1.3-1,2.1-1c0.9,0,1.6,0.3,2.1,1c0.6,0.7,0.8,1.6,0.9,2.9
			c0,1.3-0.3,2.2-0.9,2.9C83.6,181.9,82.9,182.3,82,182.3z M95.4,151.2l0.9,2.4h-1.8L95.4,151.2z M66.7,108.3
			c-7.2-6.3-12.3-15.8-13.9-26.7H40.3c0,0-0.9,2.6,3.3,13c4.1,10,11,14.7,13.8,16.2c2.3,1.3,3.7,1,5,0.1c1.8-1.3,2.9-2.2,4.2-2.5
			L66.7,108.3z M107.4,108.3l0.1,0c1.3,0.3,2.5,1.2,4.2,2.5c1.3,0.9,2.7,1.3,5-0.1c2.7-1.6,9.6-6.2,13.8-16.2
			c4.3-10.4,3.3-13,3.3-13h-12.5C119.7,92.6,114.5,102.1,107.4,108.3z M121.6,77.9h8.7c3.9,0,5-1.9,5-1.9h1.8c0.5,0,0.5,0.4,0.5,1.4
			s0.2,17.5-9.4,28.9c-8.7,10.4-14.3,9.4-16.6,9c-3.5-0.7-4.9-4.6-7.2-2.8c-1,0.8-0.8,2.4,0.2,2.8c1.4,0.5,2.2,0,2.2,0
			c0.2-0.4,2.1-0.6,2.2,1.3c0,1.2-0.8,1.9-1.4,2.4c-1.3,0.6-4.6,0.9-6.3-0.8c-0.7-0.7-2.2-2.2-1.6-4.7l-0.3,0.2
			c-2.7,1.5-4.6,4.5-4.6,7.8c0,3.8,2.4,7,5.7,8.4v5.9h11.9c0.3,0,0.6,0.3,0.6,0.6v8.2h6.7c0.3,0,0.6,0.3,0.6,0.6v44.4
			c0,0.3-0.3,0.6-0.6,0.6H54.4c-0.3,0-0.6-0.3-0.6-0.6v-44.4c0-0.3,0.3-0.6,0.6-0.6h6.8v-8.2c0-0.3,0.3-0.6,0.6-0.6h11.8v-5.9
			c3.3-1.3,5.6-4.6,5.6-8.3c0-3.5-2-6.5-4.9-8c0.5,2.6-0.9,4-1.6,4.7c-1.7,1.6-5,1.3-6.3,0.8c-0.6-0.5-1.5-1.2-1.4-2.4
			c0.1-1.9,2-1.7,2.2-1.3c0,0,0.8,0.5,2.2,0c1-0.3,1.2-2,0.2-2.8c-2.3-1.8-3.6,2.1-7.2,2.8c-2.2,0.4-7.9,1.4-16.6-9
			c-9.6-11.5-9.4-28-9.4-28.9s0-1.4,0.5-1.4h1.8c0,0,1.1,1.9,5,1.9h8.7c-0.1-1.1-0.1-2.2-0.1-3.3h7.6c0,0.3,0,0.6,0,0.8
			c0,14.8,5.6,27.7,13.8,34.2c2,1.6,4.3,2.9,6.6,3.6c-1.8-1.4-3.5-3-5.1-5c-5.7-7.1-9.2-17.7-9.2-29.6c0-1.4,0-2.7,0.1-4h55.7
			C121.8,75.7,121.7,76.8,121.6,77.9z M107.1,159h-5.2v2.1h1.3v5.5l-5.8-7.6h-3.2v2.1h1.3v7.9h-1.3v2.1h5.2v-2.1h-1.3v-5.5l5.8,7.6
			h1.8v-10h1.3V159z M79.1,161.1h1.3v4.9c0,1.2,0.2,2.2,0.7,3c0.5,0.8,1.1,1.4,1.8,1.8c0.8,0.4,1.6,0.6,2.6,0.6
			c0.9,0,1.8-0.2,2.6-0.6c0.8-0.4,1.4-1,1.8-1.8c0.5-0.8,0.7-1.8,0.7-3v-4.9H92V159h-5.2v2.1h1.3v5.1c0,1.1-0.3,1.8-0.8,2.3
			c-0.5,0.5-1.1,0.7-1.8,0.7c-0.7,0-1.3-0.2-1.8-0.7c-0.5-0.5-0.8-1.3-0.8-2.3v-5.1h1.3V159h-5.2V161.1z M66.6,171.2h5v-2.1h-1.2
			v-1.6h1.7l2.1,3.1c0.2,0.2,0.3,0.4,0.5,0.5c0.2,0.1,0.4,0.1,0.7,0.1h2v-2.1h-1.5l-1.5-2.1c0.8-0.4,1.3-0.9,1.7-1.5
			c0.4-0.7,0.6-1.4,0.6-2.2c0-1.2-0.4-2.2-1.3-3c-0.8-0.8-2-1.2-3.5-1.2h-5.5v2.1H68v8h-1.3V171.2z M106.6,173.1
			c-0.4-0.2-0.9-0.4-1.5-0.5c-0.5-0.1-1.1-0.2-1.6-0.2c-1.4,0-2.5,0.3-3.4,1c-0.8,0.7-1.4,1.6-1.7,2.8c-0.1,0.4-0.1,0.7-0.2,1.1
			c0,0.4-0.1,0.8-0.1,1.2c0,0.5,0,1,0.1,1.4c0.1,0.4,0.2,0.8,0.3,1.2c0.4,1.1,1,1.9,1.8,2.4c0.8,0.5,1.7,0.8,2.7,0.8
			c0.8,0,1.5-0.2,2.2-0.5c0.7-0.3,1.2-0.8,1.6-1.4c0.4-0.6,0.6-1.3,0.6-2.1c0-0.9-0.2-1.6-0.6-2.2c-0.4-0.6-0.9-1-1.5-1.4
			c-0.6-0.3-1.3-0.5-1.9-0.5c-0.6,0-1.1,0.1-1.6,0.3c-0.5,0.2-0.9,0.5-1.1,0.9c0-0.9,0.3-1.7,0.8-2.2c0.5-0.5,1.2-0.8,2.1-0.8
			c0.4,0,0.8,0,1.2,0.1c0.4,0.1,0.7,0.2,1.1,0.3L106.6,173.1z M89.6,184.1H97v-2h-2.3v-9.5h-2.1l-3.9,2.9l1.2,1.6l2.4-1.8v6.8h-2.8
			V184.1z M82,184.3c1.1,0,2.1-0.3,2.9-0.8c0.8-0.5,1.4-1.2,1.8-2.1c0.4-0.9,0.6-1.9,0.6-3c0-1.1-0.2-2.1-0.6-3
			c-0.4-0.9-1-1.6-1.8-2.1s-1.8-0.8-2.9-0.8c-1.1,0-2.1,0.3-2.9,0.8c-0.8,0.5-1.4,1.2-1.8,2.1c-0.4,0.9-0.6,1.9-0.6,3
			c0,1.1,0.2,2.1,0.6,3c0.4,0.9,1,1.6,1.8,2.1C79.9,184,80.9,184.3,82,184.3z M66.5,173.5v2.9h2.1v-1.6c0.2-0.1,0.4-0.2,0.7-0.2
			c0.2-0.1,0.5-0.1,0.7-0.1c0.7,0,1.2,0.2,1.6,0.5c0.4,0.3,0.6,0.8,0.6,1.4c0,0.5-0.1,1-0.4,1.5c-0.3,0.5-0.7,1-1.3,1.6
			c-0.7,0.7-1.4,1.3-2,1.8c-0.7,0.5-1.3,1-1.9,1.4v1.5h8.2v-2h-4.5c0.3-0.2,0.7-0.4,1-0.7c0.3-0.2,0.7-0.5,1-0.8
			c0.8-0.7,1.4-1.4,1.8-2.1c0.4-0.7,0.6-1.4,0.6-2.2c0-1.2-0.4-2.2-1.2-2.8c-0.8-0.7-1.9-1-3.3-1c-0.7,0-1.3,0.1-2,0.3
			C67.5,172.9,67,173.2,66.5,173.5z M103.7,153.5c0.5,0.2,0.9,0.4,1.1,0.6c0.2,0.2,0.4,0.5,0.4,0.7c0,0.3-0.1,0.5-0.4,0.6
			c-0.2,0.1-0.5,0.2-0.9,0.2c-0.2,0-0.4,0-0.5-0.1s-0.3-0.1-0.5-0.1v-1h-1.4v1.9c0.3,0.2,0.7,0.4,1.1,0.5c0.4,0.1,0.9,0.2,1.3,0.2
			c1,0,1.7-0.2,2.2-0.7c0.5-0.4,0.8-1,0.8-1.8c0-0.6-0.2-1.1-0.6-1.5c-0.4-0.4-0.9-0.8-1.6-1.1c-0.5-0.2-0.9-0.5-1.2-0.6
			c-0.2-0.2-0.3-0.4-0.3-0.6c0-0.2,0.1-0.4,0.3-0.5c0.2-0.1,0.4-0.2,0.8-0.2c0.1,0,0.3,0,0.4,0c0.2,0,0.3,0.1,0.4,0.1v0.8h1.4v-1.7
			c-0.3-0.2-0.6-0.4-1-0.5c-0.4-0.1-0.8-0.2-1.2-0.2c-0.9,0-1.5,0.2-2,0.6c-0.5,0.4-0.7,0.9-0.7,1.6c0,0.5,0.2,1,0.5,1.4
			C102.3,152.8,102.9,153.1,103.7,153.5z M93.3,150.3h0.9l-2.1,5.3h-0.8v1.4h3.2v-1.4h-0.7l0.3-0.7h2.8l0.3,0.7h-0.7v1.4h3.2v-1.4
			h-0.8l-2.7-6.7h-2.8V150.3z M89.9,155.6H89l-0.4-5.2h0.9V149h-2.2l-2.7,4l-2.7-4h-2.2v1.4h0.9l-0.4,5.2h-0.9v1.4h3.5v-1.4h-0.9
			l0.3-3.8l2.1,3.1H85l2.1-3.1l0.2,3.8h-0.9v1.4h3.5V155.6z M77.8,153.7v-1.4h-3.3v1.4H77.8z M74,149h-3.1v1.4h0.4l-1,1.4l-1-1.4
			h0.4V149h-3.1v1.4h0.9l1.9,2.7l-1.8,2.6h-0.9v1.4h3.1v-1.4h-0.4l0.9-1.3l0.9,1.3h-0.4v1.4h3.1v-1.4H73l-1.8-2.6l1.9-2.7H74V149z"
			/>
	</g>
</g>
<path class="st2" d="M81.5,22.3c0.8-0.5,1.8-0.9,2.9-1.2c1.1-0.3,2.3-0.5,3.6-0.5c2.2,0,4,0.5,5.4,1.6c1.4,1,2.1,2.4,2.1,4.2
	c0,1.2-0.3,2.2-0.8,3c-0.5,0.8-1.3,1.4-2.3,1.8c1,0.3,1.8,0.8,2.4,1.6s0.9,1.6,0.9,2.7c0,1.8-0.7,3.2-2.1,4.1
	c-1.4,1-3.2,1.5-5.4,1.5c-1.3,0-2.5-0.1-3.7-0.4s-2.3-0.6-3.3-1.1l1.2-3.3c0.8,0.4,1.6,0.7,2.5,0.9c0.9,0.2,1.7,0.3,2.6,0.3
	c1.4,0,2.4-0.2,3-0.6c0.7-0.4,1-1,1-1.7c0-0.9-0.3-1.5-1.1-1.9c-0.7-0.4-1.9-0.5-3.5-0.5h-1v-3.5h1c1.5,0,2.5-0.2,3.2-0.6
	c0.7-0.4,1-1.1,1-2.1c0-0.8-0.3-1.4-1-1.9c-0.6-0.5-1.5-0.7-2.6-0.7c-0.5,0-1,0.1-1.4,0.1c-0.4,0.1-0.8,0.2-1.1,0.4v2.7h-3.7V22.3z"
	/>
<path class="st3" d="M80,20.8c0.8-0.5,1.8-0.9,2.9-1.2c1.1-0.3,2.3-0.5,3.6-0.5c2.2,0,4,0.5,5.4,1.6c1.4,1,2.1,2.4,2.1,4.2
	c0,1.2-0.3,2.2-0.8,3c-0.5,0.8-1.3,1.4-2.3,1.8c1,0.3,1.8,0.8,2.4,1.6c0.6,0.7,0.9,1.6,0.9,2.7c0,1.8-0.7,3.2-2.1,4.1
	c-1.4,1-3.2,1.5-5.4,1.5c-1.3,0-2.5-0.1-3.7-0.4c-1.2-0.2-2.3-0.6-3.3-1.1l1.2-3.3c0.8,0.4,1.6,0.7,2.5,0.9c0.9,0.2,1.7,0.3,2.6,0.3
	c1.4,0,2.4-0.2,3-0.6c0.7-0.4,1-1,1-1.7c0-0.9-0.3-1.5-1.1-1.9c-0.7-0.4-1.9-0.5-3.5-0.5h-1V28h1c1.5,0,2.5-0.2,3.2-0.6
	c0.7-0.4,1-1.1,1-2.1c0-0.8-0.3-1.4-1-1.9c-0.6-0.5-1.5-0.7-2.6-0.7c-0.5,0-1,0.1-1.4,0.1c-0.4,0.1-0.8,0.2-1.1,0.4v2.7H80V20.8z"/>
</svg>
