<?xml version="1.0" encoding="utf-8"?>
<!-- Generator: Adobe Illustrator 21.0.0, SVG Export Plug-In . SVG Version: 6.00 Build 0)  -->
<!DOCTYPE svg PUBLIC "-//W3C//DTD SVG 1.1//EN" "http://www.w3.org/Graphics/SVG/1.1/DTD/svg11.dtd">
<svg version="1.1" id="Ebene_1" xmlns="http://www.w3.org/2000/svg" xmlns:xlink="http://www.w3.org/1999/xlink" x="0px" y="0px"
	 viewBox="0 0 176.7 249.7" style="enable-background:new 0 0 176.7 249.7;" xml:space="preserve">
<style type="text/css">
	.st0{fill:#767F84;}
	.st1{fill:#8A949B;}
	.st2{fill:#B0BABF;}
	.st3{fill:#FFFFFF;}
</style>
<polygon class="st0" points="-0.1,0 -0.1,171.5 88.4,249.7 88.4,0 "/>
<polygon class="st1" points="88.4,0 88.4,249.7 176.8,171.5 176.8,0 "/>
<g>
	<path class="st2" d="M82.7,22.2c0.9-0.6,1.9-1,3-1.3c1.1-0.3,2.3-0.5,3.5-0.5c2.5,0,4.5,0.6,5.8,1.8c1.4,1.2,2.1,2.9,2.1,5
		c0,1.5-0.3,2.8-1,3.9c-0.7,1.1-1.7,2.3-3.1,3.6c-0.6,0.5-1.2,1-1.7,1.4c-0.6,0.4-1.2,0.8-1.8,1.2h8v3.5H82.9v-2.6
		c1.1-0.7,2.2-1.6,3.3-2.5s2.3-2,3.6-3.2c1.1-1,1.8-1.9,2.3-2.8c0.4-0.8,0.7-1.7,0.6-2.6c0-1.1-0.4-1.8-1.1-2.4
		c-0.7-0.5-1.7-0.8-2.9-0.8c-0.5,0-0.9,0.1-1.3,0.2c-0.4,0.1-0.8,0.2-1.2,0.4v2.8h-3.7V22.2z"/>
	<g>
		<g>
			<path class="st2" d="M69.7,31.3l-2.2,3.5l3.3,2.4l-1,4l3.9,1.3l0.3,4.1l4.1,0l1.6,3.8l3.9-1.3l2.7,3.1l3.3-2.4l3.5,2.2l2.4-3.3
				l4,1l1.3-3.9l4.1-0.3l0-4.1l3.8-1.6l-1.3-3.9l3.1-2.7l-2.4-3.3l2.2-3.5l-3.3-2.4l1-4l-3.9-1.3l-0.3-4.1l-4.1,0l-1.6-3.8l-3.9,1.3
				l-2.7-3.1l-3.3,2.4l-3.5-2.2l-2.4,3.3l-4-1l-1.3,3.9L73,15.7l0,4.1l-3.8,1.6l1.3,3.9L67.3,28L69.7,31.3z M89,13.8
				c9.3,0,16.9,7.6,16.9,16.9S98.3,47.5,89,47.5S72.1,40,72.1,30.7S79.7,13.8,89,13.8z"/>
			<path class="st2" d="M140.6,79.3c0-0.9,0-1.4-0.5-1.4h-1.8c0,0-1.1,1.9-5,1.9h-8.7c0.1-1.1,0.1-2.2,0.1-3.3H69
				c-0.1,1.3-0.1,2.7-0.1,4c0,11.9,3.6,22.5,9.2,29.6c1.5,1.9,3.2,3.6,5.1,5c-2.3-0.8-4.5-2-6.6-3.6c-8.2-6.5-13.8-19.4-13.8-34.2
				c0-0.3,0-0.6,0-0.8h-7.6c0,1.1,0,2.2,0.1,3.3h-8.7c-3.9,0-5-1.9-5-1.9h-1.8c-0.5,0-0.5,0.4-0.5,1.4s-0.2,17.5,9.4,28.9
				c8.7,10.4,14.3,9.4,16.6,9c3.5-0.7,4.9-4.6,7.2-2.8c1,0.8,0.8,2.4-0.2,2.8c-1.4,0.5-2.2,0-2.2,0c-0.2-0.4-2.1-0.6-2.2,1.3
				c0,1.2,0.8,1.9,1.4,2.4c1.3,0.6,4.6,0.9,6.3-0.8c0.7-0.7,2.2-2.2,1.6-4.7c2.9,1.5,4.9,4.5,4.9,8c0,3.8-2.3,7-5.6,8.3v5.9H64.8
				c-0.3,0-0.6,0.3-0.6,0.6v8.2h-6.8c-0.3,0-0.6,0.3-0.6,0.6v44.4c0,0.3,0.3,0.6,0.6,0.6h65.2c0.3,0,0.6-0.3,0.6-0.6v-44.4
				c0-0.3-0.3-0.6-0.6-0.6h-6.7v-8.2c0-0.3-0.3-0.6-0.6-0.6h-11.9v-5.9c-3.3-1.3-5.7-4.6-5.7-8.4c0-3.4,1.9-6.3,4.6-7.8l0.3-0.2
				c-0.5,2.6,0.9,4,1.6,4.7c1.7,1.6,5,1.3,6.3,0.8c0.6-0.5,1.5-1.2,1.4-2.4c-0.1-1.9-2-1.7-2.2-1.3c0,0-0.8,0.5-2.2,0
				c-1-0.3-1.2-2-0.2-2.8c2.3-1.8,3.6,2.1,7.2,2.8c2.2,0.4,7.9,1.4,16.6-9C140.8,96.8,140.6,80.3,140.6,79.3z M69.6,110.4
				c-1.3,0.3-2.5,1.2-4.2,2.5c-1.3,0.9-2.7,1.3-5-0.1c-2.7-1.6-9.6-6.2-13.8-16.2c-4.3-10.4-3.3-13-3.3-13h12.5
				c1.6,11,6.7,20.5,13.9,26.7L69.6,110.4z M110.8,145.2V187H65.3v-41.8H110.8z M133.5,96.6c-4.1,10-11,14.7-13.8,16.2
				c-2.3,1.3-3.7,1-5,0.1c-1.8-1.3-2.9-2.2-4.2-2.5l-0.1,0c7.2-6.3,12.3-15.8,13.9-26.7h12.5C136.8,83.6,137.7,86.2,133.5,96.6z"/>
			<path class="st2" d="M54.6,75h72.6c0.3,0,0.6-0.3,0.6-0.6v-4.9c0-0.3-0.3-0.6-0.6-0.6h-4.9c-6.8-9-18.3-15-31.3-15
				s-24.5,5.9-31.3,15h-5.1c-0.3,0-0.6,0.3-0.6,0.6v4.9C54,74.7,54.2,75,54.6,75z"/>
		</g>
		<g>
			<path class="st3" d="M57,66.9c6.8-9,18.3-15,31.3-15s24.5,5.9,31.3,15h4.9c0.3,0,0.6,0.3,0.6,0.6v4.9c0,0.3-0.3,0.6-0.6,0.6H51.9
				c-0.3,0-0.6-0.3-0.6-0.6v-4.9c0-0.3,0.3-0.6,0.6-0.6H57z M103.4,44.6l-4.1,0.3L98,48.8l-4-1l-2.4,3.3L88,49l-3.3,2.4L82,48.2
				l-3.9,1.3l-1.6-3.8l-4.1,0l-0.3-4.1l-3.9-1.3l1-4l-3.3-2.4l2.2-3.5L65.6,27l3.1-2.7l-1.3-3.9l3.8-1.6l0-4.1l4.1-0.3l1.3-3.9l4,1
				l2.4-3.3l3.5,2.2L90,7.9l2.7,3.1l3.9-1.3l1.6,3.8l4.1,0l0.3,4.1l3.9,1.3l-1,4l3.3,2.4l-2.2,3.5l2.4,3.3l-3.1,2.7l1.3,3.9
				l-3.8,1.6L103.4,44.6z M70.5,29.7c0,9.3,7.6,16.9,16.9,16.9s16.9-7.6,16.9-16.9s-7.6-16.9-16.9-16.9S70.5,20.4,70.5,29.7z
				 M70.8,161.1h1.6c0.7,0,1.3,0.2,1.7,0.5c0.4,0.4,0.6,0.9,0.6,1.6c0,0.7-0.2,1.3-0.6,1.6c-0.4,0.4-1,0.5-1.7,0.5h-1.6V161.1z
				 M101.4,180.3c0-0.6,0.2-1.1,0.6-1.5c0.4-0.4,0.9-0.5,1.4-0.5c0.6,0,1,0.2,1.4,0.5c0.4,0.4,0.6,0.8,0.6,1.5
				c0,0.6-0.2,1.1-0.6,1.5c-0.4,0.4-0.9,0.5-1.4,0.5c-0.6,0-1-0.2-1.4-0.5S101.4,180.9,101.4,180.3z M82.3,182.3
				c-0.9,0-1.6-0.3-2.1-1c-0.6-0.7-0.8-1.6-0.9-2.9c0-1.3,0.3-2.2,0.9-2.9c0.6-0.7,1.3-1,2.1-1c0.9,0,1.6,0.3,2.1,1
				c0.6,0.7,0.8,1.6,0.9,2.9c0,1.3-0.3,2.2-0.9,2.9C83.9,181.9,83.2,182.3,82.3,182.3z M95.7,151.2l0.9,2.4h-1.8L95.7,151.2z
				 M67,108.3c-7.2-6.3-12.3-15.8-13.9-26.7H40.6c0,0-0.9,2.6,3.3,13c4.1,10,11,14.7,13.8,16.2c2.3,1.3,3.7,1,5,0.1
				c1.8-1.3,2.9-2.2,4.2-2.5L67,108.3z M107.7,108.3l0.1,0c1.3,0.3,2.5,1.2,4.2,2.5c1.3,0.9,2.7,1.3,5-0.1
				c2.7-1.6,9.6-6.2,13.8-16.2c4.3-10.4,3.3-13,3.3-13h-12.5C120,92.6,114.9,102.1,107.7,108.3z M122,77.9h8.7c3.9,0,5-1.9,5-1.9
				h1.8c0.5,0,0.5,0.4,0.5,1.4s0.2,17.5-9.4,28.9c-8.7,10.4-14.3,9.4-16.6,9c-3.5-0.7-4.9-4.6-7.2-2.8c-1,0.8-0.8,2.4,0.2,2.8
				c1.4,0.5,2.2,0,2.2,0c0.2-0.4,2.1-0.6,2.2,1.3c0,1.2-0.8,1.9-1.4,2.4c-1.3,0.6-4.6,0.9-6.3-0.8c-0.7-0.7-2.2-2.2-1.6-4.7
				l-0.3,0.2c-2.7,1.5-4.6,4.5-4.6,7.8c0,3.8,2.4,7,5.7,8.4v5.9h11.9c0.3,0,0.6,0.3,0.6,0.6v8.2h6.7c0.3,0,0.6,0.3,0.6,0.6v44.4
				c0,0.3-0.3,0.6-0.6,0.6H54.8c-0.3,0-0.6-0.3-0.6-0.6v-44.4c0-0.3,0.3-0.6,0.6-0.6h6.8v-8.2c0-0.3,0.3-0.6,0.6-0.6H74v-5.9
				c3.3-1.3,5.6-4.6,5.6-8.3c0-3.5-2-6.5-4.9-8c0.5,2.6-0.9,4-1.6,4.7c-1.7,1.6-5,1.3-6.3,0.8c-0.6-0.5-1.5-1.2-1.4-2.4
				c0.1-1.9,2-1.7,2.2-1.3c0,0,0.8,0.5,2.2,0c1-0.3,1.2-2,0.2-2.8c-2.3-1.8-3.6,2.1-7.2,2.8c-2.2,0.4-7.9,1.4-16.6-9
				c-9.6-11.5-9.4-28-9.4-28.9s0-1.4,0.5-1.4h1.8c0,0,1.1,1.9,5,1.9h8.7c-0.1-1.1-0.1-2.2-0.1-3.3h7.6c0,0.3,0,0.6,0,0.8
				c0,14.8,5.6,27.7,13.8,34.2c2,1.6,4.3,2.9,6.6,3.6c-1.8-1.4-3.5-3-5.1-5c-5.7-7.1-9.2-17.7-9.2-29.6c0-1.4,0-2.7,0.1-4h55.7
				C122.1,75.7,122,76.8,122,77.9z M107.4,159h-5.2v2.1h1.3v5.5l-5.8-7.6h-3.2v2.1h1.3v7.9h-1.3v2.1h5.2v-2.1h-1.3v-5.5l5.8,7.6h1.8
				v-10h1.3V159z M79.4,161.1h1.3v4.9c0,1.2,0.2,2.2,0.7,3c0.5,0.8,1.1,1.4,1.8,1.8c0.8,0.4,1.6,0.6,2.6,0.6c0.9,0,1.8-0.2,2.6-0.6
				c0.8-0.4,1.4-1,1.8-1.8c0.5-0.8,0.7-1.8,0.7-3v-4.9h1.3V159h-5.2v2.1h1.3v5.1c0,1.1-0.3,1.8-0.8,2.3c-0.5,0.5-1.1,0.7-1.8,0.7
				c-0.7,0-1.3-0.2-1.8-0.7c-0.5-0.5-0.8-1.3-0.8-2.3v-5.1h1.3V159h-5.2V161.1z M67,171.2h5v-2.1h-1.2v-1.6h1.7l2.1,3.1
				c0.2,0.2,0.3,0.4,0.5,0.5c0.2,0.1,0.4,0.1,0.7,0.1h2v-2.1h-1.5l-1.5-2.1c0.8-0.4,1.3-0.9,1.7-1.5c0.4-0.7,0.6-1.4,0.6-2.2
				c0-1.2-0.4-2.2-1.3-3c-0.8-0.8-2-1.2-3.5-1.2H67v2.1h1.3v8H67V171.2z M107,173.1c-0.4-0.2-0.9-0.4-1.5-0.5
				c-0.5-0.1-1.1-0.2-1.6-0.2c-1.4,0-2.5,0.3-3.4,1c-0.8,0.7-1.4,1.6-1.7,2.8c-0.1,0.4-0.1,0.7-0.2,1.1c0,0.4-0.1,0.8-0.1,1.2
				c0,0.5,0,1,0.1,1.4c0.1,0.4,0.2,0.8,0.3,1.2c0.4,1.1,1,1.9,1.8,2.4c0.8,0.5,1.7,0.8,2.7,0.8c0.8,0,1.5-0.2,2.2-0.5
				c0.7-0.3,1.2-0.8,1.6-1.4c0.4-0.6,0.6-1.3,0.6-2.1c0-0.9-0.2-1.6-0.6-2.2c-0.4-0.6-0.9-1-1.5-1.4c-0.6-0.3-1.3-0.5-1.9-0.5
				c-0.6,0-1.1,0.1-1.6,0.3c-0.5,0.2-0.9,0.5-1.1,0.9c0-0.9,0.3-1.7,0.8-2.2c0.5-0.5,1.2-0.8,2.1-0.8c0.4,0,0.8,0,1.2,0.1
				c0.4,0.1,0.7,0.2,1.1,0.3L107,173.1z M89.9,184.1h7.5v-2h-2.3v-9.5H93l-3.9,2.9l1.2,1.6l2.4-1.8v6.8h-2.8V184.1z M82.3,184.3
				c1.1,0,2.1-0.3,2.9-0.8c0.8-0.5,1.4-1.2,1.8-2.1c0.4-0.9,0.6-1.9,0.6-3c0-1.1-0.2-2.1-0.6-3c-0.4-0.9-1-1.6-1.8-2.1
				s-1.8-0.8-2.9-0.8c-1.1,0-2.1,0.3-2.9,0.8c-0.8,0.5-1.4,1.2-1.8,2.1c-0.4,0.9-0.6,1.9-0.6,3c0,1.1,0.2,2.1,0.6,3
				c0.4,0.9,1,1.6,1.8,2.1C80.2,184,81.2,184.3,82.3,184.3z M66.8,173.5v2.9h2.1v-1.6c0.2-0.1,0.4-0.2,0.7-0.2
				c0.2-0.1,0.5-0.1,0.7-0.1c0.7,0,1.2,0.2,1.6,0.5c0.4,0.3,0.6,0.8,0.6,1.4c0,0.5-0.1,1-0.4,1.5c-0.3,0.5-0.7,1-1.3,1.6
				c-0.7,0.7-1.4,1.3-2,1.8c-0.7,0.5-1.3,1-1.9,1.4v1.5h8.2v-2h-4.5c0.3-0.2,0.7-0.4,1-0.7c0.3-0.2,0.7-0.5,1-0.8
				c0.8-0.7,1.4-1.4,1.8-2.1c0.4-0.7,0.6-1.4,0.6-2.2c0-1.2-0.4-2.2-1.2-2.8c-0.8-0.7-1.9-1-3.3-1c-0.7,0-1.3,0.1-2,0.3
				C67.9,172.9,67.3,173.2,66.8,173.5z M104,153.5c0.5,0.2,0.9,0.4,1.1,0.6c0.2,0.2,0.4,0.5,0.4,0.7c0,0.3-0.1,0.5-0.4,0.6
				c-0.2,0.1-0.5,0.2-0.9,0.2c-0.2,0-0.4,0-0.5-0.1s-0.3-0.1-0.5-0.1v-1h-1.4v1.9c0.3,0.2,0.7,0.4,1.1,0.5c0.4,0.1,0.9,0.2,1.3,0.2
				c1,0,1.7-0.2,2.2-0.7c0.5-0.4,0.8-1,0.8-1.8c0-0.6-0.2-1.1-0.6-1.5c-0.4-0.4-0.9-0.8-1.6-1.1c-0.5-0.2-0.9-0.5-1.2-0.6
				c-0.2-0.2-0.3-0.4-0.3-0.6c0-0.2,0.1-0.4,0.3-0.5c0.2-0.1,0.4-0.2,0.8-0.2c0.1,0,0.3,0,0.4,0c0.2,0,0.3,0.1,0.4,0.1v0.8h1.4v-1.7
				c-0.3-0.2-0.6-0.4-1-0.5c-0.4-0.1-0.8-0.2-1.2-0.2c-0.9,0-1.5,0.2-2,0.6c-0.5,0.4-0.7,0.9-0.7,1.6c0,0.5,0.2,1,0.5,1.4
				C102.7,152.8,103.2,153.1,104,153.5z M93.6,150.3h0.9l-2.1,5.3h-0.8v1.4h3.2v-1.4h-0.7l0.3-0.7h2.8l0.3,0.7h-0.7v1.4h3.2v-1.4
				h-0.8l-2.7-6.7h-2.8V150.3z M90.2,155.6h-0.9l-0.4-5.2h0.9V149h-2.2l-2.7,4l-2.7-4H80v1.4h0.9l-0.4,5.2h-0.9v1.4h3.5v-1.4h-0.9
				l0.3-3.8l2.1,3.1h0.8l2.1-3.1l0.2,3.8h-0.9v1.4h3.5V155.6z M78.2,153.7v-1.4h-3.3v1.4H78.2z M74.3,149h-3.1v1.4h0.4l-1,1.4
				l-1-1.4H70V149h-3.1v1.4h0.9l1.9,2.7l-1.8,2.6H67v1.4h3.1v-1.4h-0.4l0.9-1.3l0.9,1.3h-0.4v1.4h3.1v-1.4h-0.9l-1.8-2.6l1.9-2.7
				h0.9V149z"/>
		</g>
		<path class="st3" d="M80.9,20.3c0.9-0.6,1.9-1,3-1.3c1.1-0.3,2.3-0.5,3.5-0.5c2.5,0,4.5,0.6,5.8,1.8c1.4,1.2,2.1,2.9,2.1,5
			c0,1.5-0.3,2.8-1,3.9c-0.7,1.1-1.7,2.3-3.1,3.6c-0.6,0.5-1.2,1-1.7,1.4c-0.6,0.4-1.2,0.8-1.8,1.2h8V39H81.2v-2.6
			c1.1-0.7,2.2-1.6,3.3-2.5s2.3-2,3.6-3.2c1.1-1,1.8-1.9,2.3-2.8c0.4-0.8,0.7-1.7,0.6-2.6c0-1.1-0.4-1.8-1.1-2.4
			c-0.7-0.5-1.7-0.8-2.9-0.8c-0.5,0-0.9,0.1-1.3,0.2c-0.4,0.1-0.8,0.2-1.2,0.4v2.8h-3.7V20.3z"/>
	</g>
</g>
</svg>
