<?xml version="1.0" encoding="utf-8"?>
<!-- Generator: Adobe Illustrator 16.0.3, SVG Export Plug-In . SVG Version: 6.00 Build 0)  -->
<!DOCTYPE svg PUBLIC "-//W3C//DTD SVG 1.1//EN" "http://www.w3.org/Graphics/SVG/1.1/DTD/svg11.dtd">
<svg version="1.1" id="Layer_1" xmlns="http://www.w3.org/2000/svg" xmlns:xlink="http://www.w3.org/1999/xlink" x="0px" y="0px"
	 width="50px" height="50px" viewBox="0 0 50 50" enable-background="new 0 0 50 50" xml:space="preserve">
<path fill="#F5EA14" d="M46.59,17.334l-12.95-2.013L27.952,3.515c-0.518-1.077-1.581-1.748-2.774-1.765
	c-0.933,0.074-2.222,0.564-2.806,1.711l-5.913,11.696L3.47,16.91c-1.186,0.164-2.158,0.967-2.533,2.098
	C0.558,20.14,0.846,21.365,1.69,22.2l9.3,9.241L8.646,44.342c-0.201,1.14,0.265,2.343,1.21,3.044c0.933,0.688,2.236,0.806,3.27,0.28
	l11.665-5.994l11.544,6.21c1.021,0.555,2.317,0.477,3.265-0.196c0.966-0.687,1.467-1.875,1.276-3.033l-2.092-12.941l9.475-9.055
	c0.864-0.825,1.184-2.042,0.825-3.184C48.721,18.341,47.778,17.519,46.59,17.334z"/>
</svg>
