<?xml version="1.0" encoding="utf-8"?>
<!-- Generator: Adobe Illustrator 20.1.0, SVG Export Plug-In . SVG Version: 6.00 Build 0)  -->
<!DOCTYPE svg PUBLIC "-//W3C//DTD SVG 1.1//EN" "http://www.w3.org/Graphics/SVG/1.1/DTD/svg11.dtd">
<svg version="1.1" id="Ebene_1" xmlns="http://www.w3.org/2000/svg" xmlns:xlink="http://www.w3.org/1999/xlink" x="0px" y="0px"
	 viewBox="0 0 176.7 249.7" style="enable-background:new 0 0 176.7 249.7;" xml:space="preserve">
<style type="text/css">
	.st0{fill:#813A79;}
	.st1{fill:#8E4E87;}
	.st2{clip-path:url(#SVGID_2_);fill:#FFFFFF;}
	.st3{clip-path:url(#SVGID_2_);fill:#B389AE;}
</style>
<g>
	<polygon class="st0" points="-0.1,0 -0.1,171.5 88.4,249.7 88.4,0 	"/>
	<polygon class="st1" points="88.4,0 88.4,249.7 176.8,171.5 176.8,0 	"/>
	<g>
		<defs>
			<rect id="SVGID_1_" x="-0.1" width="176.9" height="249.7"/>
		</defs>
		<clipPath id="SVGID_2_">
			<use xlink:href="#SVGID_1_"  style="overflow:visible;"/>
		</clipPath>
		<path class="st2" d="M147.5,21.3h-8.9v3.7h2.3v9.5l-10-13.2h-5.5v3.7h2.3v13.7h-2.3v3.7h8.9v-3.7h-2.3v-9.5l10,13.2h3.2V24.9h2.3
			V21.3z M110.9,24.9h2.3v13.8h-2.3v3.6h8.9v-3.6h-2.3V24.9h2.3v-3.6h-8.9V24.9z M105.5,38.6h-2.3l-1.1-13.7h2.3v-3.7h-5.8l-7,10.5
			l-7-10.5h-5.8v3.7h2.3l-1.1,13.7h-2.3v3.7h9.1v-3.7h-2.4l0.7-9.8l5.5,8.2h2.2l5.5-8.2l0.6,9.8h-2.4v3.7h9.1V38.6z M69.3,31.8
			c0,4.5-3.1,6.8-7,6.8h-2.7V24.9h2.7C66.2,24.9,69.3,27.2,69.3,31.8 M52.9,24.9h2.3v13.7h-2.3v3.7h9.3c6.8,0,11.4-3.8,11.4-10.5
			c0-6.7-4.6-10.5-11.4-10.5h-9.3V24.9z M38.6,27.2l2.4,6.2h-4.7L38.6,27.2z M33.1,24.9h2.3l-5.6,13.8h-2.2v3.6h8.4v-3.6h-1.8
			l0.7-1.9h7.2l0.7,1.9h-1.8v3.6h8.4v-3.6h-2.2l-7-17.4h-7.2V24.9z"/>
		<path class="st3" d="M134.4,24.1l-1.5-1l6.9,9.2v-0.9L134.4,24.1z M134.9,34.2l-1.5-1.9v5.9h0.9v0.7l0.6,0.4V34.2z M135.7,39.8
			v3.9h-9l1.5,1h9v-3.9L135.7,39.8z M148.9,22.6v3.7h-2.3v17.3h-3l1.5,1h3V27.4h2.3v-3.7L148.9,22.6z M120.3,39.4V27.3h2.3v-3.7
			l-1.5-1v3.7h-2.3v11.9h0.9V39L120.3,39.4z M121.2,40v3.7h-9l1.5,1h9V41L121.2,40z M91.7,30.1l-4-6.1l-1.2-1l4.9,7.4L91.7,30.1z
			 M87.4,39.4l0.3-5.1l-1.4-2.1l-0.4,6h0.9v0.8L87.4,39.4z M97.4,33l-3.6,5.3h-1.7l1.5,1h1.8v-1.2h1l1.3-1.9L97.4,33z M88.2,39.9
			v3.8H79l1.5,1h9.1v-3.8L88.2,39.9z M106.8,39.9v3.8h-9.1l1.5,1h9.1v-3.8L106.8,39.9z M107.3,27.4v-3.7l-1.5-1v3.7h-2.3l0.9,11.8h1
			v0.8l0.5,0.4l-1-11.9H107.3z M67,27.7c-0.2-0.3-0.5-0.6-0.8-0.8c-0.9-0.4-2-0.6-3-0.6h-2.4v11.8h1.5V27.4h2.4
			C65.5,27.4,66.3,27.5,67,27.7 M71.8,25.1c2.1,1.5,3.1,4.1,3.1,7.7c0,6.9-4.7,10.9-11.8,10.9h-9l1.5,1.1h9c7,0,11.8-3.9,11.8-10.9
			c0-3.9-1.2-6.4-3.5-7.9L71.8,25.1z M38.9,30.9L38.1,33h1.6L38.9,30.9z M37.3,39.2h2.8v-1H36v0.5l1.2,0.9L37.3,39.2z M50.9,40v3.7
			h-8.5l1.5,1h8.5v-3.7L50.9,40z M37.4,43.7h-8.5l1.5,1h8.5v-3.8l-1.5-1.1V43.7z M41.8,22.7l6.3,15.5h1l-5.9-14.5L41.8,22.7z"/>
		<path class="st2" d="M130.8,96.9c0-1-0.6-1.7-1.6-1.7c-1,0-12.3,7.1-13.9,8.1l-9.4-5.2v-11l14.3-8.3c0.4-0.3,0.8-0.8,0.8-1.4
			c0-0.6-0.3-1-0.8-1.4c-3-2-7.6-3.1-11.2-3.1c-12.1,0-21.9,9.8-21.9,21.9c0,12.1,9.8,21.9,21.9,21.9c9.2,0,17.6-6,20.7-14.7
			C130.2,100.6,130.8,98.5,130.8,96.9 M99.8,118.2c-6.4-2.5-11.5-7.7-14.1-14.1l-33.3,33.3c-1.2,1.2-1.9,2.8-1.9,4.5
			c0,1.7,0.7,3.3,1.9,4.4l5.2,5.3c1.2,1.1,2.8,1.8,4.5,1.8s3.3-0.7,4.4-1.8L99.8,118.2z M68.3,138.8c0,1.7-1.4,3.1-3.1,3.1
			s-3.1-1.4-3.1-3.1c0-1.7,1.4-3.1,3.1-3.1S68.3,137,68.3,138.8"/>
		<path class="st3" d="M99.1,123l-1.9,1.9l0,0L67.1,155c-1.1,1.1-2.7,1.8-4.4,1.8c-1.7,0-3.3-0.7-4.5-1.8l-3.8-3.9
			c0.3,0.8,0.8,1.5,1.4,2l5.2,5.3c1.2,1.1,2.8,1.8,4.5,1.8c1.7,0,3.3-0.7,4.4-1.8l33.4-33.4C101.8,124.5,100.4,123.8,99.1,123
			 M124.4,84.4c0-0.6-0.3-1-0.8-1.4c-0.7-0.5-1.5-0.9-2.3-1.2c-0.1,0.2-0.3,0.4-0.5,0.5l-14.3,8.3V97l2.8,1.6V94l14.3-8.3
			C124.1,85.4,124.4,84.9,124.4,84.4 M134.2,103.8c0-1-0.6-1.7-1.6-1.7c-0.2,0-0.7,0.3-1.5,0.7c-0.2,1-0.5,1.9-0.8,2.8
			c-3.1,8.7-11.4,14.7-20.7,14.7c-2.4,0-4.6-0.4-6.7-1.1l-1.5,1.5c3.2,1.9,7,3,11,3c9.2,0,17.6-6,20.7-14.7
			C133.7,107.5,134.2,105.4,134.2,103.8"/>
	</g>
</g>
</svg>
