<?xml version="1.0" encoding="utf-8"?>
<!-- Generator: Adobe Illustrator 20.1.0, SVG Export Plug-In . SVG Version: 6.00 Build 0)  -->
<!DOCTYPE svg PUBLIC "-//W3C//DTD SVG 1.1//EN" "http://www.w3.org/Graphics/SVG/1.1/DTD/svg11.dtd">
<svg version="1.1" id="Ebene_1" xmlns="http://www.w3.org/2000/svg" xmlns:xlink="http://www.w3.org/1999/xlink" x="0px" y="0px"
	 viewBox="0 0 176.7 249.7" style="enable-background:new 0 0 176.7 249.7;" xml:space="preserve">
<style type="text/css">
	.st0{fill:#3F5963;}
	.st1{fill:#50656F;}
	.st2{fill:#859098;}
	.st3{fill:#FFFFFF;}
	.st4{clip-path:url(#SVGID_2_);fill:#FFFFFF;}
	.st5{clip-path:url(#SVGID_2_);fill:#859098;}
</style>
<g>
	<polygon class="st0" points="-0.1,0 -0.1,171.5 88.4,249.7 88.4,0 	"/>
	<polygon class="st1" points="88.4,0 88.4,249.7 176.8,171.5 176.8,0 	"/>
	<path class="st2" d="M107.8,158.1l19.1-14.8l-3.8-0.1l-16,12.4L107.8,158.1z M66.6,184.6l-1.1,3.8l23.5-16.4l23.5,16.4l-1.1-3.8
		l-22.3-15.6L66.6,184.6z M54.8,143.1l-3.8,0.1L70,158.1l0.7-2.5L54.8,143.1z"/>
	<polygon class="st3" points="88.9,109.2 79.4,136.4 50.9,137.2 73.5,154.7 65.4,182.4 88.9,166 112.3,182.4 104.2,154.7 
		126.8,137.2 98.4,136.4 	"/>
	<path class="st2" d="M137.9,107.5l13.3-10.3l-2.7-0.1l-11.1,8.6L137.9,107.5z M109.2,126l-0.8,2.7l16.3-11.4l16.3,11.4l-0.8-2.7
		l-15.6-10.8L109.2,126z M101,97.1l-2.7,0.1l13.3,10.3l0.5-1.7L101,97.1z"/>
	<polygon class="st3" points="124.9,73 118.3,91.9 98.4,92.5 114.2,104.7 108.5,124 124.9,112.6 141.2,124 135.6,104.7 151.3,92.5 
		131.5,91.9 	"/>
	<path class="st2" d="M65.2,107.5l13.3-10.3l-2.7-0.1l-11.1,8.6L65.2,107.5z M36.4,126l-0.8,2.7L52,117.3l16.3,11.4l-0.8-2.7
		L52,115.1L36.4,126z M28.2,97.1l-2.7,0.1l13.3,10.3l0.5-1.7L28.2,97.1z"/>
	<polygon class="st3" points="52,73.3 45.4,92.3 25.5,92.8 41.3,105 35.6,124.3 52,112.9 68.3,124.3 62.7,105 78.4,92.8 58.6,92.3 	
		"/>
	<g>
		<defs>
			<rect id="SVGID_1_" x="-0.1" width="176.9" height="249.7"/>
		</defs>
		<clipPath id="SVGID_2_">
			<use xlink:href="#SVGID_1_"  style="overflow:visible;"/>
		</clipPath>
		<path class="st4" d="M148.7,24.9h2.8c2.4,0,4,1.2,4,3.7s-1.6,3.7-4,3.7h-2.8V24.9z M142.1,42.3h8.7v-3.6h-2.1v-2.8h2.9l3.6,5.3
			c0.6,0.8,1.2,1.1,2.2,1.1h3.5v-3.6h-2.6l-2.6-3.6c2.6-1.2,4.1-3.6,4.1-6.5c0-4.1-3.1-7.3-8.3-7.3h-9.5v3.6h2.3v13.8h-2.3V42.3z
			 M136.5,42.3v-6.3h-3.9v2.7h-5v-4.5h4.9v-3.7h-4.9v-5.5h5v2.7h3.9v-6.3H121v3.7h2.3v13.7H121v3.7H136.5z M115.9,21.3H107v3.7h2.3
			v9.5l-10-13.2h-5.5v3.7h2.3v13.7h-2.3v3.7h8.9v-3.7h-2.3v-9.5l10,13.2h3.2V24.9h2.3V21.3z M88.7,21.3h-8.9v3.7h2.3v9.5l-10-13.2
			h-5.5v3.7H69v13.7h-2.3v3.7h8.9v-3.7h-2.3v-9.5l10,13.2h3.2V24.9h2.3V21.3z M39.5,24.9h2.3v8.5c0,6.4,4,9.2,8.8,9.2
			s8.8-2.9,8.8-9.2v-8.5h2.3v-3.6h-8.9v3.6h2.3v8.8c0,3.7-2.2,5.3-4.5,5.3s-4.5-1.6-4.5-5.3v-8.8h2.3v-3.6h-8.9V24.9z M23.7,24.9
			h2.8c2.4,0,4,1.2,4,3.7s-1.6,3.7-4,3.7h-2.8V24.9z M17.1,42.3h8.7v-3.6h-2.1v-2.8h2.9l3.6,5.3c0.6,0.8,1.2,1.1,2.2,1.1H36v-3.6
			h-2.6L30.8,35c2.6-1.2,4.1-3.6,4.1-6.5c0-4.1-3.1-7.3-8.3-7.3h-9.5v3.6h2.3v13.8h-2.3V42.3z"/>
		<path class="st5" d="M156.8,43.1l0.1,0.1C156.9,43.2,156.9,43.1,156.8,43.1 M150.7,38.9l0.8,0.6v-1.1h0.8l-0.7-1H150v0.9h0.7V38.9
			z M162.3,40v3.7h-3.7c-0.6,0-1.1-0.2-1.6-0.5l1.7,1.1c0.5,0.4,1.1,0.5,1.8,0.5h3.3V41L162.3,40z M154.3,27.3
			c-0.1-0.3-0.2-0.5-0.4-0.8c-0.4-0.1-0.9-0.2-1.5-0.2H150v5.6h1.5v-4.5H154.3z M152.1,39.9v3.8h-8.8l1.5,1h8.8V41L152.1,39.9z
			 M159.1,24.7c1.3,1.1,2,2.6,2,5c0,2.9-1.5,5.1-3.9,6.5l1.5,2.1h0.7l-0.7-1c2.5-1.4,3.9-3.8,3.9-6.6c0-1.7-0.7-4-2.7-5.3
			L159.1,24.7z M133.8,31.8v3.7h1.5v-2.7L133.8,31.8z M129,38.1h1.5v-1.6h1.2v-1.1H129V38.1z M131.6,26.4H129V30h1.5v-2.6h1.2V26.4z
			 M137.8,22.6V29h-4l1.5,1h4v-6.4L137.8,22.6z M137.8,37.3v6.4h-15.6l1.5,1h15.6v-6.4L137.8,37.3z M102.8,24.1l-1.5-1l6.9,9.2v-0.9
			L102.8,24.1z M103.2,34.2l-1.5-1.9v5.8h0.9v0.7l0.6,0.4V34.2z M104.1,39.8v3.9h-9l1.5,1h9v-3.9L104.1,39.8z M117.2,22.6v3.7h-2.3
			v17.3h-3l1.5,1h3V27.4h2.3v-3.7L117.2,22.6z M75.6,24.1l-1.5-1l6.9,9.2v-0.9L75.6,24.1z M76.1,34.2l-1.5-1.9v5.8h0.9v0.7l0.6,0.4
			V34.2z M76.9,39.8v3.9h-9l1.5,1h9v-3.9L76.9,39.8z M90.1,22.6v3.7h-2.3v17.3h-3l1.5,1h3V27.4h2.3v-3.7L90.1,22.6z M49.7,22.6v3.7
			h-2.3v8.4c0,1.6,0.4,2.7,1,3.5c0.2,0.1,0.6,0.2,1,0.3c-0.4-0.7-0.5-1.6-0.5-2.7v-8.4h2.3v-3.7L49.7,22.6z M47,42.7
			c1.9,1.5,3.9,2.4,6,2.4c5,0,9.2-3,9.2-9.6v-8.1h2.3v-3.7l-1.5-1v3.7h-2.3v8.1c0,6.6-4.2,9.6-9.2,9.6c-1.9,0-3-0.3-4.2-1.1L47,42.7
			z M31.8,43.1l0.1,0.1C31.9,43.2,31.9,43.1,31.8,43.1 M25.7,38.9l0.8,0.6v-1.1h0.8l-0.7-1H25v0.9h0.7V38.9z M37.3,40v3.7h-3.7
			c-0.6,0-1.1-0.2-1.6-0.5l1.7,1.1c0.5,0.4,1.1,0.5,1.8,0.5h3.3V41L37.3,40z M29.3,27.3c-0.1-0.3-0.2-0.5-0.4-0.8
			c-0.4-0.1-0.9-0.2-1.5-0.2H25v5.6h1.5v-4.5H29.3z M27.1,39.9v3.8h-8.8l1.5,1h8.8V41L27.1,39.9z M34.1,24.7c1.3,1.1,2,2.6,2,5
			c0,2.9-1.5,5.1-3.9,6.5l1.5,2.1h0.7l-0.7-1c2.5-1.4,3.9-3.8,3.9-6.6c0-1.7-0.7-4-2.7-5.3L34.1,24.7z"/>
	</g>
</g>
</svg>
