<?xml version="1.0" encoding="utf-8"?>
<!-- Generator: Adobe Illustrator 20.1.0, SVG Export Plug-In . SVG Version: 6.00 Build 0)  -->
<!DOCTYPE svg PUBLIC "-//W3C//DTD SVG 1.1//EN" "http://www.w3.org/Graphics/SVG/1.1/DTD/svg11.dtd">
<svg version="1.1" id="Ebene_1" xmlns="http://www.w3.org/2000/svg" xmlns:xlink="http://www.w3.org/1999/xlink" x="0px" y="0px"
	 viewBox="0 0 176.7 249.7" style="enable-background:new 0 0 176.7 249.7;" xml:space="preserve">
<style type="text/css">
	.st0{fill:#F6A000;}
	.st1{fill:#F8AA23;}
	.st2{fill:#FCC877;}
	.st3{fill:#FFFFFF;}
	.st4{clip-path:url(#SVGID_2_);fill:#FCC877;}
	.st5{clip-path:url(#SVGID_2_);fill:#FFFFFF;}
</style>
<g>
	<polygon class="st0" points="-0.1,0 -0.1,171.5 88.4,249.7 88.4,0 	"/>
	<polygon class="st1" points="88.4,0 88.4,249.7 176.8,171.5 176.8,0 	"/>
	<path class="st2" d="M107.8,173.9l19.1-14.8L123,159l-16,12.4L107.8,173.9z M66.5,200.5l-1.1,3.8L88.9,188l23.5,16.4l-1.1-3.8
		l-22.3-15.6L66.5,200.5z M54.7,159l-3.8,0.1L70,173.9l0.7-2.5L54.7,159z"/>
	<polygon class="st3" points="88.9,124.9 79.4,152.1 50.9,152.8 73.5,170.4 65.4,198 88.9,181.7 112.3,198 104.2,170.4 126.8,152.8 
		98.4,152.1 	"/>
	<path class="st2" d="M127.2,88l6.6-5.2l-1.3,0l-5.6,4.3L127.2,88z M112.8,97.3l-0.4,1.3l8.2-5.7l8.2,5.7l-0.4-1.3l-7.8-5.4
		L112.8,97.3z M108.7,82.8l-1.3,0L114,88l0.3-0.9L108.7,82.8z"/>
	<polygon class="st3" points="120.6,70.9 117.3,80.4 107.4,80.6 115.3,86.8 112.4,96.4 120.6,90.7 128.8,96.4 126,86.8 133.8,80.6 
		123.9,80.4 	"/>
	<path class="st2" d="M153.1,127.1l11.1-8.6l-2.2-0.1l-9.3,7.2L153.1,127.1z M129.2,142.5l-0.7,2.2l13.6-9.5l13.6,9.5l-0.7-2.2
		l-13-9.1L129.2,142.5z M122.3,118.4l-2.2,0.1l11.1,8.6l0.4-1.4L122.3,118.4z"/>
	<polygon class="st3" points="142.1,98.6 136.6,114.4 120.1,114.8 133.2,125 128.5,141.1 142.1,131.6 155.8,141.1 151.1,125 
		164.2,114.8 147.7,114.4 	"/>
	<path class="st2" d="M45.6,127.1l11.1-8.6l-2.2-0.1l-9.3,7.2L45.6,127.1z M21.6,142.5l-0.7,2.2l13.6-9.5l13.6,9.5l-0.7-2.2l-13-9.1
		L21.6,142.5z M14.8,118.4l-2.2,0.1l11.1,8.6l0.4-1.4L14.8,118.4z"/>
	<polygon class="st3" points="34.6,98.6 29.1,114.4 12.5,114.8 25.7,125 21,141.1 34.6,131.6 48.2,141.1 43.5,125 56.7,114.8 
		40.1,114.4 	"/>
	<path class="st2" d="M62.7,88l6.6-5.2l-1.3,0l-5.6,4.3L62.7,88z M48.4,97.3L48,98.6l8.2-5.7l8.2,5.7l-0.4-1.3l-7.8-5.4L48.4,97.3z
		 M44.2,82.8l-1.3,0l6.6,5.2l0.3-0.9L44.2,82.8z"/>
	<polygon class="st3" points="56.1,70.9 52.8,80.4 42.9,80.6 50.8,86.8 48,96.4 56.1,90.7 64.3,96.4 61.5,86.8 69.4,80.6 59.4,80.4 
			"/>
	<g>
		<defs>
			<rect id="SVGID_1_" x="-0.1" width="176.9" height="249.7"/>
		</defs>
		<clipPath id="SVGID_2_">
			<use xlink:href="#SVGID_1_"  style="overflow:visible;"/>
		</clipPath>
		<path class="st4" d="M151.1,26.6c-0.5-0.2-1.3-0.2-1.9-0.2h-2.1V33h0.4c0.4,0,0.9,0,1.3-0.1v-5.4h2.1c0.3,0,0.6,0,0.9,0.1
			C151.6,27.2,151.3,26.8,151.1,26.6 M150.5,41.8v4.3h-11l1.7,1.2h11v-4.3L150.5,41.8z M149.4,40.4h1.8c6.2,0,10-3.8,10-8.9
			c0-3-1.2-5.2-3.5-6.8l-1-0.7c1.9,1.4,2.8,3.4,2.8,6.3c0,5.2-3.8,8.9-10,8.9h-2.5V40h1.6L149.4,40.4z M116.5,30.7l-4.6-6.9
			l-1.3-1.1l5.6,8.4L116.5,30.7z M111.7,41.2l0.4-5.8l-1.6-2.4l-0.5,6.8h1v0.8L111.7,41.2z M123.1,34l-4,6.1h-1.9l1.6,1.2h2v-1.4
			h1.1l1.4-2.1L123.1,34z M112.6,41.8v4.3h-10.3l1.7,1.2h10.3V43L112.6,41.8z M133.7,41.8v4.3h-10.3l1.7,1.2h10.3V43L133.7,41.8z
			 M134.2,27.6v-4.2l-1.7-1.2v4.2h-2.6l1.1,13.4h1.1v0.8l0.6,0.4l-1.1-13.5H134.2z M85.2,31.6L84.3,34h1.8L85.2,31.6z M83.4,41h3.1
			v-1.1h-4.7v0.6l1.4,1.1L83.4,41z M98.7,42v4.1h-9.6l1.7,1.2h9.6v-4.1L98.7,42z M83.4,46.1h-9.6l1.7,1.2h9.6V43l-1.7-1.2V46.1z
			 M88.5,22.3l7.1,17.6h1.2l-6.6-16.5L88.5,22.3z M54.8,40.8l0.7,0.5v-3.1h4.2v-1.2h-5.8v2.8h1V40.8z M57.1,25.3v-2.6l-0.6-0.5v4.1
			h-2.6v4.4h1.7v-3.2h2.6V26L57.1,25.3z M57.1,45v-2.6l-0.6-0.4v4.2H46.3l1.7,1.2h10.2v-1.5L57.1,45z M69.9,41.7v4.5H59.7l1.6,1.2
			h10.2v-4.5L69.9,41.7z M68.9,27.6h2.6v-4.1l-1.7-1.2v4.1h-2.6v13.5h1v0.6l0.7,0.5V27.6z M40.8,23.4v6.5h-4.5l1.7,1.2h4.5v-6.5
			L40.8,23.4z M39.6,41.3L41,45c-2.3,1.2-4.7,1.5-7,1.5c-2.6,0-4.4-0.4-6.5-1.6l1.1,0.7c2.1,1.4,4,2.1,7.1,2.1
			c2.3,0,4.7-0.4,6.9-1.5l-1.4-3.7L39.6,41.3z M33.7,26.1c-3.9,0-7,3.1-7,7.6c0,2.4,0.8,4.2,2,5.5c0.4,0.2,0.7,0.4,1.1,0.5
			c-1-1.2-1.5-2.8-1.5-4.8c0-3.8,2.3-6.7,5.4-7.4V26.1z"/>
		<path class="st5" d="M152.5,29.4c0,2.9-1.8,4.4-5,4.4H145v-8.8h2.5C150.7,25.1,152.5,26.5,152.5,29.4 M137.5,25.1h2.6v15.7h-2.6v4
			h10.9v-4H145v-2.9h2.9c5.9,0,9.6-3.6,9.6-8.5s-3.6-8.5-9.6-8.5h-10.4V25.1z M131.6,40.6H129l-1.2-15.5h2.7V21h-6.6l-8,11.9
			l-8-11.9h-6.6v4.1h2.6l-1.2,15.5h-2.6v4.1h10.3v-4.1h-2.7l0.7-11.2l6.2,9.2h2.4l6.2-9.2l0.7,11.2h-2.7v4.1h10.3V40.6z M84.2,27.7
			l2.7,7h-5.4L84.2,27.7z M77.9,25.1h2.6l-6.3,15.6h-2.5v4.1h9.6v-4.1h-2.1l0.8-2.2h8.2l0.8,2.2H87v4.1h9.6v-4.1h-2.5l-8-19.7h-8.2
			V25.1z M67.7,40.7h-2.6V25.1h2.6V21H57.6v4.1h2.6v6.5h-8.5v-6.5h2.6V21H44.2v4.1h2.6v15.6h-2.6v4.1h10.1v-4.1h-2.6v-5h8.5v5h-2.6
			v4.1h10.1V40.7z M19.6,32.9c0,7.6,5.9,12.3,12.8,12.3c2.3,0,4.6-0.3,6.5-1.3l-1.5-3.9c-1.4,0.7-3,1-4.9,1c-4,0-7.9-2.8-7.9-8.1
			c0-4.8,3.3-8.1,7.5-8.1c0.7,0,1.5,0.1,2.2,0.3v3.4h4.4v-6.4c-1.8-1-4.3-1.5-6.6-1.5C25.4,20.6,19.6,25.5,19.6,32.9"/>
	</g>
</g>
</svg>
