<?xml version="1.0" encoding="utf-8"?>
<!-- Generator: Adobe Illustrator 20.1.0, SVG Export Plug-In . SVG Version: 6.00 Build 0)  -->
<!DOCTYPE svg PUBLIC "-//W3C//DTD SVG 1.1//EN" "http://www.w3.org/Graphics/SVG/1.1/DTD/svg11.dtd">
<svg version="1.1" id="Ebene_1" xmlns="http://www.w3.org/2000/svg" xmlns:xlink="http://www.w3.org/1999/xlink" x="0px" y="0px"
	 viewBox="0 0 176.7 249.7" style="enable-background:new 0 0 176.7 249.7;" xml:space="preserve">
<style type="text/css">
	.st0{fill:#3A6732;}
	.st1{fill:#4C7342;}
	.st2{clip-path:url(#SVGID_2_);fill:#839E78;}
	.st3{clip-path:url(#SVGID_2_);fill:#FFFFFF;}
</style>
<g>
	<polygon class="st0" points="-0.1,0 -0.1,171.5 88.4,249.7 88.4,0 	"/>
	<polygon class="st1" points="88.4,0 88.4,249.7 176.8,171.5 176.8,0 	"/>
	<g>
		<defs>
			<rect id="SVGID_1_" x="-0.1" width="176.9" height="249.7"/>
		</defs>
		<clipPath id="SVGID_2_">
			<use xlink:href="#SVGID_1_"  style="overflow:visible;"/>
		</clipPath>
		<path class="st2" d="M158.5,43.1l0.1,0.1C158.6,43.2,158.6,43.1,158.5,43.1 M152.4,38.9l0.8,0.6v-1.1h0.8l-0.7-1h-1.5v0.9h0.7
			V38.9z M164,40v3.7h-3.7c-0.6,0-1.1-0.2-1.6-0.5l1.7,1c0.5,0.4,1.1,0.5,1.8,0.5h3.3V41L164,40z M156,27.3
			c-0.1-0.3-0.2-0.5-0.4-0.8c-0.4-0.1-0.9-0.2-1.5-0.2h-2.4v5.5h1.5v-4.5H156z M153.8,39.9v3.8H145l1.5,1h8.8V41L153.8,39.9z
			 M160.8,24.7c1.3,1.1,2,2.6,2,5c0,2.9-1.5,5.1-3.9,6.5l1.5,2.1h0.7l-0.7-1c2.5-1.4,3.9-3.8,3.9-6.6c0-1.7-0.7-4-2.7-5.3
			L160.8,24.7z M131.7,26.5c-0.8-0.3-1.7-0.5-2.6-0.5c-3.6,0-6.5,2.8-6.5,6.8c0,1.9,0.5,3.5,1.6,4.7c0.2,0.1,0.5,0.3,0.7,0.4
			c-0.5-1.1-0.8-2.6-0.8-4c0-4.1,2.9-6.8,6.5-6.8c0.7,0,1.4,0.1,1.9,0.3C132.3,27.1,132,26.7,131.7,26.5 M124.4,43
			c0.8,0.5,1.5,1,2.4,1.4c0.9,0.4,2.1,0.7,3.8,0.7c6.5,0,11.6-4.7,11.6-11.2c0-3.9-1.8-6.5-3.6-7.8l-0.9-0.6c1.9,1.6,3,3.9,3,7.4
			c0,6.6-5.1,11.2-11.6,11.2C127,44,125.6,43.7,124.4,43 M101.2,26.4h-0.4V29H97l1.5,1h2.8V26.4z M114.4,22.6V29h-3.9l1.4,1h3.9
			v-6.4L114.4,22.6z M110.2,39.8v3.9h-9l1.5,1h9v-3.9L110.2,39.8z M109.3,39.3V28.8l-1-0.7v-1.7h-0.4v11.8h0.9v0.8L109.3,39.3z
			 M78.1,24.1l-1.5-1l6.9,9.2v-0.9L78.1,24.1z M78.5,34.2L77,32.3v5.8h0.9v0.7l0.6,0.4V34.2z M79.3,39.8v3.9h-9l1.5,1h9v-3.9
			L79.3,39.8z M92.5,22.6v3.7h-2.3v17.3h-3l1.5,1h3V27.4H94v-3.7L92.5,22.6z M60.8,31.8v3.7h1.5v-2.7L60.8,31.8z M56,38.1h1.5v-1.6
			h1.2v-1.1H56V38.1z M58.6,26.4H56V30h1.5v-2.6h1.2V26.4z M64.9,22.6V29h-4l1.5,1h4v-6.4L64.9,22.6z M64.9,37.3v6.4H49.3l1.5,1
			h15.6v-6.4L64.9,37.3z M29,30.1L25,24l-1.2-1l5,7.4L29,30.1z M24.7,39.4l0.3-5.1l-1.4-2.1l-0.4,6h0.9v0.8L24.7,39.4z M34.8,33
			l-3.6,5.3h-1.7l1.5,1h1.8v-1.2h1l1.3-1.9L34.8,33z M25.5,39.9v3.8h-9.1l1.5,1H27v-3.8L25.5,39.9z M44.2,39.9v3.8h-9.1l1.5,1h9.1
			v-3.8L44.2,39.9z M44.6,27.4v-3.7l-1.5-1v3.7h-2.3l0.9,11.8h1v0.8l0.5,0.4l-1-11.9H44.6z"/>
		<path class="st3" d="M150.4,24.9h2.8c2.4,0,4,1.2,4,3.7c0,2.5-1.6,3.7-4,3.7h-2.8V24.9z M143.8,42.3h8.7v-3.6h-2.1v-2.8h2.9
			l3.6,5.3c0.6,0.8,1.2,1.1,2.2,1.1h3.5v-3.6h-2.6l-2.6-3.6c2.6-1.2,4.1-3.6,4.1-6.5c0-4.1-3.1-7.3-8.3-7.3h-9.5v3.6h2.3v13.8h-2.3
			V42.3z M121.3,31.8c0-4.2,3.1-7.1,6.9-7.1s6.9,2.9,6.9,7.1c0,4.2-3.1,7.1-6.9,7.1S121.3,36,121.3,31.8 M116.9,31.8
			c0,6.4,4.9,10.9,11.3,10.9c6.3,0,11.3-4.5,11.3-10.9s-5-10.9-11.3-10.9C121.9,20.9,116.9,25.4,116.9,31.8 M99.5,27.6v-2.7h2.8
			v13.7H100v3.7h8.9v-3.7h-2.3V24.9h2.8v2.7h3.8v-6.3H95.8v6.3H99.5z M91.2,21.3h-8.9v3.7h2.3v9.5l-10-13.2h-5.5v3.7h2.3v13.7h-2.3
			v3.7H78v-3.7h-2.3v-9.5l10,13.2h3.2V24.9h2.3V21.3z M63.5,42.3v-6.3h-3.9v2.7h-5v-4.5h4.9v-3.7h-4.9v-5.5h5v2.7h3.9v-6.3H48.1v3.7
			h2.3v13.7h-2.3v3.7H63.5z M42.9,38.6h-2.3l-1.1-13.7h2.3v-3.7H36l-7,10.5l-7-10.5h-5.8v3.7h2.3l-1.1,13.7h-2.3v3.7h9.1v-3.7h-2.4
			l0.7-9.8l5.5,8.2h2.2l5.5-8.2l0.6,9.8h-2.4v3.7h9.1V38.6z"/>
		<path class="st3" d="M136.3,98c0-1.9-0.8-3.7-2.1-5.1l-13.1-13.1c-1.3-1.3-3.2-2.1-5.1-2.1c-1.9,0-3.7,0.8-5,2.1l-9.3,9.2
			l23.2,23.2l9.3-9.3C135.5,101.8,136.3,99.9,136.3,98 M98.1,92.7l-46.4,46.4v23.2h23.2l46.4-46.4L98.1,92.7z M101.2,103.4
			c0,0.3-0.1,0.7-0.4,0.9l-30.2,30.2c-0.3,0.3-0.6,0.4-0.9,0.4c-0.7,0-1.2-0.5-1.2-1.2c0-0.3,0.1-0.7,0.4-0.9L99,102.5
			c0.3-0.3,0.6-0.4,0.9-0.4C100.6,102.1,101.2,102.7,101.2,103.4 M72,155.2h-6V148h-7.1v-6l5.1-5.1L77,150.1L72,155.2z"/>
		<path class="st2" d="M80.4,167.8l46.4-46.4l-2.7-2.7l-46.4,46.4H57.2v2.7H80.4z M141.8,103.5c0-1.9-0.8-3.7-2.1-5.1l-2.6-2.6
			c1.3,1.3,2,3.2,2,5c0,1.9-0.8,3.7-2.1,5l-9.3,9.3l2.7,2.7l9.3-9.3C141,107.3,141.8,105.4,141.8,103.5"/>
	</g>
</g>
</svg>
