<?xml version="1.0" encoding="utf-8"?>
<!-- Generator: Adobe Illustrator 20.1.0, SVG Export Plug-In . SVG Version: 6.00 Build 0)  -->
<!DOCTYPE svg PUBLIC "-//W3C//DTD SVG 1.1//EN" "http://www.w3.org/Graphics/SVG/1.1/DTD/svg11.dtd">
<svg version="1.1" id="Ebene_1" xmlns="http://www.w3.org/2000/svg" xmlns:xlink="http://www.w3.org/1999/xlink" x="0px" y="0px"
	 viewBox="0 0 176.7 249.7" style="enable-background:new 0 0 176.7 249.7;" xml:space="preserve">
<style type="text/css">
	.st0{clip-path:url(#SVGID_2_);fill:#FFFFFF;}
	.st1{clip-path:url(#SVGID_2_);fill:#813A79;}
	.st2{fill:#977A88;}
	.st3{fill:#A28694;}
	.st4{fill:#C2ADB8;}
	.st5{fill:#FFFFFF;}
	.st6{clip-path:url(#SVGID_4_);fill:#FFFFFF;}
	.st7{clip-path:url(#SVGID_4_);fill:#C2ADB8;}
</style>
<g>
	<g>
		<defs>
			<rect id="SVGID_1_" x="-0.1" width="176.9" height="249.7"/>
		</defs>
		<clipPath id="SVGID_2_">
			<use xlink:href="#SVGID_1_"  style="overflow:visible;"/>
		</clipPath>
		<path class="st0" d="M76.7,79.3C76.8,79.3,76.8,79.3,76.7,79.3C76.8,79.3,76.7,79.3,76.7,79.3"/>
		<path class="st1" d="M101.3,83.5"/>
	</g>
	<polygon class="st2" points="-0.1,0 -0.1,171.5 88.4,249.7 88.4,0 	"/>
	<polygon class="st3" points="88.4,0 88.4,249.7 176.8,171.5 176.8,0 	"/>
	<path class="st4" d="M111.1,136.7l24.7-18.9l-4.9-0.1l-20.7,15.9L111.1,136.7z M57.7,170.6l-1.5,4.9l30.4-20.9l30.4,20.9l-1.5-4.9
		l-28.9-19.9L57.7,170.6z M42.4,117.6l-4.9,0.1l24.7,18.9l0.9-3.2L42.4,117.6z"/>
	<polygon class="st5" points="86.8,74 74.5,108.7 37.7,109.7 66.9,132.1 56.4,167.5 86.8,146.6 117.2,167.5 106.7,132.1 136,109.7 
		99.1,108.7 	"/>
	<g>
		<defs>
			<rect id="SVGID_3_" x="-0.1" width="176.9" height="249.7"/>
		</defs>
		<clipPath id="SVGID_4_">
			<use xlink:href="#SVGID_3_"  style="overflow:visible;"/>
		</clipPath>
		<path class="st6" d="M146.5,26.7v-2.7h2.8v13.7h-2.3v3.7h8.9v-3.7h-2.3V24.1h2.8v2.7h3.8v-6.3h-17.3v6.3H146.5z M128.7,24h2.3
			v13.8h-2.3v3.6h8.9v-3.6h-2.3V24h2.3v-3.6h-8.9V24z M101.3,24h2.3v8.5c0,6.4,4,9.2,8.8,9.2c4.8,0,8.8-2.9,8.8-9.2V24h2.3v-3.6
			h-8.9V24h2.3v8.8c0,3.7-2.2,5.3-4.5,5.3c-2.3,0-4.5-1.6-4.5-5.3V24h2.3v-3.6h-8.9V24z M85.5,24h2.8c2.4,0,4,1.2,4,3.7
			s-1.6,3.7-4,3.7h-2.8V24z M78.9,41.4h8.7v-3.6h-2.1V35h2.9l3.6,5.3c0.6,0.8,1.2,1.1,2.2,1.1h3.5v-3.6h-2.6l-2.6-3.6
			c2.6-1.2,4.1-3.6,4.1-6.5c0-4.1-3.1-7.3-8.3-7.3h-9.5V24h2.3v13.8h-2.3V41.4z M57.1,30.9c0,6.7,5.3,10.9,11.3,10.9
			c2,0,4-0.3,5.7-1.2l-1.3-3.4c-1.2,0.6-2.6,0.9-4.3,0.9c-3.5,0-7-2.5-7-7.1c0-4.2,2.9-7.1,6.6-7.1c0.6,0,1.4,0.1,1.9,0.3v3h3.9
			v-5.7c-1.6-0.9-3.8-1.3-5.8-1.3C62.2,20,57.1,24.4,57.1,30.9 M52.6,41.4v-6.3h-3.9v2.7h-5v-4.5h4.9v-3.7h-4.9v-5.5h5v2.7h3.9v-6.3
			H37.1v3.7h2.3v13.7h-2.3v3.7H52.6z M20.7,24h2.8c2.4,0,4,1.2,4,3.7s-1.6,3.7-4,3.7h-2.8V24z M14.1,41.4h8.7v-3.6h-2.1V35h2.9
			l3.6,5.3c0.6,0.8,1.2,1.1,2.2,1.1H33v-3.6h-2.6l-2.6-3.6c2.6-1.2,4.1-3.6,4.1-6.5c0-4.1-3.1-7.3-8.3-7.3h-9.5V24h2.3v13.8h-2.3
			V41.4z"/>
		<path class="st7" d="M148.5,25.2h-0.4v2.7h-3.8l1.5,1h2.8V25.2z M161.7,21.5v6.4h-3.9l1.4,1h3.9v-6.4L161.7,21.5z M157.5,38.7v3.9
			h-9l1.5,1h9v-3.9L157.5,38.7z M156.6,38.2V27.6l-1-0.7v-1.7h-0.4V37h0.9v0.8L156.6,38.2z M138.4,38.3V26.2h2.3v-3.7l-1.5-1v3.7
			h-2.3v11.9h0.9v0.8L138.4,38.3z M139.2,38.8v3.7h-9l1.5,1h9v-3.7L139.2,38.8z M111.8,21.5v3.7h-2.3v8.4c0,1.6,0.4,2.7,1,3.5
			c0.2,0.1,0.6,0.2,1,0.3c-0.4-0.7-0.5-1.6-0.5-2.7v-8.4h2.3v-3.7L111.8,21.5z M109.1,41.5c1.9,1.5,3.9,2.4,6,2.4c5,0,9.2-3,9.2-9.6
			v-8.1h2.3v-3.7l-1.5-1v3.7h-2.3v8.1c0,6.6-4.2,9.6-9.2,9.6c-1.9,0-3-0.3-4.2-1.1L109.1,41.5z M93.9,42l0.1,0.1
			C94,42,94,42,93.9,42 M87.8,37.8l0.8,0.6v-1.1h0.8l-0.7-1h-1.5v0.9h0.7V37.8z M99.4,38.9v3.7h-3.7c-0.6,0-1.1-0.2-1.6-0.5l1.7,1.1
			c0.5,0.4,1.1,0.5,1.8,0.5h3.3v-3.7L99.4,38.9z M91.4,26.2c-0.1-0.3-0.2-0.5-0.4-0.8c-0.4-0.1-0.9-0.2-1.5-0.2h-2.4v5.6h1.5v-4.5
			H91.4z M89.2,38.8v3.8h-8.8l1.5,1h8.8v-3.8L89.2,38.8z M96.2,23.6c1.3,1.1,2,2.6,2,5c0,2.9-1.5,5.1-3.9,6.5l1.5,2.1h0.7l-0.7-1
			c2.5-1.4,3.9-3.8,3.9-6.6c0-1.7-0.7-4-2.7-5.3L96.2,23.6z M75.5,22.5v5.7h-4l1.5,1h4v-5.7L75.5,22.5z M74.5,38.3l1.2,3.3
			c-2,1-4.1,1.4-6.2,1.4c-2.3,0-3.9-0.3-5.7-1.4l1,0.6c1.8,1.2,3.6,1.8,6.3,1.8c2,0,4.1-0.3,6.1-1.4L76,39.3L74.5,38.3z M69.3,24.9
			c-3.4,0-6.2,2.8-6.2,6.7c0,2.1,0.7,3.7,1.8,4.8c0.3,0.2,0.7,0.3,1,0.4c-0.8-1.1-1.3-2.5-1.3-4.2c0-3.4,2-5.9,4.7-6.6V24.9z
			 M50.2,30.7v3.7h1.5v-2.7L50.2,30.7z M45.3,37h1.5v-1.6H48v-1.1h-2.6V37z M48,25.2h-2.6v3.6h1.5v-2.6H48V25.2z M54.2,21.5v6.4h-4
			l1.5,1h4v-6.4L54.2,21.5z M54.2,36.2v6.4H38.7l1.5,1h15.6v-6.4L54.2,36.2z M29.1,42l0.1,0.1C29.2,42,29.2,42,29.1,42 M23,37.8
			l0.8,0.6v-1.1h0.8l-0.7-1h-1.5v0.9H23V37.8z M34.6,38.9v3.7h-3.7c-0.6,0-1.1-0.2-1.6-0.5l1.7,1.1c0.5,0.4,1.1,0.5,1.8,0.5H36v-3.7
			L34.6,38.9z M26.6,26.2c-0.1-0.3-0.2-0.5-0.4-0.8c-0.4-0.1-0.9-0.2-1.5-0.2h-2.4v5.6h1.5v-4.5H26.6z M24.4,38.8v3.8h-8.8l1.5,1
			h8.8v-3.8L24.4,38.8z M31.4,23.6c1.3,1.1,2,2.6,2,5c0,2.9-1.5,5.1-3.9,6.5l1.5,2.1h0.7l-0.7-1c2.5-1.4,3.9-3.8,3.9-6.6
			c0-1.7-0.7-4-2.7-5.3L31.4,23.6z"/>
	</g>
</g>
</svg>
